<ttFont>
    <TTGlyph name="A" xMin="128" yMin="-64" xMax="1872" yMax="1728">
      <contour>
        <pt x="1872" y="224" on="1"/>
        <pt x="1851" y="202" on="0"/>
        <pt x="1786" y="146" on="0"/>
        <pt x="1705" y="89" on="0"/>
        <pt x="1611" y="35" on="0"/>
        <pt x="1513" y="-7" on="0"/>
        <pt x="1414" y="-32" on="0"/>
        <pt x="1368" y="-32" on="1"/>
        <pt x="1336" y="-32" on="0"/>
        <pt x="1271" y="-10" on="0"/>
        <pt x="1218" y="49" on="0"/>
        <pt x="1184" y="153" on="0"/>
        <pt x="1184" y="236" on="1"/>
        <pt x="1184" y="271" on="0"/>
        <pt x="1194" y="352" on="0"/>
        <pt x="1202" y="399" on="1"/>
        <pt x="1146" y="286" on="0"/>
        <pt x="1005" y="113" on="0"/>
        <pt x="846" y="-4" on="0"/>
        <pt x="676" y="-64" on="0"/>
        <pt x="591" y="-64" on="1"/>
        <pt x="498" y="-64" on="0"/>
        <pt x="331" y="1" on="0"/>
        <pt x="203" y="130" on="0"/>
        <pt x="128" y="322" on="0"/>
        <pt x="128" y="450" on="1"/>
        <pt x="128" y="547" on="0"/>
        <pt x="173" y="759" on="0"/>
        <pt x="259" y="975" on="0"/>
        <pt x="381" y="1187" on="0"/>
        <pt x="537" y="1378" on="0"/>
        <pt x="722" y="1541" on="0"/>
        <pt x="932" y="1660" on="0"/>
        <pt x="1164" y="1728" on="0"/>
        <pt x="1289" y="1728" on="1"/>
        <pt x="1323" y="1728" on="0"/>
        <pt x="1364" y="1717" on="0"/>
        <pt x="1385" y="1700" on="0"/>
        <pt x="1391" y="1682" on="0"/>
        <pt x="1391" y="1675" on="1"/>
        <pt x="1391" y="1670" on="0"/>
        <pt x="1390" y="1662" on="0"/>
        <pt x="1390" y="1660" on="1"/>
        <pt x="1390" y="1655" on="1"/>
        <pt x="1417" y="1639" on="0"/>
        <pt x="1473" y="1632" on="0"/>
        <pt x="1527" y="1627" on="0"/>
        <pt x="1575" y="1611" on="0"/>
        <pt x="1611" y="1564" on="0"/>
        <pt x="1632" y="1474" on="0"/>
        <pt x="1632" y="1397" on="1"/>
        <pt x="1632" y="1337" on="0"/>
        <pt x="1609" y="1187" on="0"/>
        <pt x="1571" y="1023" on="0"/>
        <pt x="1524" y="855" on="0"/>
        <pt x="1477" y="697" on="0"/>
        <pt x="1433" y="557" on="0"/>
        <pt x="1418" y="505" on="1"/>
        <pt x="1415" y="461" on="0"/>
        <pt x="1411" y="385" on="0"/>
        <pt x="1411" y="344" on="1"/>
        <pt x="1411" y="312" on="0"/>
        <pt x="1414" y="271" on="0"/>
        <pt x="1422" y="247" on="0"/>
        <pt x="1436" y="238" on="0"/>
        <pt x="1447" y="238" on="1"/>
        <pt x="1467" y="238" on="0"/>
        <pt x="1528" y="259" on="0"/>
        <pt x="1597" y="292" on="0"/>
        <pt x="1672" y="333" on="0"/>
        <pt x="1741" y="374" on="0"/>
        <pt x="1801" y="408" on="0"/>
        <pt x="1821" y="419" on="1"/>
      </contour>
      <contour>
        <pt x="1399" y="1517" on="1"/>
        <pt x="1364" y="1527" on="0"/>
        <pt x="1289" y="1536" on="0"/>
        <pt x="1254" y="1536" on="1"/>
        <pt x="1173" y="1536" on="0"/>
        <pt x="1015" y="1474" on="0"/>
        <pt x="866" y="1367" on="0"/>
        <pt x="731" y="1222" on="0"/>
        <pt x="614" y="1055" on="0"/>
        <pt x="520" y="875" on="0"/>
        <pt x="452" y="696" on="0"/>
        <pt x="416" y="527" on="0"/>
        <pt x="416" y="456" on="1"/>
        <pt x="416" y="315" on="0"/>
        <pt x="529" y="160" on="0"/>
        <pt x="648" y="160" on="1"/>
        <pt x="722" y="160" on="0"/>
        <pt x="855" y="222" on="0"/>
        <pt x="969" y="323" on="0"/>
        <pt x="1064" y="450" on="0"/>
        <pt x="1135" y="580" on="0"/>
        <pt x="1181" y="701" on="0"/>
        <pt x="1191" y="745" on="1"/>
      </contour>
    </TTGlyph>
    <TTGlyph name="AE" xMin="128" yMin="-96" xMax="2568" yMax="1696">
      <contour>
        <pt x="2568" y="250" on="1"/>
        <pt x="2487" y="164" on="0"/>
        <pt x="2284" y="35" on="0"/>
        <pt x="2063" y="-52" on="0"/>
        <pt x="1835" y="-96" on="0"/>
        <pt x="1728" y="-96" on="1"/>
        <pt x="1623" y="-96" on="0"/>
        <pt x="1435" y="-43" on="0"/>
        <pt x="1295" y="64" on="0"/>
        <pt x="1213" y="223" on="0"/>
        <pt x="1213" y="329" on="1"/>
        <pt x="1213" y="355" on="0"/>
        <pt x="1216" y="384" on="1"/>
        <pt x="1160" y="291" on="0"/>
        <pt x="1008" y="128" on="0"/>
        <pt x="840" y="6" on="0"/>
        <pt x="667" y="-64" on="0"/>
        <pt x="591" y="-64" on="1"/>
        <pt x="498" y="-64" on="0"/>
        <pt x="331" y="1" on="0"/>
        <pt x="203" y="130" on="0"/>
        <pt x="128" y="322" on="0"/>
        <pt x="128" y="450" on="1"/>
        <pt x="128" y="581" on="0"/>
        <pt x="214" y="857" on="0"/>
        <pt x="372" y="1116" on="0"/>
        <pt x="593" y="1346" on="0"/>
        <pt x="861" y="1518" on="0"/>
        <pt x="1169" y="1618" on="0"/>
        <pt x="1336" y="1618" on="1"/>
        <pt x="1368" y="1618" on="0"/>
        <pt x="1437" y="1604" on="0"/>
        <pt x="1494" y="1572" on="0"/>
        <pt x="1531" y="1522" on="0"/>
        <pt x="1531" y="1486" on="1"/>
        <pt x="1531" y="1473" on="0"/>
        <pt x="1528" y="1458" on="1"/>
        <pt x="1567" y="1525" on="0"/>
        <pt x="1655" y="1617" on="0"/>
        <pt x="1752" y="1672" on="0"/>
        <pt x="1855" y="1696" on="0"/>
        <pt x="1909" y="1696" on="1"/>
        <pt x="1982" y="1696" on="0"/>
        <pt x="2135" y="1661" on="0"/>
        <pt x="2288" y="1610" on="0"/>
        <pt x="2437" y="1554" on="0"/>
        <pt x="2507" y="1534" on="1"/>
        <pt x="2523" y="1524" on="0"/>
        <pt x="2536" y="1489" on="0"/>
        <pt x="2536" y="1469" on="1"/>
        <pt x="2536" y="1446" on="0"/>
        <pt x="2522" y="1397" on="0"/>
        <pt x="2498" y="1357" on="0"/>
        <pt x="2467" y="1331" on="0"/>
        <pt x="2451" y="1331" on="1"/>
        <pt x="2439" y="1331" on="0"/>
        <pt x="2432" y="1336" on="1"/>
        <pt x="2398" y="1361" on="0"/>
        <pt x="2282" y="1420" on="0"/>
        <pt x="2143" y="1470" on="0"/>
        <pt x="1993" y="1504" on="0"/>
        <pt x="1925" y="1504" on="1"/>
        <pt x="1849" y="1504" on="0"/>
        <pt x="1732" y="1437" on="0"/>
        <pt x="1645" y="1332" on="0"/>
        <pt x="1587" y="1204" on="0"/>
        <pt x="1551" y="1083" on="0"/>
        <pt x="1536" y="984" on="0"/>
        <pt x="1536" y="960" on="1"/>
        <pt x="1636" y="969" on="0"/>
        <pt x="1728" y="976" on="1"/>
        <pt x="1767" y="979" on="0"/>
        <pt x="1849" y="985" on="0"/>
        <pt x="1925" y="989" on="0"/>
        <pt x="1992" y="992" on="0"/>
        <pt x="2016" y="992" on="1"/>
        <pt x="2061" y="992" on="0"/>
        <pt x="2106" y="939" on="0"/>
        <pt x="2106" y="906" on="1"/>
        <pt x="2106" y="887" on="0"/>
        <pt x="2091" y="849" on="0"/>
        <pt x="2061" y="819" on="0"/>
        <pt x="2015" y="800" on="0"/>
        <pt x="1984" y="800" on="1"/>
        <pt x="1975" y="800" on="0"/>
        <pt x="1904" y="795" on="0"/>
        <pt x="1805" y="788" on="0"/>
        <pt x="1692" y="780" on="0"/>
        <pt x="1591" y="773" on="0"/>
        <pt x="1515" y="768" on="0"/>
        <pt x="1504" y="768" on="1"/>
        <pt x="1486" y="718" on="0"/>
        <pt x="1473" y="658" on="1"/>
        <pt x="1462" y="607" on="0"/>
        <pt x="1443" y="469" on="0"/>
        <pt x="1443" y="390" on="1"/>
        <pt x="1443" y="315" on="0"/>
        <pt x="1486" y="215" on="0"/>
        <pt x="1561" y="154" on="0"/>
        <pt x="1663" y="128" on="0"/>
        <pt x="1722" y="128" on="1"/>
        <pt x="1793" y="128" on="0"/>
        <pt x="1949" y="156" on="0"/>
        <pt x="2104" y="205" on="0"/>
        <pt x="2251" y="272" on="0"/>
        <pt x="2377" y="349" on="0"/>
        <pt x="2473" y="434" on="0"/>
        <pt x="2499" y="477" on="1"/>
      </contour>
      <contour>
        <pt x="1400" y="1426" on="1"/>
        <pt x="1296" y="1426" on="0"/>
        <pt x="1069" y="1354" on="0"/>
        <pt x="850" y="1223" on="0"/>
        <pt x="653" y="1043" on="0"/>
        <pt x="504" y="828" on="0"/>
        <pt x="416" y="584" on="0"/>
        <pt x="416" y="456" on="1"/>
        <pt x="416" y="315" on="0"/>
        <pt x="529" y="160" on="0"/>
        <pt x="648" y="160" on="1"/>
        <pt x="722" y="160" on="0"/>
        <pt x="862" y="245" on="0"/>
        <pt x="986" y="380" on="0"/>
        <pt x="1093" y="547" on="0"/>
        <pt x="1177" y="711" on="0"/>
        <pt x="1235" y="853" on="0"/>
        <pt x="1248" y="896" on="1"/>
      </contour>
    </TTGlyph>
    <TTGlyph name="Aacute" xMin="128" yMin="-64" xMax="1872" yMax="2572">
      <component glyphName="A" x="0" y="0" flags="0x1204"/>
      <component glyphName="acute" x="1148" y="862" flags="0x1004"/>
    </TTGlyph>
    <TTGlyph name="Acircumflex" xMin="128" yMin="-64" xMax="1872" yMax="2583">
      <component glyphName="A" x="0" y="0" flags="0x1204"/>
      <component glyphName="circumflex" x="897" y="887" flags="0x1004"/>
    </TTGlyph>
    <TTGlyph name="Adieresis" xMin="128" yMin="-64" xMax="1872" yMax="2298">
      <component glyphName="A" x="0" y="0" flags="0x1204"/>
      <component glyphName="dieresis" x="847" y="844" flags="0x1004"/>
    </TTGlyph>
    <TTGlyph name="Agrave" xMin="128" yMin="-64" xMax="1872" yMax="2572">
      <component glyphName="A" x="0" y="0" flags="0x1204"/>
      <component glyphName="grave" x="791" y="862" flags="0x1004"/>
    </TTGlyph>
    <TTGlyph name="Aring" xMin="128" yMin="-64" xMax="1872" yMax="2514">
      <component glyphName="A" x="0" y="0" flags="0x1204"/>
      <component glyphName="ring" x="1048" y="905" flags="0x1004"/>
    </TTGlyph>
    <TTGlyph name="Atilde" xMin="128" yMin="-64" xMax="1872" yMax="2341">
      <component glyphName="A" x="0" y="0" flags="0x1204"/>
      <component glyphName="tilde" x="913" y="918" flags="0x1004"/>
    </TTGlyph>
    <TTGlyph name="B" xMin="-183" yMin="-87" xMax="1504" yMax="1736">
      <contour>
        <pt x="60" y="1330" on="1"/>
        <pt x="-5" y="1212" on="0"/>
        <pt x="-107" y="1094" on="0"/>
        <pt x="-139" y="1094" on="1"/>
        <pt x="-183" y="1094" on="0"/>
        <pt x="-183" y="1195" on="1"/>
        <pt x="-183" y="1293" on="0"/>
        <pt x="-127" y="1449" on="0"/>
        <pt x="-26" y="1570" on="0"/>
        <pt x="113" y="1655" on="0"/>
        <pt x="278" y="1710" on="0"/>
        <pt x="462" y="1736" on="0"/>
        <pt x="559" y="1736" on="1"/>
        <pt x="672" y="1736" on="0"/>
        <pt x="900" y="1703" on="0"/>
        <pt x="1110" y="1643" on="0"/>
        <pt x="1292" y="1558" on="0"/>
        <pt x="1427" y="1455" on="0"/>
        <pt x="1504" y="1335" on="0"/>
        <pt x="1504" y="1270" on="1"/>
        <pt x="1504" y="1193" on="0"/>
        <pt x="1437" y="1043" on="0"/>
        <pt x="1294" y="922" on="0"/>
        <pt x="1071" y="844" on="0"/>
        <pt x="915" y="841" on="1"/>
        <pt x="1014" y="841" on="0"/>
        <pt x="1162" y="778" on="0"/>
        <pt x="1262" y="671" on="0"/>
        <pt x="1312" y="531" on="0"/>
        <pt x="1312" y="454" on="1"/>
        <pt x="1312" y="391" on="0"/>
        <pt x="1278" y="261" on="0"/>
        <pt x="1210" y="141" on="0"/>
        <pt x="1108" y="36" on="0"/>
        <pt x="971" y="-42" on="0"/>
        <pt x="799" y="-87" on="0"/>
        <pt x="696" y="-87" on="1"/>
        <pt x="631" y="-87" on="0"/>
        <pt x="487" y="-70" on="0"/>
        <pt x="340" y="-41" on="0"/>
        <pt x="198" y="-1" on="0"/>
        <pt x="135" y="22" on="1"/>
        <pt x="107" y="29" on="0"/>
        <pt x="64" y="57" on="0"/>
        <pt x="64" y="93" on="1"/>
        <pt x="64" y="259" on="0"/>
        <pt x="81" y="607" on="0"/>
        <pt x="133" y="939" on="0"/>
        <pt x="231" y="1240" on="0"/>
        <pt x="312" y="1359" on="1"/>
        <pt x="383" y="1408" on="0"/>
        <pt x="441" y="1408" on="1"/>
        <pt x="514" y="1408" on="0"/>
        <pt x="563" y="1326" on="1"/>
        <pt x="517" y="1264" on="0"/>
        <pt x="452" y="1112" on="0"/>
        <pt x="408" y="945" on="0"/>
        <pt x="381" y="771" on="0"/>
        <pt x="373" y="688" on="1"/>
        <pt x="368" y="641" on="0"/>
        <pt x="361" y="535" on="0"/>
        <pt x="355" y="425" on="0"/>
        <pt x="352" y="316" on="0"/>
        <pt x="352" y="266" on="1"/>
        <pt x="352" y="258" on="0"/>
        <pt x="353" y="230" on="0"/>
        <pt x="357" y="200" on="0"/>
        <pt x="365" y="175" on="0"/>
        <pt x="373" y="169" on="1"/>
        <pt x="434" y="149" on="0"/>
        <pt x="574" y="121" on="0"/>
        <pt x="644" y="121" on="1"/>
        <pt x="729" y="121" on="0"/>
        <pt x="889" y="162" on="0"/>
        <pt x="1013" y="251" on="0"/>
        <pt x="1088" y="390" on="0"/>
        <pt x="1088" y="489" on="1"/>
        <pt x="1088" y="547" on="0"/>
        <pt x="1044" y="624" on="0"/>
        <pt x="973" y="676" on="0"/>
        <pt x="882" y="707" on="0"/>
        <pt x="787" y="732" on="0"/>
        <pt x="696" y="756" on="0"/>
        <pt x="625" y="793" on="0"/>
        <pt x="581" y="848" on="0"/>
        <pt x="581" y="892" on="1"/>
        <pt x="581" y="913" on="0"/>
        <pt x="586" y="944" on="0"/>
        <pt x="605" y="964" on="0"/>
        <pt x="642" y="974" on="0"/>
        <pt x="674" y="974" on="1"/>
        <pt x="717" y="974" on="0"/>
        <pt x="788" y="967" on="0"/>
        <pt x="829" y="967" on="1"/>
        <pt x="925" y="967" on="0"/>
        <pt x="1080" y="1014" on="0"/>
        <pt x="1189" y="1094" on="0"/>
        <pt x="1248" y="1201" on="0"/>
        <pt x="1248" y="1262" on="1"/>
        <pt x="1248" y="1302" on="0"/>
        <pt x="1202" y="1369" on="0"/>
        <pt x="1119" y="1422" on="0"/>
        <pt x="1007" y="1462" on="0"/>
        <pt x="875" y="1489" on="0"/>
        <pt x="729" y="1502" on="0"/>
        <pt x="654" y="1502" on="1"/>
        <pt x="559" y="1502" on="0"/>
        <pt x="374" y="1481" on="0"/>
        <pt x="215" y="1438" on="0"/>
        <pt x="92" y="1373" on="0"/>
      </contour>
    </TTGlyph>
    <TTGlyph name="C" xMin="96" yMin="-192" xMax="1766" yMax="1792">
      <contour>
        <pt x="1766" y="338" on="1"/>
        <pt x="1717" y="317" on="0"/>
        <pt x="1625" y="248" on="0"/>
        <pt x="1531" y="166" on="0"/>
        <pt x="1430" y="75" on="0"/>
        <pt x="1313" y="-14" on="0"/>
        <pt x="1175" y="-95" on="0"/>
        <pt x="1008" y="-156" on="0"/>
        <pt x="807" y="-192" on="0"/>
        <pt x="685" y="-192" on="1"/>
        <pt x="550" y="-192" on="0"/>
        <pt x="333" y="-83" on="0"/>
        <pt x="179" y="102" on="0"/>
        <pt x="96" y="347" on="0"/>
        <pt x="96" y="482" on="1"/>
        <pt x="96" y="574" on="0"/>
        <pt x="136" y="785" on="0"/>
        <pt x="211" y="1004" on="0"/>
        <pt x="319" y="1222" on="0"/>
        <pt x="456" y="1422" on="0"/>
        <pt x="620" y="1593" on="0"/>
        <pt x="806" y="1720" on="0"/>
        <pt x="1012" y="1792" on="0"/>
        <pt x="1123" y="1792" on="1"/>
        <pt x="1195" y="1792" on="0"/>
        <pt x="1343" y="1741" on="0"/>
        <pt x="1461" y="1635" on="0"/>
        <pt x="1536" y="1473" on="0"/>
        <pt x="1536" y="1363" on="1"/>
        <pt x="1536" y="1289" on="0"/>
        <pt x="1489" y="1138" on="0"/>
        <pt x="1407" y="999" on="0"/>
        <pt x="1296" y="877" on="0"/>
        <pt x="1168" y="788" on="0"/>
        <pt x="1030" y="736" on="0"/>
        <pt x="961" y="736" on="1"/>
        <pt x="870" y="736" on="0"/>
        <pt x="780" y="785" on="0"/>
        <pt x="780" y="831" on="1"/>
        <pt x="780" y="839" on="0"/>
        <pt x="779" y="861" on="0"/>
        <pt x="779" y="873" on="1"/>
        <pt x="779" y="891" on="0"/>
        <pt x="783" y="930" on="0"/>
        <pt x="795" y="962" on="0"/>
        <pt x="818" y="982" on="0"/>
        <pt x="838" y="982" on="1"/>
        <pt x="850" y="982" on="0"/>
        <pt x="868" y="975" on="0"/>
        <pt x="890" y="967" on="0"/>
        <pt x="921" y="960" on="0"/>
        <pt x="945" y="960" on="1"/>
        <pt x="1009" y="960" on="0"/>
        <pt x="1140" y="1016" on="0"/>
        <pt x="1245" y="1118" on="0"/>
        <pt x="1312" y="1259" on="0"/>
        <pt x="1312" y="1344" on="1"/>
        <pt x="1312" y="1389" on="0"/>
        <pt x="1288" y="1470" on="0"/>
        <pt x="1234" y="1531" on="0"/>
        <pt x="1149" y="1568" on="0"/>
        <pt x="1088" y="1568" on="1"/>
        <pt x="1016" y="1568" on="0"/>
        <pt x="879" y="1505" on="0"/>
        <pt x="753" y="1397" on="0"/>
        <pt x="640" y="1249" on="0"/>
        <pt x="544" y="1080" on="0"/>
        <pt x="467" y="897" on="0"/>
        <pt x="413" y="715" on="0"/>
        <pt x="384" y="544" on="0"/>
        <pt x="384" y="472" on="1"/>
        <pt x="384" y="369" on="0"/>
        <pt x="435" y="216" on="0"/>
        <pt x="529" y="114" on="0"/>
        <pt x="665" y="64" on="0"/>
        <pt x="750" y="64" on="1"/>
        <pt x="856" y="64" on="0"/>
        <pt x="1039" y="117" on="0"/>
        <pt x="1205" y="203" on="0"/>
        <pt x="1360" y="311" on="0"/>
        <pt x="1515" y="420" on="0"/>
        <pt x="1676" y="519" on="0"/>
        <pt x="1766" y="553" on="1"/>
      </contour>
    </TTGlyph>
    <TTGlyph name="Ccedilla" xMin="96" yMin="-755" xMax="1766" yMax="1792">
      <component glyphName="C" x="0" y="0" flags="0x1204"/>
      <component glyphName="cedilla" x="98" y="-244" flags="0x1004"/>
    </TTGlyph>
    <TTGlyph name="D" xMin="-123" yMin="-60" xMax="1408" yMax="1736">
      <contour>
        <pt x="549" y="1736" on="1"/>
        <pt x="712" y="1736" on="0"/>
        <pt x="966" y="1682" on="0"/>
        <pt x="1157" y="1586" on="0"/>
        <pt x="1289" y="1453" on="0"/>
        <pt x="1371" y="1296" on="0"/>
        <pt x="1408" y="1120" on="0"/>
        <pt x="1408" y="1028" on="1"/>
        <pt x="1408" y="902" on="0"/>
        <pt x="1352" y="643" on="0"/>
        <pt x="1246" y="401" on="0"/>
        <pt x="1091" y="189" on="0"/>
        <pt x="891" y="31" on="0"/>
        <pt x="651" y="-60" on="0"/>
        <pt x="512" y="-60" on="1"/>
        <pt x="465" y="-60" on="0"/>
        <pt x="367" y="-46" on="0"/>
        <pt x="275" y="-22" on="0"/>
        <pt x="193" y="8" on="0"/>
        <pt x="162" y="24" on="1"/>
        <pt x="149" y="28" on="0"/>
        <pt x="134" y="39" on="0"/>
        <pt x="126" y="54" on="0"/>
        <pt x="124" y="76" on="0"/>
        <pt x="124" y="93" on="1"/>
        <pt x="124" y="259" on="0"/>
        <pt x="141" y="607" on="0"/>
        <pt x="193" y="939" on="0"/>
        <pt x="291" y="1240" on="0"/>
        <pt x="372" y="1359" on="1"/>
        <pt x="443" y="1408" on="0"/>
        <pt x="501" y="1408" on="1"/>
        <pt x="574" y="1408" on="0"/>
        <pt x="623" y="1326" on="1"/>
        <pt x="577" y="1264" on="0"/>
        <pt x="515" y="1112" on="0"/>
        <pt x="473" y="945" on="0"/>
        <pt x="445" y="771" on="0"/>
        <pt x="433" y="688" on="1"/>
        <pt x="419" y="596" on="0"/>
        <pt x="400" y="465" on="0"/>
        <pt x="389" y="367" on="0"/>
        <pt x="384" y="293" on="0"/>
        <pt x="384" y="258" on="1"/>
        <pt x="384" y="221" on="0"/>
        <pt x="389" y="171" on="0"/>
        <pt x="408" y="141" on="0"/>
        <pt x="447" y="128" on="0"/>
        <pt x="480" y="128" on="1"/>
        <pt x="580" y="128" on="0"/>
        <pt x="760" y="207" on="0"/>
        <pt x="912" y="340" on="0"/>
        <pt x="1033" y="516" on="0"/>
        <pt x="1118" y="712" on="0"/>
        <pt x="1164" y="915" on="0"/>
        <pt x="1164" y="1009" on="1"/>
        <pt x="1164" y="1125" on="0"/>
        <pt x="1088" y="1308" on="0"/>
        <pt x="951" y="1435" on="0"/>
        <pt x="759" y="1502" on="0"/>
        <pt x="644" y="1502" on="1"/>
        <pt x="560" y="1502" on="0"/>
        <pt x="395" y="1482" on="0"/>
        <pt x="254" y="1440" on="0"/>
        <pt x="147" y="1375" on="0"/>
        <pt x="120" y="1330" on="1"/>
        <pt x="47" y="1217" on="0"/>
        <pt x="-47" y="1094" on="0"/>
        <pt x="-79" y="1094" on="1"/>
        <pt x="-123" y="1094" on="0"/>
        <pt x="-123" y="1195" on="1"/>
        <pt x="-123" y="1293" on="0"/>
        <pt x="-72" y="1449" on="0"/>
        <pt x="19" y="1570" on="0"/>
        <pt x="144" y="1655" on="0"/>
        <pt x="293" y="1710" on="0"/>
        <pt x="461" y="1736" on="0"/>
      </contour>
    </TTGlyph>
    <TTGlyph name="E" xMin="64" yMin="-96" xMax="1533" yMax="1726">
      <contour>
        <pt x="1477" y="250" on="1"/>
        <pt x="1396" y="164" on="0"/>
        <pt x="1193" y="35" on="0"/>
        <pt x="972" y="-52" on="0"/>
        <pt x="744" y="-96" on="0"/>
        <pt x="637" y="-96" on="1"/>
        <pt x="519" y="-96" on="0"/>
        <pt x="311" y="-41" on="0"/>
        <pt x="155" y="72" on="0"/>
        <pt x="64" y="245" on="0"/>
        <pt x="64" y="364" on="1"/>
        <pt x="64" y="465" on="0"/>
        <pt x="137" y="651" on="0"/>
        <pt x="290" y="795" on="0"/>
        <pt x="529" y="883" on="0"/>
        <pt x="696" y="887" on="1"/>
        <pt x="586" y="887" on="0"/>
        <pt x="422" y="950" on="0"/>
        <pt x="314" y="1057" on="0"/>
        <pt x="260" y="1200" on="0"/>
        <pt x="260" y="1280" on="1"/>
        <pt x="260" y="1355" on="0"/>
        <pt x="312" y="1479" on="0"/>
        <pt x="403" y="1578" on="0"/>
        <pt x="527" y="1652" on="0"/>
        <pt x="672" y="1701" on="0"/>
        <pt x="831" y="1726" on="0"/>
        <pt x="912" y="1726" on="1"/>
        <pt x="1029" y="1726" on="0"/>
        <pt x="1253" y="1675" on="0"/>
        <pt x="1427" y="1573" on="0"/>
        <pt x="1533" y="1420" on="0"/>
        <pt x="1533" y="1318" on="1"/>
        <pt x="1533" y="1282" on="0"/>
        <pt x="1484" y="1212" on="0"/>
        <pt x="1416" y="1157" on="0"/>
        <pt x="1341" y="1124" on="0"/>
        <pt x="1316" y="1124" on="1"/>
        <pt x="1295" y="1124" on="0"/>
        <pt x="1295" y="1161" on="1"/>
        <pt x="1295" y="1194" on="0"/>
        <pt x="1316" y="1298" on="0"/>
        <pt x="1341" y="1376" on="1"/>
        <pt x="1314" y="1398" on="0"/>
        <pt x="1210" y="1442" on="0"/>
        <pt x="1079" y="1478" on="0"/>
        <pt x="931" y="1501" on="0"/>
        <pt x="859" y="1501" on="1"/>
        <pt x="792" y="1501" on="0"/>
        <pt x="670" y="1477" on="0"/>
        <pt x="577" y="1422" on="0"/>
        <pt x="522" y="1332" on="0"/>
        <pt x="522" y="1266" on="1"/>
        <pt x="522" y="1212" on="0"/>
        <pt x="561" y="1138" on="0"/>
        <pt x="626" y="1086" on="0"/>
        <pt x="710" y="1053" on="0"/>
        <pt x="800" y="1027" on="0"/>
        <pt x="887" y="1003" on="0"/>
        <pt x="960" y="972" on="0"/>
        <pt x="1010" y="928" on="0"/>
        <pt x="1018" y="895" on="1"/>
        <pt x="1020" y="874" on="0"/>
        <pt x="1024" y="831" on="0"/>
        <pt x="1024" y="811" on="1"/>
        <pt x="1024" y="755" on="0"/>
        <pt x="982" y="704" on="0"/>
        <pt x="921" y="704" on="1"/>
        <pt x="895" y="704" on="0"/>
        <pt x="818" y="710" on="0"/>
        <pt x="783" y="710" on="1"/>
        <pt x="703" y="710" on="0"/>
        <pt x="549" y="669" on="0"/>
        <pt x="427" y="588" on="0"/>
        <pt x="352" y="469" on="0"/>
        <pt x="352" y="390" on="1"/>
        <pt x="352" y="315" on="0"/>
        <pt x="395" y="215" on="0"/>
        <pt x="470" y="154" on="0"/>
        <pt x="572" y="128" on="0"/>
        <pt x="631" y="128" on="1"/>
        <pt x="702" y="128" on="0"/>
        <pt x="858" y="156" on="0"/>
        <pt x="1013" y="205" on="0"/>
        <pt x="1160" y="272" on="0"/>
        <pt x="1286" y="349" on="0"/>
        <pt x="1382" y="434" on="0"/>
        <pt x="1408" y="477" on="1"/>
      </contour>
    </TTGlyph>
    <TTGlyph name="Eacute" xMin="64" yMin="-96" xMax="1533" yMax="2547">
      <component glyphName="E" x="0" y="0" flags="0x1204"/>
      <component glyphName="acute" x="834" y="837" flags="0x1004"/>
    </TTGlyph>
    <TTGlyph name="Ecircumflex" xMin="64" yMin="-96" xMax="1533" yMax="2593">
      <component glyphName="E" x="0" y="0" flags="0x1204"/>
      <component glyphName="circumflex" x="558" y="897" flags="0x1004"/>
    </TTGlyph>
    <TTGlyph name="Edieresis" xMin="64" yMin="-96" xMax="1533" yMax="2269">
      <component glyphName="E" x="0" y="0" flags="0x1204"/>
      <component glyphName="dieresis" x="482" y="815" flags="0x1004"/>
    </TTGlyph>
    <TTGlyph name="Egrave" xMin="64" yMin="-96" xMax="1533" yMax="2557">
      <component glyphName="E" x="0" y="0" flags="0x1204"/>
      <component glyphName="grave" x="617" y="847" flags="0x1004"/>
    </TTGlyph>
    <TTGlyph name="Eth" xMin="32" yMin="-60" xMax="1408" yMax="1728">
      <contour>
        <pt x="219" y="992" on="1"/>
        <pt x="256" y="1129" on="0"/>
        <pt x="350" y="1376" on="0"/>
        <pt x="462" y="1570" on="0"/>
        <pt x="593" y="1696" on="0"/>
        <pt x="667" y="1713" on="1"/>
        <pt x="686" y="1716" on="0"/>
        <pt x="709" y="1720" on="1"/>
        <pt x="729" y="1723" on="0"/>
        <pt x="781" y="1728" on="0"/>
        <pt x="811" y="1728" on="1"/>
        <pt x="915" y="1728" on="0"/>
        <pt x="1084" y="1675" on="0"/>
        <pt x="1217" y="1581" on="0"/>
        <pt x="1314" y="1450" on="0"/>
        <pt x="1377" y="1295" on="0"/>
        <pt x="1408" y="1120" on="0"/>
        <pt x="1408" y="1028" on="1"/>
        <pt x="1408" y="902" on="0"/>
        <pt x="1352" y="643" on="0"/>
        <pt x="1246" y="401" on="0"/>
        <pt x="1091" y="189" on="0"/>
        <pt x="891" y="31" on="0"/>
        <pt x="651" y="-60" on="0"/>
        <pt x="512" y="-60" on="1"/>
        <pt x="465" y="-60" on="0"/>
        <pt x="367" y="-46" on="0"/>
        <pt x="275" y="-22" on="0"/>
        <pt x="193" y="8" on="0"/>
        <pt x="162" y="24" on="1"/>
        <pt x="149" y="28" on="0"/>
        <pt x="125" y="39" on="0"/>
        <pt x="107" y="54" on="0"/>
        <pt x="96" y="76" on="0"/>
        <pt x="96" y="93" on="1"/>
        <pt x="96" y="170" on="0"/>
        <pt x="106" y="341" on="0"/>
        <pt x="126" y="521" on="0"/>
        <pt x="155" y="707" on="0"/>
        <pt x="174" y="800" on="1"/>
        <pt x="119" y="800" on="1"/>
        <pt x="92" y="800" on="0"/>
        <pt x="58" y="817" on="0"/>
        <pt x="39" y="844" on="0"/>
        <pt x="32" y="875" on="0"/>
        <pt x="32" y="890" on="1"/>
        <pt x="32" y="902" on="0"/>
        <pt x="36" y="936" on="0"/>
        <pt x="57" y="969" on="0"/>
        <pt x="99" y="992" on="0"/>
        <pt x="138" y="992" on="1"/>
      </contour>
      <contour>
        <pt x="480" y="128" on="1"/>
        <pt x="583" y="128" on="0"/>
        <pt x="768" y="212" on="0"/>
        <pt x="924" y="355" on="0"/>
        <pt x="1049" y="544" on="0"/>
        <pt x="1137" y="753" on="0"/>
        <pt x="1184" y="969" on="0"/>
        <pt x="1184" y="1069" on="1"/>
        <pt x="1184" y="1171" on="0"/>
        <pt x="1126" y="1333" on="0"/>
        <pt x="1030" y="1445" on="0"/>
        <pt x="906" y="1504" on="0"/>
        <pt x="839" y="1504" on="1"/>
        <pt x="778" y="1504" on="0"/>
        <pt x="675" y="1420" on="0"/>
        <pt x="590" y="1279" on="0"/>
        <pt x="521" y="1094" on="0"/>
        <pt x="494" y="992" on="1"/>
        <pt x="746" y="992" on="1"/>
        <pt x="759" y="992" on="0"/>
        <pt x="789" y="987" on="0"/>
        <pt x="815" y="972" on="0"/>
        <pt x="833" y="946" on="0"/>
        <pt x="833" y="926" on="1"/>
        <pt x="833" y="906" on="0"/>
        <pt x="822" y="861" on="0"/>
        <pt x="792" y="824" on="0"/>
        <pt x="738" y="800" on="0"/>
        <pt x="694" y="800" on="1"/>
        <pt x="450" y="800" on="1"/>
        <pt x="433" y="713" on="0"/>
        <pt x="408" y="547" on="0"/>
        <pt x="392" y="404" on="0"/>
        <pt x="384" y="291" on="0"/>
        <pt x="384" y="258" on="1"/>
        <pt x="384" y="221" on="0"/>
        <pt x="389" y="171" on="0"/>
        <pt x="408" y="141" on="0"/>
        <pt x="447" y="128" on="0"/>
      </contour>
    </TTGlyph>
    <TTGlyph name="Euro" xMin="-65" yMin="-192" xMax="1572" yMax="1792">
      <contour>
        <pt x="801" y="704" on="1"/>
        <pt x="814" y="704" on="0"/>
        <pt x="848" y="698" on="0"/>
        <pt x="876" y="681" on="0"/>
        <pt x="896" y="652" on="0"/>
        <pt x="896" y="628" on="1"/>
        <pt x="896" y="608" on="0"/>
        <pt x="887" y="567" on="0"/>
        <pt x="860" y="534" on="0"/>
        <pt x="810" y="512" on="0"/>
        <pt x="768" y="512" on="1"/>
        <pt x="385" y="512" on="1"/>
        <pt x="384" y="501" on="0"/>
        <pt x="384" y="482" on="0"/>
        <pt x="384" y="472" on="1"/>
        <pt x="384" y="359" on="0"/>
        <pt x="442" y="203" on="0"/>
        <pt x="541" y="106" on="0"/>
        <pt x="675" y="62" on="0"/>
        <pt x="752" y="62" on="1"/>
        <pt x="827" y="62" on="0"/>
        <pt x="989" y="100" on="0"/>
        <pt x="1146" y="165" on="0"/>
        <pt x="1293" y="254" on="0"/>
        <pt x="1353" y="305" on="1"/>
        <pt x="1378" y="321" on="0"/>
        <pt x="1405" y="321" on="1"/>
        <pt x="1424" y="321" on="0"/>
        <pt x="1460" y="305" on="0"/>
        <pt x="1488" y="278" on="0"/>
        <pt x="1504" y="241" on="0"/>
        <pt x="1504" y="221" on="1"/>
        <pt x="1504" y="199" on="0"/>
        <pt x="1481" y="152" on="0"/>
        <pt x="1455" y="131" on="1"/>
        <pt x="1382" y="67" on="0"/>
        <pt x="1206" y="-50" on="0"/>
        <pt x="1011" y="-139" on="0"/>
        <pt x="804" y="-192" on="0"/>
        <pt x="700" y="-192" on="1"/>
        <pt x="623" y="-192" on="0"/>
        <pt x="473" y="-161" on="0"/>
        <pt x="339" y="-94" on="0"/>
        <pt x="225" y="12" on="0"/>
        <pt x="142" y="162" on="0"/>
        <pt x="96" y="358" on="0"/>
        <pt x="96" y="482" on="1"/>
        <pt x="96" y="490" on="0"/>
        <pt x="96" y="504" on="0"/>
        <pt x="97" y="512" on="1"/>
        <pt x="32" y="512" on="1"/>
        <pt x="0" y="512" on="0"/>
        <pt x="-38" y="535" on="0"/>
        <pt x="-59" y="568" on="0"/>
        <pt x="-65" y="606" on="0"/>
        <pt x="-65" y="621" on="1"/>
        <pt x="-65" y="634" on="0"/>
        <pt x="-59" y="663" on="0"/>
        <pt x="-39" y="688" on="0"/>
        <pt x="0" y="704" on="0"/>
        <pt x="32" y="704" on="1"/>
        <pt x="121" y="704" on="1"/>
        <pt x="127" y="736" on="0"/>
        <pt x="143" y="799" on="0"/>
        <pt x="153" y="832" on="1"/>
        <pt x="97" y="832" on="1"/>
        <pt x="65" y="832" on="0"/>
        <pt x="27" y="855" on="0"/>
        <pt x="6" y="888" on="0"/>
        <pt x="0" y="926" on="0"/>
        <pt x="0" y="941" on="1"/>
        <pt x="0" y="954" on="0"/>
        <pt x="6" y="983" on="0"/>
        <pt x="26" y="1008" on="0"/>
        <pt x="65" y="1024" on="0"/>
        <pt x="97" y="1024" on="1"/>
        <pt x="223" y="1024" on="1"/>
        <pt x="266" y="1122" on="0"/>
        <pt x="377" y="1313" on="0"/>
        <pt x="510" y="1484" on="0"/>
        <pt x="664" y="1628" on="0"/>
        <pt x="835" y="1733" on="0"/>
        <pt x="1023" y="1792" on="0"/>
        <pt x="1123" y="1792" on="1"/>
        <pt x="1253" y="1792" on="0"/>
        <pt x="1426" y="1725" on="0"/>
        <pt x="1529" y="1616" on="0"/>
        <pt x="1572" y="1477" on="0"/>
        <pt x="1572" y="1405" on="1"/>
        <pt x="1572" y="1334" on="0"/>
        <pt x="1539" y="1197" on="0"/>
        <pt x="1491" y="1091" on="0"/>
        <pt x="1435" y="1026" on="0"/>
        <pt x="1412" y="1026" on="1"/>
        <pt x="1398" y="1026" on="0"/>
        <pt x="1349" y="1035" on="0"/>
        <pt x="1303" y="1053" on="0"/>
        <pt x="1269" y="1082" on="0"/>
        <pt x="1269" y="1102" on="1"/>
        <pt x="1269" y="1104" on="0"/>
        <pt x="1269" y="1111" on="0"/>
        <pt x="1270" y="1114" on="1"/>
        <pt x="1275" y="1139" on="0"/>
        <pt x="1296" y="1205" on="0"/>
        <pt x="1317" y="1278" on="0"/>
        <pt x="1333" y="1354" on="0"/>
        <pt x="1333" y="1390" on="1"/>
        <pt x="1333" y="1426" on="0"/>
        <pt x="1311" y="1491" on="0"/>
        <pt x="1255" y="1540" on="0"/>
        <pt x="1160" y="1568" on="0"/>
        <pt x="1088" y="1568" on="1"/>
        <pt x="1001" y="1568" on="0"/>
        <pt x="839" y="1479" on="0"/>
        <pt x="694" y="1329" on="0"/>
        <pt x="569" y="1132" on="0"/>
        <pt x="521" y="1024" on="1"/>
        <pt x="866" y="1024" on="1"/>
        <pt x="879" y="1024" on="0"/>
        <pt x="913" y="1018" on="0"/>
        <pt x="941" y="1001" on="0"/>
        <pt x="961" y="972" on="0"/>
        <pt x="961" y="948" on="1"/>
        <pt x="961" y="928" on="0"/>
        <pt x="952" y="887" on="0"/>
        <pt x="925" y="854" on="0"/>
        <pt x="875" y="832" on="0"/>
        <pt x="833" y="832" on="1"/>
        <pt x="448" y="832" on="1"/>
        <pt x="437" y="799" on="0"/>
        <pt x="420" y="736" on="0"/>
        <pt x="413" y="704" on="1"/>
      </contour>
    </TTGlyph>
    <TTGlyph name="F" xMin="128" yMin="-128" xMax="2164" yMax="1778">
      <contour>
        <pt x="654" y="1212" on="1"/>
        <pt x="654" y="1210" on="0"/>
        <pt x="652" y="1186" on="0"/>
        <pt x="632" y="1158" on="0"/>
        <pt x="587" y="1136" on="0"/>
        <pt x="544" y="1136" on="1"/>
        <pt x="486" y="1136" on="0"/>
        <pt x="421" y="1149" on="0"/>
        <pt x="390" y="1172" on="0"/>
        <pt x="383" y="1201" on="0"/>
        <pt x="383" y="1216" on="1"/>
        <pt x="383" y="1365" on="0"/>
        <pt x="533" y="1578" on="0"/>
        <pt x="804" y="1714" on="0"/>
        <pt x="1183" y="1778" on="0"/>
        <pt x="1412" y="1778" on="1"/>
        <pt x="1564" y="1778" on="0"/>
        <pt x="1897" y="1758" on="0"/>
        <pt x="2074" y="1733" on="1"/>
        <pt x="2125" y="1719" on="0"/>
        <pt x="2164" y="1667" on="0"/>
        <pt x="2164" y="1638" on="1"/>
        <pt x="2164" y="1619" on="0"/>
        <pt x="2153" y="1577" on="0"/>
        <pt x="2131" y="1541" on="0"/>
        <pt x="2094" y="1518" on="0"/>
        <pt x="2069" y="1518" on="1"/>
        <pt x="2065" y="1518" on="0"/>
        <pt x="2056" y="1519" on="0"/>
        <pt x="2051" y="1520" on="1"/>
        <pt x="1986" y="1531" on="0"/>
        <pt x="1834" y="1548" on="0"/>
        <pt x="1668" y="1559" on="0"/>
        <pt x="1491" y="1564" on="0"/>
        <pt x="1400" y="1564" on="1"/>
        <pt x="1373" y="1564" on="0"/>
        <pt x="1298" y="1558" on="0"/>
        <pt x="1263" y="1554" on="1"/>
        <pt x="1223" y="1550" on="0"/>
        <pt x="1180" y="1544" on="1"/>
        <pt x="1180" y="1533" on="0"/>
        <pt x="1176" y="1505" on="0"/>
        <pt x="1168" y="1455" on="0"/>
        <pt x="1157" y="1377" on="0"/>
        <pt x="1141" y="1254" on="0"/>
        <pt x="1121" y="1080" on="0"/>
        <pt x="1109" y="960" on="1"/>
        <pt x="1664" y="960" on="1"/>
        <pt x="1688" y="960" on="0"/>
        <pt x="1714" y="941" on="0"/>
        <pt x="1726" y="912" on="0"/>
        <pt x="1728" y="879" on="0"/>
        <pt x="1728" y="864" on="1"/>
        <pt x="1728" y="816" on="0"/>
        <pt x="1686" y="768" on="0"/>
        <pt x="1664" y="768" on="1"/>
        <pt x="1657" y="768" on="0"/>
        <pt x="1579" y="765" on="0"/>
        <pt x="1467" y="761" on="0"/>
        <pt x="1333" y="756" on="0"/>
        <pt x="1208" y="752" on="0"/>
        <pt x="1105" y="749" on="0"/>
        <pt x="1079" y="749" on="1"/>
        <pt x="1061" y="628" on="0"/>
        <pt x="1015" y="404" on="0"/>
        <pt x="946" y="209" on="0"/>
        <pt x="852" y="49" on="0"/>
        <pt x="722" y="-65" on="0"/>
        <pt x="552" y="-128" on="0"/>
        <pt x="442" y="-128" on="1"/>
        <pt x="419" y="-128" on="0"/>
        <pt x="355" y="-122" on="0"/>
        <pt x="285" y="-108" on="0"/>
        <pt x="216" y="-85" on="0"/>
        <pt x="162" y="-51" on="0"/>
        <pt x="128" y="-6" on="0"/>
        <pt x="128" y="23" on="1"/>
        <pt x="128" y="38" on="0"/>
        <pt x="141" y="87" on="0"/>
        <pt x="168" y="133" on="0"/>
        <pt x="209" y="167" on="0"/>
        <pt x="238" y="167" on="1"/>
        <pt x="271" y="167" on="0"/>
        <pt x="344" y="145" on="0"/>
        <pt x="422" y="118" on="0"/>
        <pt x="504" y="96" on="0"/>
        <pt x="546" y="96" on="1"/>
        <pt x="579" y="96" on="0"/>
        <pt x="641" y="149" on="0"/>
        <pt x="696" y="242" on="0"/>
        <pt x="746" y="367" on="0"/>
        <pt x="790" y="512" on="0"/>
        <pt x="828" y="670" on="0"/>
        <pt x="844" y="749" on="1"/>
        <pt x="721" y="749" on="1"/>
        <pt x="704" y="749" on="0"/>
        <pt x="654" y="757" on="0"/>
        <pt x="608" y="776" on="0"/>
        <pt x="576" y="808" on="0"/>
        <pt x="576" y="832" on="1"/>
        <pt x="576" y="849" on="0"/>
        <pt x="594" y="879" on="0"/>
        <pt x="615" y="886" on="1"/>
        <pt x="671" y="898" on="0"/>
        <pt x="755" y="916" on="0"/>
        <pt x="820" y="929" on="0"/>
        <pt x="870" y="939" on="0"/>
        <pt x="891" y="942" on="1"/>
        <pt x="915" y="1049" on="0"/>
        <pt x="943" y="1207" on="0"/>
        <pt x="963" y="1336" on="0"/>
        <pt x="981" y="1450" on="0"/>
        <pt x="993" y="1514" on="1"/>
        <pt x="906" y="1489" on="0"/>
        <pt x="778" y="1419" on="0"/>
        <pt x="694" y="1339" on="0"/>
        <pt x="654" y="1253" on="0"/>
      </contour>
    </TTGlyph>
    <TTGlyph name="G" xMin="96" yMin="-736" xMax="1536" yMax="1730">
      <contour>
        <pt x="1536" y="341" on="1"/>
        <pt x="1536" y="225" on="0"/>
        <pt x="1509" y="-25" on="0"/>
        <pt x="1449" y="-265" on="0"/>
        <pt x="1350" y="-479" on="0"/>
        <pt x="1206" y="-641" on="0"/>
        <pt x="1013" y="-736" on="0"/>
        <pt x="889" y="-736" on="1"/>
        <pt x="866" y="-736" on="0"/>
        <pt x="802" y="-730" on="0"/>
        <pt x="732" y="-716" on="0"/>
        <pt x="663" y="-693" on="0"/>
        <pt x="609" y="-659" on="0"/>
        <pt x="575" y="-614" on="0"/>
        <pt x="575" y="-585" on="1"/>
        <pt x="575" y="-570" on="0"/>
        <pt x="588" y="-521" on="0"/>
        <pt x="615" y="-475" on="0"/>
        <pt x="656" y="-441" on="0"/>
        <pt x="685" y="-441" on="1"/>
        <pt x="718" y="-441" on="0"/>
        <pt x="780" y="-463" on="0"/>
        <pt x="846" y="-490" on="0"/>
        <pt x="918" y="-512" on="0"/>
        <pt x="960" y="-512" on="1"/>
        <pt x="1007" y="-512" on="0"/>
        <pt x="1098" y="-416" on="0"/>
        <pt x="1179" y="-262" on="0"/>
        <pt x="1246" y="-71" on="0"/>
        <pt x="1269" y="25" on="1"/>
        <pt x="1221" y="-19" on="0"/>
        <pt x="1114" y="-98" on="0"/>
        <pt x="977" y="-157" on="0"/>
        <pt x="801" y="-192" on="0"/>
        <pt x="685" y="-192" on="1"/>
        <pt x="550" y="-192" on="0"/>
        <pt x="333" y="-83" on="0"/>
        <pt x="179" y="102" on="0"/>
        <pt x="96" y="347" on="0"/>
        <pt x="96" y="482" on="1"/>
        <pt x="96" y="659" on="0"/>
        <pt x="181" y="982" on="0"/>
        <pt x="331" y="1259" on="0"/>
        <pt x="535" y="1484" on="0"/>
        <pt x="771" y="1643" on="0"/>
        <pt x="1030" y="1730" on="0"/>
        <pt x="1160" y="1730" on="1"/>
        <pt x="1240" y="1730" on="0"/>
        <pt x="1377" y="1682" on="0"/>
        <pt x="1478" y="1580" on="0"/>
        <pt x="1535" y="1424" on="0"/>
        <pt x="1535" y="1316" on="1"/>
        <pt x="1535" y="1274" on="0"/>
        <pt x="1515" y="1191" on="0"/>
        <pt x="1492" y="1149" on="1"/>
        <pt x="1460" y="1102" on="0"/>
        <pt x="1400" y="1063" on="0"/>
        <pt x="1373" y="1063" on="1"/>
        <pt x="1352" y="1063" on="0"/>
        <pt x="1316" y="1085" on="0"/>
        <pt x="1290" y="1121" on="0"/>
        <pt x="1275" y="1166" on="0"/>
        <pt x="1275" y="1190" on="1"/>
        <pt x="1275" y="1209" on="0"/>
        <pt x="1287" y="1245" on="0"/>
        <pt x="1300" y="1281" on="0"/>
        <pt x="1312" y="1320" on="0"/>
        <pt x="1312" y="1341" on="1"/>
        <pt x="1312" y="1441" on="0"/>
        <pt x="1224" y="1541" on="0"/>
        <pt x="1158" y="1541" on="1"/>
        <pt x="1077" y="1541" on="0"/>
        <pt x="898" y="1474" on="0"/>
        <pt x="726" y="1347" on="0"/>
        <pt x="571" y="1162" on="0"/>
        <pt x="453" y="924" on="0"/>
        <pt x="384" y="637" on="0"/>
        <pt x="384" y="472" on="1"/>
        <pt x="384" y="369" on="0"/>
        <pt x="435" y="216" on="0"/>
        <pt x="529" y="114" on="0"/>
        <pt x="665" y="64" on="0"/>
        <pt x="750" y="64" on="1"/>
        <pt x="908" y="64" on="0"/>
        <pt x="1174" y="149" on="0"/>
        <pt x="1291" y="226" on="1"/>
        <pt x="1299" y="256" on="0"/>
        <pt x="1311" y="311" on="0"/>
        <pt x="1311" y="334" on="1"/>
        <pt x="1311" y="364" on="0"/>
        <pt x="1295" y="399" on="0"/>
        <pt x="1268" y="416" on="0"/>
        <pt x="1231" y="420" on="0"/>
        <pt x="1210" y="420" on="1"/>
        <pt x="1172" y="420" on="0"/>
        <pt x="1115" y="440" on="0"/>
        <pt x="1075" y="472" on="0"/>
        <pt x="1055" y="514" on="0"/>
        <pt x="1055" y="535" on="1"/>
        <pt x="1055" y="556" on="0"/>
        <pt x="1074" y="595" on="0"/>
        <pt x="1114" y="625" on="0"/>
        <pt x="1175" y="644" on="0"/>
        <pt x="1216" y="644" on="1"/>
        <pt x="1313" y="644" on="0"/>
        <pt x="1438" y="604" on="0"/>
        <pt x="1509" y="526" on="0"/>
        <pt x="1536" y="413" on="0"/>
      </contour>
    </TTGlyph>
    <TTGlyph name="H" xMin="354" yMin="-64" xMax="2283" yMax="1824">
      <contour>
        <pt x="1798" y="750" on="1"/>
        <pt x="1763" y="627" on="0"/>
        <pt x="1721" y="414" on="0"/>
        <pt x="1721" y="336" on="1"/>
        <pt x="1721" y="268" on="0"/>
        <pt x="1778" y="191" on="0"/>
        <pt x="1844" y="191" on="1"/>
        <pt x="1869" y="191" on="0"/>
        <pt x="1939" y="220" on="0"/>
        <pt x="2029" y="282" on="0"/>
        <pt x="2140" y="380" on="0"/>
        <pt x="2208" y="448" on="1"/>
        <pt x="2211" y="442" on="0"/>
        <pt x="2220" y="420" on="1"/>
        <pt x="2228" y="401" on="0"/>
        <pt x="2257" y="324" on="0"/>
        <pt x="2283" y="257" on="1"/>
        <pt x="2208" y="178" on="0"/>
        <pt x="2057" y="58" on="0"/>
        <pt x="1914" y="-23" on="0"/>
        <pt x="1783" y="-64" on="0"/>
        <pt x="1728" y="-64" on="1"/>
        <pt x="1665" y="-64" on="0"/>
        <pt x="1557" y="-17" on="0"/>
        <pt x="1478" y="73" on="0"/>
        <pt x="1432" y="204" on="0"/>
        <pt x="1432" y="288" on="1"/>
        <pt x="1432" y="317" on="0"/>
        <pt x="1444" y="405" on="0"/>
        <pt x="1467" y="517" on="0"/>
        <pt x="1500" y="650" on="0"/>
        <pt x="1520" y="724" on="1"/>
        <pt x="1386" y="710" on="0"/>
        <pt x="1140" y="686" on="0"/>
        <pt x="1018" y="675" on="1"/>
        <pt x="990" y="591" on="0"/>
        <pt x="935" y="430" on="0"/>
        <pt x="884" y="289" on="0"/>
        <pt x="841" y="172" on="0"/>
        <pt x="826" y="131" on="1"/>
        <pt x="777" y="25" on="0"/>
        <pt x="684" y="-63" on="0"/>
        <pt x="647" y="-63" on="1"/>
        <pt x="623" y="-63" on="0"/>
        <pt x="577" y="-47" on="0"/>
        <pt x="541" y="-17" on="0"/>
        <pt x="520" y="25" on="0"/>
        <pt x="520" y="51" on="1"/>
        <pt x="520" y="67" on="0"/>
        <pt x="524" y="82" on="1"/>
        <pt x="566" y="235" on="0"/>
        <pt x="665" y="520" on="0"/>
        <pt x="716" y="655" on="1"/>
        <pt x="661" y="655" on="0"/>
        <pt x="560" y="672" on="0"/>
        <pt x="474" y="714" on="0"/>
        <pt x="407" y="788" on="0"/>
        <pt x="385" y="845" on="1"/>
        <pt x="381" y="863" on="0"/>
        <pt x="376" y="891" on="0"/>
        <pt x="376" y="905" on="1"/>
        <pt x="376" y="949" on="0"/>
        <pt x="407" y="949" on="1"/>
        <pt x="426" y="949" on="0"/>
        <pt x="472" y="908" on="0"/>
        <pt x="508" y="863" on="1"/>
        <pt x="555" y="865" on="0"/>
        <pt x="649" y="867" on="0"/>
        <pt x="703" y="867" on="1"/>
        <pt x="799" y="867" on="1"/>
        <pt x="835" y="960" on="0"/>
        <pt x="900" y="1133" on="0"/>
        <pt x="928" y="1216" on="1"/>
        <pt x="945" y="1269" on="0"/>
        <pt x="965" y="1375" on="0"/>
        <pt x="965" y="1423" on="1"/>
        <pt x="965" y="1462" on="0"/>
        <pt x="951" y="1528" on="0"/>
        <pt x="919" y="1574" on="0"/>
        <pt x="869" y="1600" on="0"/>
        <pt x="832" y="1600" on="1"/>
        <pt x="802" y="1600" on="0"/>
        <pt x="723" y="1580" on="0"/>
        <pt x="627" y="1535" on="0"/>
        <pt x="514" y="1462" on="0"/>
        <pt x="448" y="1408" on="1"/>
        <pt x="425" y="1389" on="0"/>
        <pt x="386" y="1373" on="0"/>
        <pt x="370" y="1373" on="1"/>
        <pt x="362" y="1373" on="0"/>
        <pt x="354" y="1426" on="0"/>
        <pt x="354" y="1465" on="1"/>
        <pt x="354" y="1517" on="0"/>
        <pt x="403" y="1611" on="0"/>
        <pt x="485" y="1690" on="0"/>
        <pt x="592" y="1755" on="0"/>
        <pt x="705" y="1800" on="0"/>
        <pt x="817" y="1824" on="0"/>
        <pt x="864" y="1824" on="1"/>
        <pt x="934" y="1824" on="0"/>
        <pt x="1062" y="1786" on="0"/>
        <pt x="1159" y="1702" on="0"/>
        <pt x="1216" y="1568" on="0"/>
        <pt x="1216" y="1472" on="1"/>
        <pt x="1216" y="1427" on="0"/>
        <pt x="1195" y="1297" on="0"/>
        <pt x="1159" y="1142" on="0"/>
        <pt x="1110" y="967" on="0"/>
        <pt x="1082" y="876" on="1"/>
        <pt x="1185" y="883" on="0"/>
        <pt x="1443" y="897" on="0"/>
        <pt x="1573" y="904" on="1"/>
        <pt x="1624" y="1071" on="0"/>
        <pt x="1747" y="1428" on="0"/>
        <pt x="1816" y="1600" on="1"/>
        <pt x="1839" y="1657" on="0"/>
        <pt x="1914" y="1725" on="0"/>
        <pt x="1965" y="1725" on="1"/>
        <pt x="1986" y="1725" on="0"/>
        <pt x="2025" y="1713" on="0"/>
        <pt x="2055" y="1688" on="0"/>
        <pt x="2072" y="1649" on="0"/>
        <pt x="2072" y="1623" on="1"/>
        <pt x="2072" y="1600" on="0"/>
        <pt x="2066" y="1539" on="0"/>
        <pt x="2053" y="1504" on="1"/>
        <pt x="2030" y="1442" on="0"/>
        <pt x="1978" y="1301" on="0"/>
        <pt x="1925" y="1152" on="0"/>
        <pt x="1872" y="996" on="0"/>
        <pt x="1848" y="919" on="1"/>
        <pt x="1911" y="923" on="0"/>
        <pt x="2005" y="930" on="0"/>
        <pt x="2029" y="932" on="1"/>
        <pt x="2040" y="933" on="0"/>
        <pt x="2059" y="934" on="0"/>
        <pt x="2067" y="934" on="1"/>
        <pt x="2097" y="934" on="0"/>
        <pt x="2134" y="922" on="0"/>
        <pt x="2155" y="900" on="0"/>
        <pt x="2163" y="870" on="0"/>
        <pt x="2163" y="851" on="1"/>
        <pt x="2163" y="830" on="0"/>
        <pt x="2145" y="802" on="0"/>
        <pt x="2118" y="785" on="0"/>
        <pt x="2088" y="778" on="0"/>
        <pt x="2075" y="777" on="1"/>
        <pt x="2047" y="774" on="0"/>
        <pt x="2023" y="771" on="0"/>
        <pt x="2013" y="770" on="0"/>
        <pt x="2010" y="769" on="0"/>
        <pt x="1998" y="768" on="0"/>
        <pt x="1968" y="766" on="0"/>
        <pt x="1937" y="763" on="1"/>
        <pt x="1901" y="759" on="0"/>
        <pt x="1832" y="753" on="0"/>
      </contour>
    </TTGlyph>
    <TTGlyph name="I" xMin="-100" yMin="-33" xMax="1154" yMax="1730">
      <contour>
        <pt x="309" y="1404" on="1"/>
        <pt x="305" y="1402" on="0"/>
        <pt x="305" y="1402" on="1"/>
        <pt x="302" y="1402" on="0"/>
        <pt x="297" y="1473" on="0"/>
        <pt x="297" y="1533" on="1"/>
        <pt x="297" y="1545" on="0"/>
        <pt x="319" y="1584" on="0"/>
        <pt x="371" y="1628" on="0"/>
        <pt x="456" y="1672" on="0"/>
        <pt x="585" y="1708" on="0"/>
        <pt x="760" y="1730" on="0"/>
        <pt x="875" y="1730" on="1"/>
        <pt x="974" y="1730" on="0"/>
        <pt x="1085" y="1711" on="0"/>
        <pt x="1141" y="1680" on="0"/>
        <pt x="1154" y="1639" on="0"/>
        <pt x="1154" y="1618" on="1"/>
        <pt x="1154" y="1596" on="0"/>
        <pt x="1144" y="1554" on="0"/>
        <pt x="1102" y="1521" on="0"/>
        <pt x="1018" y="1501" on="0"/>
        <pt x="945" y="1501" on="1"/>
        <pt x="912" y="1501" on="0"/>
        <pt x="879" y="1504" on="1"/>
        <pt x="851" y="1395" on="0"/>
        <pt x="809" y="1223" on="0"/>
        <pt x="775" y="1078" on="0"/>
        <pt x="747" y="950" on="0"/>
        <pt x="718" y="820" on="0"/>
        <pt x="686" y="678" on="0"/>
        <pt x="645" y="506" on="0"/>
        <pt x="590" y="293" on="0"/>
        <pt x="554" y="157" on="1"/>
        <pt x="560" y="157" on="0"/>
        <pt x="603" y="153" on="0"/>
        <pt x="659" y="143" on="0"/>
        <pt x="722" y="127" on="0"/>
        <pt x="774" y="103" on="0"/>
        <pt x="808" y="71" on="0"/>
        <pt x="808" y="50" on="1"/>
        <pt x="808" y="8" on="0"/>
        <pt x="736" y="-32" on="1"/>
        <pt x="715" y="-32" on="0"/>
        <pt x="622" y="-32" on="0"/>
        <pt x="496" y="-32" on="0"/>
        <pt x="350" y="-32" on="0"/>
        <pt x="204" y="-33" on="0"/>
        <pt x="67" y="-32" on="0"/>
        <pt x="-37" y="-31" on="0"/>
        <pt x="-100" y="-29" on="0"/>
        <pt x="-100" y="-27" on="1"/>
        <pt x="-100" y="-24" on="0"/>
        <pt x="-81" y="-11" on="0"/>
        <pt x="-57" y="12" on="0"/>
        <pt x="-35" y="46" on="0"/>
        <pt x="-32" y="71" on="1"/>
        <pt x="-30" y="88" on="0"/>
        <pt x="34" y="119" on="0"/>
        <pt x="124" y="144" on="0"/>
        <pt x="225" y="160" on="0"/>
        <pt x="264" y="163" on="1"/>
        <pt x="295" y="294" on="0"/>
        <pt x="358" y="556" on="0"/>
        <pt x="419" y="807" on="0"/>
        <pt x="478" y="1042" on="0"/>
        <pt x="534" y="1248" on="0"/>
        <pt x="586" y="1420" on="0"/>
        <pt x="609" y="1484" on="1"/>
        <pt x="572" y="1480" on="0"/>
        <pt x="516" y="1472" on="0"/>
        <pt x="472" y="1462" on="0"/>
        <pt x="433" y="1450" on="0"/>
        <pt x="391" y="1435" on="0"/>
        <pt x="342" y="1416" on="0"/>
      </contour>
    </TTGlyph>
    <TTGlyph name="Iacute" xMin="251" yMin="-33" xMax="1505" yMax="2538">
      <component glyphName="I" x="351" y="0" flags="0x1004"/>
      <component glyphName="acute" x="936" y="828" flags="0x1004"/>
    </TTGlyph>
    <TTGlyph name="Icircumflex" xMin="251" yMin="-33" xMax="1505" yMax="2584">
      <component glyphName="I" x="351" y="0" flags="0x1004"/>
      <component glyphName="circumflex" x="664" y="888" flags="0x1004"/>
    </TTGlyph>
    <TTGlyph name="Idieresis" xMin="251" yMin="-33" xMax="1505" yMax="2254">
      <component glyphName="I" x="351" y="0" flags="0x1004"/>
      <component glyphName="dieresis" x="607" y="800" flags="0x1004"/>
    </TTGlyph>
    <TTGlyph name="Igrave" xMin="251" yMin="-33" xMax="1505" yMax="2516">
      <component glyphName="I" x="351" y="0" flags="0x1004"/>
      <component glyphName="grave" x="768" y="806" flags="0x1004"/>
    </TTGlyph>
    <TTGlyph name="J" xMin="576" yMin="-760" xMax="2240" yMax="1987">
      <contour>
        <pt x="576" y="-256" on="1"/>
        <pt x="576" y="-121" on="0"/>
        <pt x="679" y="160" on="0"/>
        <pt x="869" y="411" on="0"/>
        <pt x="1137" y="608" on="0"/>
        <pt x="1302" y="659" on="1"/>
        <pt x="1217" y="728" on="0"/>
        <pt x="1069" y="880" on="0"/>
        <pt x="959" y="1039" on="0"/>
        <pt x="896" y="1200" on="0"/>
        <pt x="896" y="1280" on="1"/>
        <pt x="896" y="1382" on="0"/>
        <pt x="941" y="1566" on="0"/>
        <pt x="1020" y="1723" on="0"/>
        <pt x="1128" y="1850" on="0"/>
        <pt x="1252" y="1939" on="0"/>
        <pt x="1387" y="1987" on="0"/>
        <pt x="1455" y="1987" on="1"/>
        <pt x="1545" y="1987" on="0"/>
        <pt x="1712" y="1895" on="0"/>
        <pt x="1842" y="1695" on="0"/>
        <pt x="1920" y="1377" on="0"/>
        <pt x="1920" y="1152" on="1"/>
        <pt x="1920" y="989" on="0"/>
        <pt x="1897" y="696" on="0"/>
        <pt x="1875" y="562" on="1"/>
        <pt x="1936" y="524" on="0"/>
        <pt x="2061" y="452" on="0"/>
        <pt x="2125" y="416" on="1"/>
        <pt x="2138" y="408" on="0"/>
        <pt x="2177" y="386" on="0"/>
        <pt x="2214" y="361" on="0"/>
        <pt x="2240" y="336" on="0"/>
        <pt x="2240" y="326" on="1"/>
        <pt x="2240" y="316" on="0"/>
        <pt x="2223" y="297" on="0"/>
        <pt x="2200" y="280" on="0"/>
        <pt x="2177" y="268" on="0"/>
        <pt x="2171" y="265" on="1"/>
        <pt x="2154" y="256" on="0"/>
        <pt x="2127" y="256" on="1"/>
        <pt x="2071" y="257" on="0"/>
        <pt x="1920" y="299" on="0"/>
        <pt x="1831" y="337" on="1"/>
        <pt x="1787" y="152" on="0"/>
        <pt x="1664" y="-155" on="0"/>
        <pt x="1518" y="-399" on="0"/>
        <pt x="1355" y="-580" on="0"/>
        <pt x="1188" y="-700" on="0"/>
        <pt x="1023" y="-760" on="0"/>
        <pt x="947" y="-760" on="1"/>
        <pt x="868" y="-760" on="0"/>
        <pt x="733" y="-696" on="0"/>
        <pt x="633" y="-569" on="0"/>
        <pt x="576" y="-381" on="0"/>
      </contour>
      <contour>
        <pt x="832" y="-320" on="1"/>
        <pt x="832" y="-422" on="0"/>
        <pt x="911" y="-527" on="0"/>
        <pt x="976" y="-527" on="1"/>
        <pt x="1042" y="-527" on="0"/>
        <pt x="1209" y="-411" on="0"/>
        <pt x="1377" y="-168" on="0"/>
        <pt x="1530" y="206" on="0"/>
        <pt x="1583" y="464" on="1"/>
        <pt x="1546" y="487" on="1"/>
        <pt x="1444" y="467" on="0"/>
        <pt x="1259" y="368" on="0"/>
        <pt x="1100" y="232" on="0"/>
        <pt x="972" y="69" on="0"/>
        <pt x="881" y="-97" on="0"/>
        <pt x="832" y="-256" on="0"/>
      </contour>
      <contour>
        <pt x="1152" y="1344" on="1"/>
        <pt x="1152" y="1264" on="0"/>
        <pt x="1222" y="1106" on="0"/>
        <pt x="1348" y="951" on="0"/>
        <pt x="1522" y="799" on="0"/>
        <pt x="1627" y="725" on="1"/>
        <pt x="1644" y="864" on="0"/>
        <pt x="1664" y="1171" on="0"/>
        <pt x="1664" y="1344" on="1"/>
        <pt x="1664" y="1462" on="0"/>
        <pt x="1634" y="1625" on="0"/>
        <pt x="1583" y="1727" on="0"/>
        <pt x="1514" y="1772" on="0"/>
        <pt x="1476" y="1772" on="1"/>
        <pt x="1439" y="1772" on="0"/>
        <pt x="1363" y="1736" on="0"/>
        <pt x="1291" y="1673" on="0"/>
        <pt x="1227" y="1589" on="0"/>
        <pt x="1180" y="1494" on="0"/>
        <pt x="1152" y="1393" on="0"/>
      </contour>
    </TTGlyph>
    <TTGlyph name="K" xMin="124" yMin="-64" xMax="2235" yMax="1728">
      <contour>
        <pt x="1227" y="1497" on="1"/>
        <pt x="1217" y="1410" on="0"/>
        <pt x="1202" y="1231" on="0"/>
        <pt x="1196" y="1158" on="1"/>
        <pt x="1189" y="1072" on="0"/>
        <pt x="1184" y="992" on="1"/>
        <pt x="1288" y="992" on="0"/>
        <pt x="1463" y="1004" on="0"/>
        <pt x="1605" y="1043" on="0"/>
        <pt x="1714" y="1116" on="0"/>
        <pt x="1787" y="1237" on="0"/>
        <pt x="1824" y="1413" on="0"/>
        <pt x="1824" y="1536" on="1"/>
        <pt x="1824" y="1586" on="0"/>
        <pt x="1825" y="1645" on="0"/>
        <pt x="1846" y="1677" on="0"/>
        <pt x="1899" y="1691" on="0"/>
        <pt x="1952" y="1696" on="1"/>
        <pt x="1991" y="1696" on="0"/>
        <pt x="2040" y="1675" on="0"/>
        <pt x="2067" y="1645" on="0"/>
        <pt x="2076" y="1614" on="0"/>
        <pt x="2077" y="1604" on="1"/>
        <pt x="2079" y="1581" on="0"/>
        <pt x="2078" y="1506" on="0"/>
        <pt x="2080" y="1474" on="1"/>
        <pt x="2080" y="1361" on="0"/>
        <pt x="2051" y="1174" on="0"/>
        <pt x="1984" y="1024" on="0"/>
        <pt x="1873" y="912" on="0"/>
        <pt x="1709" y="837" on="0"/>
        <pt x="1488" y="800" on="0"/>
        <pt x="1344" y="800" on="1"/>
        <pt x="1404" y="644" on="0"/>
        <pt x="1503" y="405" on="0"/>
        <pt x="1598" y="243" on="0"/>
        <pt x="1698" y="160" on="0"/>
        <pt x="1760" y="160" on="1"/>
        <pt x="1798" y="160" on="0"/>
        <pt x="1890" y="181" on="0"/>
        <pt x="1985" y="220" on="0"/>
        <pt x="2079" y="274" on="0"/>
        <pt x="2119" y="306" on="1"/>
        <pt x="2235" y="110" on="1"/>
        <pt x="2235" y="111" on="0"/>
        <pt x="2197" y="86" on="0"/>
        <pt x="2129" y="47" on="0"/>
        <pt x="2036" y="2" on="0"/>
        <pt x="1924" y="-38" on="0"/>
        <pt x="1799" y="-64" on="0"/>
        <pt x="1734" y="-64" on="1"/>
        <pt x="1662" y="-64" on="0"/>
        <pt x="1551" y="-19" on="0"/>
        <pt x="1464" y="59" on="0"/>
        <pt x="1396" y="164" on="0"/>
        <pt x="1338" y="284" on="0"/>
        <pt x="1285" y="413" on="0"/>
        <pt x="1228" y="539" on="0"/>
        <pt x="1162" y="656" on="0"/>
        <pt x="1120" y="704" on="1"/>
        <pt x="1067" y="500" on="0"/>
        <pt x="925" y="209" on="0"/>
        <pt x="750" y="23" on="0"/>
        <pt x="547" y="-64" on="0"/>
        <pt x="434" y="-64" on="1"/>
        <pt x="395" y="-64" on="0"/>
        <pt x="289" y="-54" on="0"/>
        <pt x="192" y="-30" on="0"/>
        <pt x="124" y="8" on="0"/>
        <pt x="124" y="36" on="1"/>
        <pt x="124" y="63" on="0"/>
        <pt x="150" y="108" on="0"/>
        <pt x="163" y="131" on="1"/>
        <pt x="167" y="138" on="0"/>
        <pt x="185" y="160" on="0"/>
        <pt x="209" y="181" on="0"/>
        <pt x="237" y="196" on="0"/>
        <pt x="251" y="196" on="1"/>
        <pt x="257" y="196" on="0"/>
        <pt x="260" y="195" on="1"/>
        <pt x="295" y="179" on="0"/>
        <pt x="366" y="160" on="0"/>
        <pt x="399" y="160" on="1"/>
        <pt x="489" y="160" on="0"/>
        <pt x="635" y="270" on="0"/>
        <pt x="751" y="460" on="0"/>
        <pt x="840" y="717" on="0"/>
        <pt x="906" y="1012" on="0"/>
        <pt x="953" y="1329" on="0"/>
        <pt x="969" y="1485" on="1"/>
        <pt x="981" y="1568" on="1"/>
        <pt x="893" y="1568" on="0"/>
        <pt x="751" y="1526" on="0"/>
        <pt x="639" y="1454" on="0"/>
        <pt x="558" y="1359" on="0"/>
        <pt x="505" y="1255" on="0"/>
        <pt x="480" y="1146" on="0"/>
        <pt x="480" y="1097" on="1"/>
        <pt x="480" y="1092" on="0"/>
        <pt x="473" y="1068" on="0"/>
        <pt x="448" y="1043" on="0"/>
        <pt x="399" y="1024" on="0"/>
        <pt x="356" y="1024" on="1"/>
        <pt x="300" y="1024" on="0"/>
        <pt x="235" y="1044" on="0"/>
        <pt x="202" y="1071" on="0"/>
        <pt x="192" y="1101" on="0"/>
        <pt x="192" y="1111" on="1"/>
        <pt x="192" y="1120" on="1"/>
        <pt x="192" y="1122" on="0"/>
        <pt x="193" y="1123" on="1"/>
        <pt x="209" y="1258" on="0"/>
        <pt x="318" y="1453" on="0"/>
        <pt x="476" y="1587" on="0"/>
        <pt x="667" y="1669" on="0"/>
        <pt x="859" y="1713" on="0"/>
        <pt x="1038" y="1728" on="0"/>
        <pt x="1105" y="1728" on="1"/>
        <pt x="1144" y="1728" on="0"/>
        <pt x="1193" y="1710" on="0"/>
        <pt x="1221" y="1682" on="0"/>
        <pt x="1231" y="1648" on="0"/>
        <pt x="1231" y="1632" on="1"/>
        <pt x="1231" y="1591" on="0"/>
        <pt x="1230" y="1526" on="0"/>
      </contour>
    </TTGlyph>
    <TTGlyph name="L" xMin="-181" yMin="-50" xMax="1184" yMax="1872">
      <contour>
        <pt x="-156" y="327" on="1"/>
        <pt x="-143" y="336" on="0"/>
        <pt x="-81" y="377" on="0"/>
        <pt x="3" y="433" on="0"/>
        <pt x="100" y="500" on="0"/>
        <pt x="147" y="534" on="1"/>
        <pt x="155" y="602" on="1"/>
        <pt x="177" y="812" on="0"/>
        <pt x="275" y="1163" on="0"/>
        <pt x="408" y="1446" on="0"/>
        <pt x="565" y="1658" on="0"/>
        <pt x="728" y="1801" on="0"/>
        <pt x="887" y="1872" on="0"/>
        <pt x="956" y="1872" on="1"/>
        <pt x="1006" y="1872" on="0"/>
        <pt x="1090" y="1834" on="0"/>
        <pt x="1150" y="1758" on="0"/>
        <pt x="1184" y="1644" on="0"/>
        <pt x="1184" y="1568" on="1"/>
        <pt x="1184" y="1475" on="0"/>
        <pt x="1128" y="1271" on="0"/>
        <pt x="1025" y="1063" on="0"/>
        <pt x="881" y="856" on="0"/>
        <pt x="706" y="664" on="0"/>
        <pt x="503" y="493" on="0"/>
        <pt x="394" y="426" on="1"/>
        <pt x="392" y="365" on="0"/>
        <pt x="389" y="294" on="0"/>
        <pt x="388" y="257" on="0"/>
        <pt x="388" y="243" on="0"/>
        <pt x="388" y="239" on="1"/>
        <pt x="388" y="230" on="0"/>
        <pt x="395" y="215" on="0"/>
        <pt x="416" y="206" on="0"/>
        <pt x="452" y="201" on="0"/>
        <pt x="482" y="201" on="1"/>
        <pt x="527" y="201" on="0"/>
        <pt x="603" y="223" on="1"/>
        <pt x="938" y="319" on="1"/>
        <pt x="946" y="321" on="0"/>
        <pt x="962" y="323" on="0"/>
        <pt x="969" y="323" on="1"/>
        <pt x="994" y="323" on="0"/>
        <pt x="1030" y="304" on="0"/>
        <pt x="1054" y="272" on="0"/>
        <pt x="1066" y="230" on="0"/>
        <pt x="1066" y="208" on="1"/>
        <pt x="1066" y="188" on="0"/>
        <pt x="1054" y="150" on="0"/>
        <pt x="1030" y="117" on="0"/>
        <pt x="994" y="93" on="0"/>
        <pt x="970" y="89" on="1"/>
        <pt x="872" y="50" on="0"/>
        <pt x="770" y="19" on="1"/>
        <pt x="726" y="6" on="0"/>
        <pt x="629" y="-19" on="0"/>
        <pt x="528" y="-38" on="0"/>
        <pt x="425" y="-50" on="0"/>
        <pt x="377" y="-50" on="1"/>
        <pt x="303" y="-50" on="0"/>
        <pt x="208" y="1" on="0"/>
        <pt x="153" y="88" on="0"/>
        <pt x="131" y="202" on="0"/>
        <pt x="131" y="266" on="1"/>
        <pt x="45" y="203" on="0"/>
        <pt x="-75" y="129" on="0"/>
        <pt x="-92" y="129" on="1"/>
        <pt x="-109" y="129" on="0"/>
        <pt x="-140" y="152" on="0"/>
        <pt x="-166" y="190" on="0"/>
        <pt x="-181" y="237" on="0"/>
        <pt x="-181" y="260" on="1"/>
        <pt x="-181" y="279" on="0"/>
        <pt x="-172" y="316" on="0"/>
      </contour>
      <contour>
        <pt x="412" y="678" on="1"/>
        <pt x="463" y="731" on="0"/>
        <pt x="574" y="856" on="0"/>
        <pt x="683" y="993" on="0"/>
        <pt x="784" y="1136" on="0"/>
        <pt x="865" y="1278" on="0"/>
        <pt x="920" y="1412" on="0"/>
        <pt x="928" y="1472" on="1"/>
        <pt x="931" y="1492" on="0"/>
        <pt x="933" y="1529" on="0"/>
        <pt x="933" y="1545" on="1"/>
        <pt x="933" y="1602" on="0"/>
        <pt x="902" y="1654" on="0"/>
        <pt x="875" y="1654" on="1"/>
        <pt x="843" y="1654" on="0"/>
        <pt x="757" y="1587" on="0"/>
        <pt x="663" y="1463" on="0"/>
        <pt x="567" y="1287" on="0"/>
        <pt x="485" y="1071" on="0"/>
        <pt x="424" y="817" on="0"/>
      </contour>
    </TTGlyph>
    <TTGlyph name="Lslash" xMin="-181" yMin="-50" xMax="1514" yMax="1872">
      <contour>
        <pt x="-156" y="327" on="1"/>
        <pt x="-143" y="336" on="0"/>
        <pt x="-81" y="377" on="0"/>
        <pt x="3" y="433" on="0"/>
        <pt x="100" y="500" on="0"/>
        <pt x="147" y="534" on="1"/>
        <pt x="155" y="602" on="1"/>
        <pt x="167" y="721" on="0"/>
        <pt x="188" y="829" on="1"/>
        <pt x="176" y="826" on="0"/>
        <pt x="165" y="824" on="1"/>
        <pt x="89" y="807" on="0"/>
        <pt x="46" y="798" on="1"/>
        <pt x="31" y="795" on="0"/>
        <pt x="19" y="795" on="1"/>
        <pt x="-10" y="795" on="0"/>
        <pt x="-46" y="823" on="0"/>
        <pt x="-67" y="860" on="0"/>
        <pt x="-75" y="898" on="0"/>
        <pt x="-75" y="908" on="1"/>
        <pt x="-75" y="919" on="0"/>
        <pt x="-68" y="942" on="0"/>
        <pt x="-50" y="963" on="0"/>
        <pt x="-19" y="980" on="0"/>
        <pt x="5" y="986" on="1"/>
        <pt x="24" y="990" on="0"/>
        <pt x="145" y="1016" on="0"/>
        <pt x="232" y="1035" on="1"/>
        <pt x="236" y="1036" on="0"/>
        <pt x="240" y="1037" on="1"/>
        <pt x="284" y="1183" on="0"/>
        <pt x="341" y="1304" on="1"/>
        <pt x="408" y="1446" on="0"/>
        <pt x="565" y="1658" on="0"/>
        <pt x="728" y="1801" on="0"/>
        <pt x="887" y="1872" on="0"/>
        <pt x="956" y="1872" on="1"/>
        <pt x="1006" y="1872" on="0"/>
        <pt x="1090" y="1834" on="0"/>
        <pt x="1150" y="1758" on="0"/>
        <pt x="1184" y="1644" on="0"/>
        <pt x="1184" y="1568" on="1"/>
        <pt x="1184" y="1475" on="0"/>
        <pt x="1156" y="1373" on="1"/>
        <pt x="1136" y="1299" on="0"/>
        <pt x="1103" y="1225" on="1"/>
        <pt x="1200" y="1246" on="0"/>
        <pt x="1277" y="1263" on="1"/>
        <pt x="1357" y="1281" on="0"/>
        <pt x="1401" y="1291" on="1"/>
        <pt x="1408" y="1293" on="0"/>
        <pt x="1424" y="1295" on="0"/>
        <pt x="1433" y="1295" on="1"/>
        <pt x="1448" y="1295" on="0"/>
        <pt x="1477" y="1286" on="0"/>
        <pt x="1500" y="1265" on="0"/>
        <pt x="1514" y="1227" on="0"/>
        <pt x="1514" y="1199" on="1"/>
        <pt x="1514" y="1184" on="0"/>
        <pt x="1505" y="1153" on="0"/>
        <pt x="1482" y="1126" on="0"/>
        <pt x="1441" y="1103" on="0"/>
        <pt x="1410" y="1096" on="1"/>
        <pt x="1386" y="1091" on="0"/>
        <pt x="1261" y="1063" on="0"/>
        <pt x="1087" y="1025" on="0"/>
        <pt x="982" y="1002" on="1"/>
        <pt x="968" y="981" on="0"/>
        <pt x="953" y="959" on="1"/>
        <pt x="881" y="856" on="0"/>
        <pt x="706" y="664" on="0"/>
        <pt x="503" y="493" on="0"/>
        <pt x="394" y="426" on="1"/>
        <pt x="392" y="365" on="0"/>
        <pt x="389" y="294" on="0"/>
        <pt x="388" y="257" on="0"/>
        <pt x="388" y="250" on="1"/>
        <pt x="388" y="239" on="1"/>
        <pt x="388" y="230" on="0"/>
        <pt x="395" y="215" on="0"/>
        <pt x="416" y="206" on="0"/>
        <pt x="452" y="201" on="0"/>
        <pt x="482" y="201" on="1"/>
        <pt x="527" y="201" on="0"/>
        <pt x="603" y="223" on="1"/>
        <pt x="938" y="319" on="1"/>
        <pt x="946" y="321" on="0"/>
        <pt x="962" y="323" on="0"/>
        <pt x="969" y="323" on="1"/>
        <pt x="994" y="323" on="0"/>
        <pt x="1030" y="304" on="0"/>
        <pt x="1054" y="272" on="0"/>
        <pt x="1066" y="230" on="0"/>
        <pt x="1066" y="208" on="1"/>
        <pt x="1066" y="188" on="0"/>
        <pt x="1054" y="150" on="0"/>
        <pt x="1030" y="117" on="0"/>
        <pt x="994" y="93" on="0"/>
        <pt x="970" y="89" on="1"/>
        <pt x="872" y="50" on="0"/>
        <pt x="770" y="19" on="1"/>
        <pt x="726" y="6" on="0"/>
        <pt x="629" y="-19" on="0"/>
        <pt x="528" y="-38" on="0"/>
        <pt x="425" y="-50" on="0"/>
        <pt x="377" y="-50" on="1"/>
        <pt x="303" y="-50" on="0"/>
        <pt x="208" y="1" on="0"/>
        <pt x="153" y="88" on="0"/>
        <pt x="131" y="202" on="0"/>
        <pt x="131" y="266" on="1"/>
        <pt x="45" y="203" on="0"/>
        <pt x="-75" y="129" on="0"/>
        <pt x="-92" y="129" on="1"/>
        <pt x="-109" y="129" on="0"/>
        <pt x="-140" y="152" on="0"/>
        <pt x="-166" y="190" on="0"/>
        <pt x="-181" y="237" on="0"/>
        <pt x="-181" y="260" on="1"/>
        <pt x="-181" y="279" on="0"/>
        <pt x="-172" y="316" on="0"/>
      </contour>
      <contour>
        <pt x="652" y="1126" on="1"/>
        <pt x="724" y="1142" on="0"/>
        <pt x="795" y="1158" on="1"/>
        <pt x="810" y="1182" on="0"/>
        <pt x="824" y="1207" on="1"/>
        <pt x="865" y="1278" on="0"/>
        <pt x="920" y="1412" on="0"/>
        <pt x="928" y="1472" on="1"/>
        <pt x="931" y="1492" on="0"/>
        <pt x="933" y="1529" on="0"/>
        <pt x="933" y="1545" on="1"/>
        <pt x="933" y="1602" on="0"/>
        <pt x="902" y="1654" on="0"/>
        <pt x="875" y="1654" on="1"/>
        <pt x="843" y="1654" on="0"/>
        <pt x="757" y="1587" on="0"/>
        <pt x="663" y="1463" on="0"/>
        <pt x="567" y="1287" on="0"/>
        <pt x="526" y="1179" on="1"/>
        <pt x="510" y="1137" on="0"/>
        <pt x="495" y="1092" on="1"/>
        <pt x="572" y="1109" on="0"/>
      </contour>
      <contour>
        <pt x="412" y="678" on="1"/>
        <pt x="463" y="731" on="0"/>
        <pt x="574" y="856" on="0"/>
        <pt x="628" y="924" on="1"/>
        <pt x="629" y="926" on="1"/>
        <pt x="587" y="916" on="0"/>
        <pt x="544" y="907" on="1"/>
        <pt x="491" y="895" on="0"/>
        <pt x="441" y="885" on="1"/>
        <pt x="421" y="785" on="0"/>
      </contour>
    </TTGlyph>
    <TTGlyph name="M" xMin="-56" yMin="-1" xMax="2406" yMax="1730">
      <contour>
        <pt x="440" y="98" on="1"/>
        <pt x="436" y="68" on="0"/>
        <pt x="406" y="30" on="0"/>
        <pt x="364" y="8" on="0"/>
        <pt x="316" y="-1" on="0"/>
        <pt x="294" y="-1" on="1"/>
        <pt x="268" y="-1" on="0"/>
        <pt x="219" y="10" on="0"/>
        <pt x="181" y="33" on="0"/>
        <pt x="159" y="66" on="0"/>
        <pt x="159" y="87" on="1"/>
        <pt x="159" y="128" on="0"/>
        <pt x="167" y="197" on="0"/>
        <pt x="175" y="232" on="1"/>
        <pt x="203" y="349" on="0"/>
        <pt x="245" y="550" on="0"/>
        <pt x="275" y="730" on="0"/>
        <pt x="297" y="899" on="0"/>
        <pt x="314" y="1070" on="0"/>
        <pt x="328" y="1252" on="0"/>
        <pt x="336" y="1356" on="1"/>
        <pt x="336" y="1365" on="0"/>
        <pt x="336" y="1393" on="0"/>
        <pt x="330" y="1418" on="0"/>
        <pt x="315" y="1436" on="0"/>
        <pt x="300" y="1436" on="1"/>
        <pt x="276" y="1436" on="0"/>
        <pt x="207" y="1403" on="0"/>
        <pt x="131" y="1347" on="0"/>
        <pt x="55" y="1272" on="0"/>
        <pt x="23" y="1229" on="1"/>
        <pt x="17" y="1214" on="0"/>
        <pt x="-9" y="1201" on="0"/>
        <pt x="-25" y="1201" on="1"/>
        <pt x="-30" y="1201" on="0"/>
        <pt x="-41" y="1218" on="0"/>
        <pt x="-50" y="1242" on="0"/>
        <pt x="-56" y="1269" on="0"/>
        <pt x="-56" y="1280" on="1"/>
        <pt x="-56" y="1286" on="0"/>
        <pt x="-52" y="1290" on="1"/>
        <pt x="-16" y="1408" on="0"/>
        <pt x="75" y="1567" on="0"/>
        <pt x="176" y="1662" on="0"/>
        <pt x="281" y="1702" on="0"/>
        <pt x="329" y="1702" on="1"/>
        <pt x="391" y="1702" on="0"/>
        <pt x="473" y="1655" on="0"/>
        <pt x="521" y="1570" on="0"/>
        <pt x="540" y="1450" on="0"/>
        <pt x="540" y="1377" on="1"/>
        <pt x="540" y="1321" on="0"/>
        <pt x="522" y="1171" on="0"/>
        <pt x="495" y="1006" on="0"/>
        <pt x="463" y="840" on="0"/>
        <pt x="448" y="768" on="1"/>
        <pt x="480" y="901" on="0"/>
        <pt x="567" y="1146" on="0"/>
        <pt x="670" y="1359" on="0"/>
        <pt x="786" y="1532" on="0"/>
        <pt x="909" y="1656" on="0"/>
        <pt x="1035" y="1724" on="0"/>
        <pt x="1097" y="1724" on="1"/>
        <pt x="1143" y="1724" on="0"/>
        <pt x="1221" y="1684" on="0"/>
        <pt x="1277" y="1600" on="0"/>
        <pt x="1308" y="1472" on="0"/>
        <pt x="1308" y="1384" on="1"/>
        <pt x="1308" y="1376" on="0"/>
        <pt x="1305" y="1342" on="0"/>
        <pt x="1300" y="1298" on="0"/>
        <pt x="1293" y="1247" on="0"/>
        <pt x="1290" y="1222" on="1"/>
        <pt x="1282" y="1162" on="0"/>
        <pt x="1273" y="1092" on="1"/>
        <pt x="1294" y="1093" on="1"/>
        <pt x="1333" y="1241" on="0"/>
        <pt x="1447" y="1477" on="0"/>
        <pt x="1589" y="1642" on="0"/>
        <pt x="1753" y="1730" on="0"/>
        <pt x="1841" y="1730" on="1"/>
        <pt x="1902" y="1730" on="0"/>
        <pt x="1997" y="1658" on="0"/>
        <pt x="2061" y="1535" on="0"/>
        <pt x="2095" y="1370" on="0"/>
        <pt x="2095" y="1278" on="1"/>
        <pt x="2095" y="1192" on="0"/>
        <pt x="2072" y="1011" on="0"/>
        <pt x="2038" y="834" on="0"/>
        <pt x="1999" y="664" on="0"/>
        <pt x="1965" y="512" on="0"/>
        <pt x="1942" y="383" on="0"/>
        <pt x="1942" y="336" on="1"/>
        <pt x="1942" y="277" on="0"/>
        <pt x="1985" y="224" on="0"/>
        <pt x="2026" y="224" on="1"/>
        <pt x="2049" y="224" on="0"/>
        <pt x="2100" y="249" on="0"/>
        <pt x="2151" y="290" on="0"/>
        <pt x="2201" y="343" on="0"/>
        <pt x="2224" y="371" on="1"/>
        <pt x="2277" y="435" on="0"/>
        <pt x="2329" y="518" on="1"/>
        <pt x="2329" y="517" on="0"/>
        <pt x="2338" y="497" on="1"/>
        <pt x="2345" y="480" on="0"/>
        <pt x="2377" y="398" on="0"/>
        <pt x="2406" y="321" on="1"/>
        <pt x="2356" y="233" on="0"/>
        <pt x="2250" y="111" on="0"/>
        <pt x="2140" y="34" on="0"/>
        <pt x="2027" y="0" on="0"/>
        <pt x="1971" y="0" on="1"/>
        <pt x="1917" y="0" on="0"/>
        <pt x="1814" y="38" on="0"/>
        <pt x="1734" y="113" on="0"/>
        <pt x="1686" y="224" on="0"/>
        <pt x="1686" y="296" on="1"/>
        <pt x="1686" y="304" on="0"/>
        <pt x="1687" y="322" on="0"/>
        <pt x="1688" y="331" on="1"/>
        <pt x="1692" y="398" on="0"/>
        <pt x="1718" y="549" on="0"/>
        <pt x="1751" y="709" on="0"/>
        <pt x="1787" y="875" on="0"/>
        <pt x="1817" y="1040" on="0"/>
        <pt x="1837" y="1201" on="0"/>
        <pt x="1837" y="1275" on="1"/>
        <pt x="1837" y="1320" on="0"/>
        <pt x="1831" y="1393" on="0"/>
        <pt x="1813" y="1444" on="0"/>
        <pt x="1779" y="1472" on="0"/>
        <pt x="1751" y="1472" on="1"/>
        <pt x="1698" y="1472" on="0"/>
        <pt x="1604" y="1398" on="0"/>
        <pt x="1520" y="1268" on="0"/>
        <pt x="1447" y="1090" on="0"/>
        <pt x="1382" y="883" on="0"/>
        <pt x="1326" y="656" on="0"/>
        <pt x="1278" y="426" on="0"/>
        <pt x="1236" y="202" on="0"/>
        <pt x="1218" y="102" on="1"/>
        <pt x="1210" y="74" on="0"/>
        <pt x="1177" y="35" on="0"/>
        <pt x="1134" y="11" on="0"/>
        <pt x="1086" y="0" on="0"/>
        <pt x="1062" y="0" on="1"/>
        <pt x="1041" y="0" on="0"/>
        <pt x="1000" y="16" on="0"/>
        <pt x="969" y="51" on="0"/>
        <pt x="950" y="105" on="0"/>
        <pt x="950" y="144" on="1"/>
        <pt x="950" y="170" on="0"/>
        <pt x="974" y="297" on="0"/>
        <pt x="1011" y="474" on="0"/>
        <pt x="1054" y="685" on="0"/>
        <pt x="1091" y="904" on="0"/>
        <pt x="1115" y="1118" on="0"/>
        <pt x="1115" y="1208" on="1"/>
        <pt x="1115" y="1270" on="0"/>
        <pt x="1109" y="1368" on="0"/>
        <pt x="1087" y="1436" on="0"/>
        <pt x="1046" y="1472" on="0"/>
        <pt x="1012" y="1472" on="1"/>
        <pt x="984" y="1472" on="0"/>
        <pt x="912" y="1396" on="0"/>
        <pt x="829" y="1262" on="0"/>
        <pt x="741" y="1081" on="0"/>
        <pt x="654" y="871" on="0"/>
        <pt x="573" y="642" on="0"/>
        <pt x="505" y="413" on="0"/>
        <pt x="453" y="194" on="0"/>
      </contour>
    </TTGlyph>
    <TTGlyph name="N" xMin="-42" yMin="-41" xMax="1943" yMax="1728">
      <contour>
        <pt x="458" y="761" on="1"/>
        <pt x="527" y="965" on="0"/>
        <pt x="661" y="1268" on="0"/>
        <pt x="790" y="1483" on="0"/>
        <pt x="911" y="1620" on="0"/>
        <pt x="1026" y="1698" on="0"/>
        <pt x="1133" y="1728" on="0"/>
        <pt x="1183" y="1728" on="1"/>
        <pt x="1241" y="1728" on="0"/>
        <pt x="1323" y="1672" on="0"/>
        <pt x="1376" y="1584" on="0"/>
        <pt x="1400" y="1478" on="0"/>
        <pt x="1400" y="1427" on="1"/>
        <pt x="1400" y="1367" on="0"/>
        <pt x="1381" y="1220" on="0"/>
        <pt x="1353" y="1056" on="0"/>
        <pt x="1319" y="881" on="0"/>
        <pt x="1291" y="708" on="0"/>
        <pt x="1272" y="541" on="0"/>
        <pt x="1272" y="467" on="1"/>
        <pt x="1272" y="443" on="0"/>
        <pt x="1275" y="384" on="0"/>
        <pt x="1285" y="323" on="0"/>
        <pt x="1304" y="265" on="0"/>
        <pt x="1337" y="219" on="0"/>
        <pt x="1386" y="191" on="0"/>
        <pt x="1420" y="191" on="1"/>
        <pt x="1468" y="191" on="0"/>
        <pt x="1575" y="239" on="0"/>
        <pt x="1678" y="312" on="0"/>
        <pt x="1771" y="397" on="0"/>
        <pt x="1842" y="470" on="0"/>
        <pt x="1883" y="519" on="0"/>
        <pt x="1883" y="520" on="1"/>
        <pt x="1943" y="303" on="1"/>
        <pt x="1911" y="260" on="0"/>
        <pt x="1829" y="175" on="0"/>
        <pt x="1735" y="99" on="0"/>
        <pt x="1630" y="34" on="0"/>
        <pt x="1520" y="-14" on="0"/>
        <pt x="1409" y="-41" on="0"/>
        <pt x="1355" y="-41" on="1"/>
        <pt x="1285" y="-41" on="0"/>
        <pt x="1179" y="7" on="0"/>
        <pt x="1102" y="89" on="0"/>
        <pt x="1050" y="198" on="0"/>
        <pt x="1019" y="320" on="0"/>
        <pt x="1006" y="446" on="0"/>
        <pt x="1006" y="505" on="1"/>
        <pt x="1006" y="583" on="0"/>
        <pt x="1031" y="733" on="0"/>
        <pt x="1067" y="878" on="0"/>
        <pt x="1111" y="1016" on="0"/>
        <pt x="1147" y="1147" on="0"/>
        <pt x="1172" y="1270" on="0"/>
        <pt x="1172" y="1327" on="1"/>
        <pt x="1172" y="1342" on="0"/>
        <pt x="1168" y="1392" on="0"/>
        <pt x="1155" y="1438" on="0"/>
        <pt x="1127" y="1472" on="0"/>
        <pt x="1103" y="1472" on="1"/>
        <pt x="1063" y="1472" on="0"/>
        <pt x="978" y="1397" on="0"/>
        <pt x="889" y="1265" on="0"/>
        <pt x="799" y="1084" on="0"/>
        <pt x="710" y="875" on="0"/>
        <pt x="623" y="644" on="0"/>
        <pt x="542" y="411" on="0"/>
        <pt x="466" y="185" on="0"/>
        <pt x="433" y="85" on="1"/>
        <pt x="405" y="31" on="0"/>
        <pt x="332" y="-14" on="0"/>
        <pt x="287" y="-14" on="1"/>
        <pt x="261" y="-14" on="0"/>
        <pt x="212" y="8" on="0"/>
        <pt x="174" y="51" on="0"/>
        <pt x="152" y="114" on="0"/>
        <pt x="152" y="154" on="1"/>
        <pt x="152" y="196" on="0"/>
        <pt x="160" y="264" on="0"/>
        <pt x="168" y="299" on="1"/>
        <pt x="193" y="413" on="0"/>
        <pt x="236" y="607" on="0"/>
        <pt x="272" y="783" on="0"/>
        <pt x="301" y="948" on="0"/>
        <pt x="325" y="1115" on="0"/>
        <pt x="343" y="1291" on="0"/>
        <pt x="350" y="1391" on="1"/>
        <pt x="350" y="1400" on="0"/>
        <pt x="350" y="1428" on="0"/>
        <pt x="344" y="1453" on="0"/>
        <pt x="329" y="1471" on="0"/>
        <pt x="314" y="1471" on="1"/>
        <pt x="294" y="1471" on="0"/>
        <pt x="237" y="1433" on="0"/>
        <pt x="176" y="1366" on="0"/>
        <pt x="113" y="1276" on="0"/>
        <pt x="87" y="1224" on="1"/>
        <pt x="81" y="1209" on="0"/>
        <pt x="55" y="1196" on="0"/>
        <pt x="39" y="1196" on="1"/>
        <pt x="26" y="1196" on="0"/>
        <pt x="-2" y="1213" on="0"/>
        <pt x="-26" y="1237" on="0"/>
        <pt x="-42" y="1264" on="0"/>
        <pt x="-42" y="1275" on="1"/>
        <pt x="-42" y="1281" on="0"/>
        <pt x="-38" y="1285" on="1"/>
        <pt x="-5" y="1398" on="0"/>
        <pt x="80" y="1555" on="0"/>
        <pt x="175" y="1652" on="0"/>
        <pt x="273" y="1696" on="0"/>
        <pt x="320" y="1696" on="1"/>
        <pt x="391" y="1696" on="0"/>
        <pt x="488" y="1653" on="0"/>
        <pt x="548" y="1576" on="0"/>
        <pt x="574" y="1468" on="0"/>
        <pt x="574" y="1402" on="1"/>
        <pt x="574" y="1336" on="0"/>
        <pt x="552" y="1184" on="0"/>
        <pt x="514" y="1021" on="0"/>
        <pt x="466" y="851" on="0"/>
        <pt x="441" y="767" on="1"/>
      </contour>
    </TTGlyph>
    <TTGlyph name="Ntilde" xMin="-42" yMin="-41" xMax="1943" yMax="2274">
      <component glyphName="N" x="0" y="0" flags="0x1204"/>
      <component glyphName="tilde" x="403" y="851" flags="0x1004"/>
    </TTGlyph>
    <TTGlyph name="O" xMin="96" yMin="-192" xMax="1632" yMax="1806">
      <contour>
        <pt x="742" y="-192" on="1"/>
        <pt x="593" y="-192" on="0"/>
        <pt x="354" y="-70" on="0"/>
        <pt x="186" y="149" on="0"/>
        <pt x="96" y="452" on="0"/>
        <pt x="96" y="633" on="1"/>
        <pt x="96" y="729" on="0"/>
        <pt x="124" y="931" on="0"/>
        <pt x="181" y="1132" on="0"/>
        <pt x="266" y="1325" on="0"/>
        <pt x="379" y="1497" on="0"/>
        <pt x="519" y="1642" on="0"/>
        <pt x="688" y="1747" on="0"/>
        <pt x="883" y="1806" on="0"/>
        <pt x="995" y="1806" on="1"/>
        <pt x="1145" y="1806" on="0"/>
        <pt x="1382" y="1698" on="0"/>
        <pt x="1545" y="1504" on="0"/>
        <pt x="1632" y="1235" on="0"/>
        <pt x="1632" y="1073" on="1"/>
        <pt x="1632" y="939" on="0"/>
        <pt x="1579" y="648" on="0"/>
        <pt x="1477" y="367" on="0"/>
        <pt x="1325" y="113" on="0"/>
        <pt x="1127" y="-79" on="0"/>
        <pt x="884" y="-192" on="0"/>
      </contour>
      <contour>
        <pt x="766" y="52" on="1"/>
        <pt x="846" y="52" on="0"/>
        <pt x="984" y="114" on="0"/>
        <pt x="1099" y="222" on="0"/>
        <pt x="1194" y="367" on="0"/>
        <pt x="1268" y="533" on="0"/>
        <pt x="1323" y="711" on="0"/>
        <pt x="1359" y="885" on="0"/>
        <pt x="1376" y="1046" on="0"/>
        <pt x="1376" y="1112" on="1"/>
        <pt x="1376" y="1208" on="0"/>
        <pt x="1334" y="1377" on="0"/>
        <pt x="1249" y="1502" on="0"/>
        <pt x="1120" y="1574" on="0"/>
        <pt x="1034" y="1574" on="1"/>
        <pt x="942" y="1574" on="0"/>
        <pt x="770" y="1485" on="0"/>
        <pt x="618" y="1334" on="0"/>
        <pt x="492" y="1135" on="0"/>
        <pt x="402" y="915" on="0"/>
        <pt x="352" y="687" on="0"/>
        <pt x="352" y="583" on="1"/>
        <pt x="352" y="470" on="0"/>
        <pt x="409" y="275" on="0"/>
        <pt x="516" y="133" on="0"/>
        <pt x="669" y="52" on="0"/>
      </contour>
    </TTGlyph>
    <TTGlyph name="OE" xMin="96" yMin="-192" xMax="2590" yMax="1856">
      <contour>
        <pt x="2590" y="250" on="1"/>
        <pt x="2509" y="164" on="0"/>
        <pt x="2306" y="35" on="0"/>
        <pt x="2085" y="-52" on="0"/>
        <pt x="1857" y="-96" on="0"/>
        <pt x="1750" y="-96" on="1"/>
        <pt x="1677" y="-96" on="0"/>
        <pt x="1539" y="-72" on="0"/>
        <pt x="1417" y="-24" on="0"/>
        <pt x="1316" y="48" on="0"/>
        <pt x="1280" y="96" on="1"/>
        <pt x="1244" y="36" on="0"/>
        <pt x="1128" y="-69" on="0"/>
        <pt x="985" y="-147" on="0"/>
        <pt x="824" y="-192" on="0"/>
        <pt x="742" y="-192" on="1"/>
        <pt x="593" y="-192" on="0"/>
        <pt x="354" y="-70" on="0"/>
        <pt x="186" y="149" on="0"/>
        <pt x="96" y="452" on="0"/>
        <pt x="96" y="633" on="1"/>
        <pt x="96" y="766" on="0"/>
        <pt x="147" y="1050" on="0"/>
        <pt x="247" y="1322" on="0"/>
        <pt x="398" y="1565" on="0"/>
        <pt x="597" y="1748" on="0"/>
        <pt x="846" y="1856" on="0"/>
        <pt x="995" y="1856" on="1"/>
        <pt x="1079" y="1856" on="0"/>
        <pt x="1243" y="1810" on="0"/>
        <pt x="1385" y="1726" on="0"/>
        <pt x="1500" y="1608" on="0"/>
        <pt x="1536" y="1536" on="1"/>
        <pt x="1624" y="1658" on="0"/>
        <pt x="1854" y="1770" on="0"/>
        <pt x="1985" y="1770" on="1"/>
        <pt x="2118" y="1770" on="0"/>
        <pt x="2394" y="1665" on="0"/>
        <pt x="2528" y="1568" on="1"/>
        <pt x="2432" y="1376" on="1"/>
        <pt x="2388" y="1420" on="0"/>
        <pt x="2284" y="1488" on="0"/>
        <pt x="2171" y="1534" on="0"/>
        <pt x="2055" y="1557" on="0"/>
        <pt x="1998" y="1557" on="1"/>
        <pt x="1932" y="1557" on="0"/>
        <pt x="1811" y="1524" on="0"/>
        <pt x="1713" y="1456" on="0"/>
        <pt x="1645" y="1351" on="0"/>
        <pt x="1632" y="1280" on="1"/>
        <pt x="1568" y="928" on="1"/>
        <pt x="2080" y="928" on="1"/>
        <pt x="2098" y="928" on="0"/>
        <pt x="2126" y="912" on="0"/>
        <pt x="2147" y="886" on="0"/>
        <pt x="2158" y="853" on="0"/>
        <pt x="2158" y="836" on="1"/>
        <pt x="2158" y="817" on="0"/>
        <pt x="2144" y="781" on="0"/>
        <pt x="2114" y="753" on="0"/>
        <pt x="2067" y="736" on="0"/>
        <pt x="2034" y="736" on="1"/>
        <pt x="1536" y="736" on="1"/>
        <pt x="1516" y="655" on="0"/>
        <pt x="1500" y="585" on="1"/>
        <pt x="1493" y="555" on="0"/>
        <pt x="1481" y="495" on="0"/>
        <pt x="1471" y="442" on="0"/>
        <pt x="1465" y="401" on="0"/>
        <pt x="1465" y="390" on="1"/>
        <pt x="1465" y="315" on="0"/>
        <pt x="1508" y="215" on="0"/>
        <pt x="1583" y="154" on="0"/>
        <pt x="1685" y="128" on="0"/>
        <pt x="1744" y="128" on="1"/>
        <pt x="1815" y="128" on="0"/>
        <pt x="1971" y="156" on="0"/>
        <pt x="2126" y="205" on="0"/>
        <pt x="2273" y="272" on="0"/>
        <pt x="2399" y="349" on="0"/>
        <pt x="2495" y="434" on="0"/>
        <pt x="2521" y="477" on="1"/>
      </contour>
      <contour>
        <pt x="766" y="32" on="1"/>
        <pt x="833" y="32" on="0"/>
        <pt x="953" y="81" on="0"/>
        <pt x="1058" y="166" on="0"/>
        <pt x="1147" y="283" on="0"/>
        <pt x="1184" y="352" on="1"/>
        <pt x="1376" y="1280" on="1"/>
        <pt x="1366" y="1367" on="0"/>
        <pt x="1313" y="1509" on="0"/>
        <pt x="1227" y="1609" on="0"/>
        <pt x="1109" y="1664" on="0"/>
        <pt x="1034" y="1664" on="1"/>
        <pt x="942" y="1664" on="0"/>
        <pt x="770" y="1567" on="0"/>
        <pt x="618" y="1402" on="0"/>
        <pt x="492" y="1184" on="0"/>
        <pt x="402" y="944" on="0"/>
        <pt x="352" y="696" on="0"/>
        <pt x="352" y="583" on="1"/>
        <pt x="352" y="465" on="0"/>
        <pt x="409" y="264" on="0"/>
        <pt x="516" y="116" on="0"/>
        <pt x="669" y="32" on="0"/>
      </contour>
    </TTGlyph>
    <TTGlyph name="Oacute" xMin="96" yMin="-192" xMax="1632" yMax="2603">
      <component glyphName="O" x="0" y="0" flags="0x1004"/>
      <component glyphName="acute" x="957" y="893" flags="0x1004"/>
    </TTGlyph>
    <TTGlyph name="Ocircumflex" xMin="96" yMin="-192" xMax="1632" yMax="2668">
      <component glyphName="O" x="0" y="0" flags="0x1004"/>
      <component glyphName="circumflex" x="638" y="972" flags="0x1004"/>
    </TTGlyph>
    <TTGlyph name="Odieresis" xMin="96" yMin="-192" xMax="1632" yMax="2356">
      <component glyphName="O" x="0" y="0" flags="0x1004"/>
      <component glyphName="dieresis" x="641" y="902" flags="0x1004"/>
    </TTGlyph>
    <TTGlyph name="Ograve" xMin="96" yMin="-192" xMax="1632" yMax="2602">
      <component glyphName="O" x="0" y="0" flags="0x1204"/>
      <component glyphName="grave" x="675" y="892" flags="0x1004"/>
    </TTGlyph>
    <TTGlyph name="Oslash" xMin="96" yMin="-441" xMax="1632" yMax="2110">
      <contour>
        <pt x="742" y="-192" on="1"/>
        <pt x="725" y="-192" on="0"/>
        <pt x="692" y="-190" on="0"/>
        <pt x="676" y="-188" on="1"/>
        <pt x="635" y="-328" on="1"/>
        <pt x="622" y="-365" on="0"/>
        <pt x="595" y="-409" on="0"/>
        <pt x="569" y="-433" on="0"/>
        <pt x="544" y="-441" on="0"/>
        <pt x="532" y="-441" on="1"/>
        <pt x="518" y="-441" on="0"/>
        <pt x="492" y="-436" on="0"/>
        <pt x="473" y="-417" on="0"/>
        <pt x="462" y="-378" on="0"/>
        <pt x="462" y="-344" on="1"/>
        <pt x="462" y="-311" on="0"/>
        <pt x="478" y="-209" on="0"/>
        <pt x="498" y="-142" on="1"/>
        <pt x="403" y="-100" on="0"/>
        <pt x="254" y="47" on="0"/>
        <pt x="151" y="247" on="0"/>
        <pt x="96" y="493" on="0"/>
        <pt x="96" y="633" on="1"/>
        <pt x="96" y="766" on="0"/>
        <pt x="147" y="1050" on="0"/>
        <pt x="247" y="1322" on="0"/>
        <pt x="398" y="1565" on="0"/>
        <pt x="597" y="1748" on="0"/>
        <pt x="846" y="1856" on="0"/>
        <pt x="995" y="1856" on="1"/>
        <pt x="1028" y="1856" on="0"/>
        <pt x="1060" y="1853" on="1"/>
        <pt x="1086" y="1945" on="1"/>
        <pt x="1095" y="1977" on="0"/>
        <pt x="1124" y="2037" on="0"/>
        <pt x="1163" y="2083" on="0"/>
        <pt x="1210" y="2110" on="0"/>
        <pt x="1238" y="2110" on="1"/>
        <pt x="1264" y="2110" on="0"/>
        <pt x="1279" y="2073" on="0"/>
        <pt x="1279" y="2044" on="1"/>
        <pt x="1279" y="2036" on="0"/>
        <pt x="1279" y="2022" on="0"/>
        <pt x="1278" y="2014" on="1"/>
        <pt x="1277" y="1999" on="0"/>
        <pt x="1264" y="1939" on="0"/>
        <pt x="1248" y="1876" on="0"/>
        <pt x="1233" y="1822" on="0"/>
        <pt x="1230" y="1813" on="1"/>
        <pt x="1326" y="1774" on="0"/>
        <pt x="1476" y="1635" on="0"/>
        <pt x="1578" y="1444" on="0"/>
        <pt x="1632" y="1208" on="0"/>
        <pt x="1632" y="1073" on="1"/>
        <pt x="1632" y="939" on="0"/>
        <pt x="1579" y="648" on="0"/>
        <pt x="1477" y="367" on="0"/>
        <pt x="1325" y="113" on="0"/>
        <pt x="1127" y="-79" on="0"/>
        <pt x="884" y="-192" on="0"/>
      </contour>
      <contour>
        <pt x="766" y="32" on="1"/>
        <pt x="846" y="32" on="0"/>
        <pt x="984" y="98" on="0"/>
        <pt x="1099" y="212" on="0"/>
        <pt x="1194" y="366" on="0"/>
        <pt x="1268" y="541" on="0"/>
        <pt x="1323" y="730" on="0"/>
        <pt x="1359" y="913" on="0"/>
        <pt x="1376" y="1083" on="0"/>
        <pt x="1376" y="1152" on="1"/>
        <pt x="1376" y="1233" on="0"/>
        <pt x="1352" y="1381" on="0"/>
        <pt x="1303" y="1504" on="0"/>
        <pt x="1229" y="1598" on="0"/>
        <pt x="1180" y="1626" on="1"/>
        <pt x="1154" y="1530" on="0"/>
        <pt x="1092" y="1301" on="0"/>
        <pt x="1022" y="1044" on="0"/>
        <pt x="945" y="765" on="0"/>
        <pt x="865" y="474" on="0"/>
        <pt x="781" y="178" on="0"/>
        <pt x="740" y="33" on="1"/>
        <pt x="746" y="32" on="0"/>
        <pt x="759" y="32" on="0"/>
      </contour>
      <contour>
        <pt x="563" y="91" on="1"/>
        <pt x="591" y="190" on="0"/>
        <pt x="660" y="436" on="0"/>
        <pt x="738" y="710" on="0"/>
        <pt x="820" y="1000" on="0"/>
        <pt x="900" y="1284" on="0"/>
        <pt x="975" y="1550" on="0"/>
        <pt x="1007" y="1663" on="1"/>
        <pt x="918" y="1656" on="0"/>
        <pt x="752" y="1551" on="0"/>
        <pt x="607" y="1385" on="0"/>
        <pt x="486" y="1170" on="0"/>
        <pt x="400" y="935" on="0"/>
        <pt x="352" y="693" on="0"/>
        <pt x="352" y="583" on="1"/>
        <pt x="352" y="500" on="0"/>
        <pt x="380" y="351" on="0"/>
        <pt x="434" y="225" on="0"/>
        <pt x="513" y="125" on="0"/>
      </contour>
    </TTGlyph>
    <TTGlyph name="Otilde" xMin="96" yMin="-192" xMax="1632" yMax="2358">
      <component glyphName="O" x="0" y="0" flags="0x1004"/>
      <component glyphName="tilde" x="695" y="935" flags="0x1004"/>
    </TTGlyph>
    <TTGlyph name="P" xMin="90" yMin="-255" xMax="1632" yMax="1823">
      <contour>
        <pt x="958" y="1823" on="1"/>
        <pt x="1126" y="1823" on="0"/>
        <pt x="1379" y="1732" on="0"/>
        <pt x="1547" y="1581" on="0"/>
        <pt x="1632" y="1385" on="0"/>
        <pt x="1632" y="1280" on="1"/>
        <pt x="1632" y="1182" on="0"/>
        <pt x="1556" y="990" on="0"/>
        <pt x="1403" y="828" on="0"/>
        <pt x="1170" y="710" on="0"/>
        <pt x="1013" y="686" on="1"/>
        <pt x="1010" y="613" on="0"/>
        <pt x="1008" y="552" on="1"/>
        <pt x="1007" y="526" on="0"/>
        <pt x="1005" y="474" on="0"/>
        <pt x="1004" y="431" on="0"/>
        <pt x="1003" y="399" on="0"/>
        <pt x="1003" y="393" on="1"/>
        <pt x="1001" y="323" on="0"/>
        <pt x="972" y="172" on="0"/>
        <pt x="917" y="28" on="0"/>
        <pt x="838" y="-101" on="0"/>
        <pt x="733" y="-198" on="0"/>
        <pt x="603" y="-255" on="0"/>
        <pt x="526" y="-255" on="1"/>
        <pt x="444" y="-255" on="0"/>
        <pt x="315" y="-170" on="0"/>
        <pt x="218" y="-26" on="0"/>
        <pt x="151" y="162" on="0"/>
        <pt x="109" y="367" on="0"/>
        <pt x="90" y="575" on="0"/>
        <pt x="90" y="667" on="1"/>
        <pt x="90" y="825" on="0"/>
        <pt x="148" y="1119" on="0"/>
        <pt x="256" y="1376" on="0"/>
        <pt x="410" y="1588" on="0"/>
        <pt x="603" y="1740" on="0"/>
        <pt x="830" y="1823" on="0"/>
      </contour>
      <contour>
        <pt x="358" y="693" on="1"/>
        <pt x="358" y="652" on="0"/>
        <pt x="359" y="513" on="0"/>
        <pt x="369" y="355" on="0"/>
        <pt x="391" y="193" on="0"/>
        <pt x="434" y="62" on="0"/>
        <pt x="499" y="-21" on="0"/>
        <pt x="548" y="-21" on="1"/>
        <pt x="599" y="-21" on="0"/>
        <pt x="671" y="50" on="0"/>
        <pt x="719" y="163" on="0"/>
        <pt x="747" y="306" on="0"/>
        <pt x="761" y="450" on="0"/>
        <pt x="765" y="581" on="0"/>
        <pt x="765" y="627" on="1"/>
        <pt x="765" y="674" on="1"/>
        <pt x="682" y="707" on="0"/>
        <pt x="587" y="757" on="0"/>
        <pt x="539" y="803" on="0"/>
        <pt x="526" y="854" on="0"/>
        <pt x="526" y="888" on="1"/>
        <pt x="526" y="906" on="0"/>
        <pt x="528" y="941" on="0"/>
        <pt x="537" y="968" on="0"/>
        <pt x="554" y="985" on="0"/>
        <pt x="569" y="985" on="1"/>
        <pt x="579" y="985" on="0"/>
        <pt x="596" y="977" on="0"/>
        <pt x="609" y="970" on="1"/>
        <pt x="642" y="952" on="0"/>
        <pt x="696" y="929" on="0"/>
        <pt x="715" y="922" on="1"/>
        <pt x="737" y="914" on="0"/>
        <pt x="755" y="910" on="1"/>
        <pt x="755" y="923" on="0"/>
        <pt x="756" y="1000" on="0"/>
        <pt x="767" y="1099" on="0"/>
        <pt x="793" y="1207" on="0"/>
        <pt x="843" y="1297" on="0"/>
        <pt x="923" y="1356" on="0"/>
        <pt x="982" y="1356" on="1"/>
        <pt x="1000" y="1356" on="0"/>
        <pt x="1038" y="1349" on="0"/>
        <pt x="1069" y="1330" on="0"/>
        <pt x="1090" y="1298" on="0"/>
        <pt x="1090" y="1273" on="1"/>
        <pt x="1090" y="1266" on="0"/>
        <pt x="1089" y="1261" on="0"/>
        <pt x="1089" y="1257" on="1"/>
        <pt x="1028" y="1000" on="1"/>
        <pt x="1019" y="921" on="1"/>
        <pt x="1117" y="936" on="0"/>
        <pt x="1259" y="1002" on="0"/>
        <pt x="1352" y="1092" on="0"/>
        <pt x="1397" y="1200" on="0"/>
        <pt x="1397" y="1257" on="1"/>
        <pt x="1397" y="1313" on="0"/>
        <pt x="1354" y="1430" on="0"/>
        <pt x="1248" y="1526" on="0"/>
        <pt x="1070" y="1588" on="0"/>
        <pt x="935" y="1588" on="1"/>
        <pt x="834" y="1588" on="0"/>
        <pt x="670" y="1511" on="0"/>
        <pt x="542" y="1379" on="0"/>
        <pt x="448" y="1203" on="0"/>
        <pt x="387" y="1004" on="0"/>
        <pt x="358" y="793" on="0"/>
      </contour>
    </TTGlyph>
    <TTGlyph name="Q" xMin="96" yMin="-653" xMax="1632" yMax="1856">
      <contour>
        <pt x="1632" y="1064" on="1"/>
        <pt x="1632" y="947" on="0"/>
        <pt x="1591" y="686" on="0"/>
        <pt x="1508" y="428" on="0"/>
        <pt x="1380" y="188" on="0"/>
        <pt x="1206" y="-3" on="0"/>
        <pt x="985" y="-131" on="0"/>
        <pt x="850" y="-148" on="1"/>
        <pt x="897" y="-195" on="0"/>
        <pt x="970" y="-283" on="0"/>
        <pt x="1040" y="-352" on="0"/>
        <pt x="1116" y="-394" on="0"/>
        <pt x="1165" y="-394" on="1"/>
        <pt x="1213" y="-394" on="0"/>
        <pt x="1304" y="-344" on="0"/>
        <pt x="1341" y="-314" on="1"/>
        <pt x="1384" y="-279" on="0"/>
        <pt x="1423" y="-233" on="1"/>
        <pt x="1434" y="-225" on="0"/>
        <pt x="1454" y="-223" on="0"/>
        <pt x="1460" y="-223" on="1"/>
        <pt x="1486" y="-228" on="0"/>
        <pt x="1522" y="-258" on="0"/>
        <pt x="1543" y="-300" on="0"/>
        <pt x="1552" y="-347" on="0"/>
        <pt x="1552" y="-367" on="1"/>
        <pt x="1552" y="-393" on="0"/>
        <pt x="1541" y="-414" on="0"/>
        <pt x="1536" y="-419" on="1"/>
        <pt x="1535" y="-420" on="0"/>
        <pt x="1501" y="-455" on="0"/>
        <pt x="1440" y="-507" on="0"/>
        <pt x="1355" y="-568" on="0"/>
        <pt x="1252" y="-619" on="0"/>
        <pt x="1135" y="-653" on="0"/>
        <pt x="1072" y="-653" on="1"/>
        <pt x="996" y="-653" on="0"/>
        <pt x="890" y="-595" on="0"/>
        <pt x="815" y="-504" on="0"/>
        <pt x="766" y="-393" on="0"/>
        <pt x="726" y="-287" on="0"/>
        <pt x="690" y="-198" on="0"/>
        <pt x="666" y="-175" on="1"/>
        <pt x="514" y="-148" on="0"/>
        <pt x="298" y="0" on="0"/>
        <pt x="160" y="214" on="0"/>
        <pt x="96" y="482" on="0"/>
        <pt x="96" y="628" on="1"/>
        <pt x="96" y="764" on="0"/>
        <pt x="147" y="1052" on="0"/>
        <pt x="248" y="1325" on="0"/>
        <pt x="399" y="1567" on="0"/>
        <pt x="599" y="1750" on="0"/>
        <pt x="848" y="1856" on="0"/>
        <pt x="996" y="1856" on="1"/>
        <pt x="1145" y="1856" on="0"/>
        <pt x="1381" y="1742" on="0"/>
        <pt x="1545" y="1535" on="0"/>
        <pt x="1632" y="1242" on="0"/>
      </contour>
      <contour>
        <pt x="766" y="64" on="1"/>
        <pt x="842" y="64" on="0"/>
        <pt x="973" y="127" on="0"/>
        <pt x="1083" y="235" on="0"/>
        <pt x="1172" y="382" on="0"/>
        <pt x="1242" y="549" on="0"/>
        <pt x="1294" y="728" on="0"/>
        <pt x="1328" y="903" on="0"/>
        <pt x="1344" y="1066" on="0"/>
        <pt x="1344" y="1132" on="1"/>
        <pt x="1344" y="1246" on="0"/>
        <pt x="1304" y="1441" on="0"/>
        <pt x="1222" y="1584" on="0"/>
        <pt x="1098" y="1664" on="0"/>
        <pt x="1014" y="1664" on="1"/>
        <pt x="929" y="1664" on="0"/>
        <pt x="769" y="1570" on="0"/>
        <pt x="629" y="1410" on="0"/>
        <pt x="513" y="1200" on="0"/>
        <pt x="430" y="966" on="0"/>
        <pt x="384" y="724" on="0"/>
        <pt x="384" y="613" on="1"/>
        <pt x="384" y="495" on="0"/>
        <pt x="436" y="294" on="0"/>
        <pt x="534" y="147" on="0"/>
        <pt x="676" y="64" on="0"/>
      </contour>
    </TTGlyph>
    <TTGlyph name="R" xMin="64" yMin="-192" xMax="2036" yMax="1728">
      <contour>
        <pt x="1824" y="1263" on="1"/>
        <pt x="1824" y="1215" on="0"/>
        <pt x="1792" y="1109" on="0"/>
        <pt x="1726" y="1006" on="0"/>
        <pt x="1623" y="910" on="0"/>
        <pt x="1479" y="834" on="0"/>
        <pt x="1295" y="783" on="0"/>
        <pt x="1180" y="776" on="1"/>
        <pt x="1250" y="750" on="0"/>
        <pt x="1344" y="668" on="0"/>
        <pt x="1407" y="567" on="0"/>
        <pt x="1444" y="455" on="0"/>
        <pt x="1470" y="347" on="0"/>
        <pt x="1491" y="248" on="0"/>
        <pt x="1520" y="173" on="0"/>
        <pt x="1564" y="128" on="0"/>
        <pt x="1601" y="128" on="1"/>
        <pt x="1635" y="128" on="0"/>
        <pt x="1716" y="151" on="0"/>
        <pt x="1801" y="193" on="0"/>
        <pt x="1884" y="251" on="0"/>
        <pt x="1920" y="286" on="1"/>
        <pt x="2036" y="90" on="1"/>
        <pt x="2036" y="91" on="0"/>
        <pt x="1998" y="64" on="0"/>
        <pt x="1930" y="23" on="0"/>
        <pt x="1837" y="-26" on="0"/>
        <pt x="1725" y="-68" on="0"/>
        <pt x="1600" y="-96" on="0"/>
        <pt x="1535" y="-96" on="1"/>
        <pt x="1462" y="-96" on="0"/>
        <pt x="1359" y="-24" on="0"/>
        <pt x="1287" y="94" on="0"/>
        <pt x="1239" y="245" on="0"/>
        <pt x="1203" y="403" on="0"/>
        <pt x="1172" y="554" on="0"/>
        <pt x="1134" y="672" on="0"/>
        <pt x="1082" y="744" on="0"/>
        <pt x="1043" y="744" on="1"/>
        <pt x="980" y="744" on="1"/>
        <pt x="960" y="525" on="0"/>
        <pt x="900" y="178" on="0"/>
        <pt x="801" y="-64" on="0"/>
        <pt x="652" y="-192" on="0"/>
        <pt x="544" y="-192" on="1"/>
        <pt x="464" y="-192" on="0"/>
        <pt x="331" y="-131" on="0"/>
        <pt x="224" y="-25" on="0"/>
        <pt x="144" y="117" on="0"/>
        <pt x="91" y="280" on="0"/>
        <pt x="64" y="454" on="0"/>
        <pt x="64" y="540" on="1"/>
        <pt x="64" y="695" on="0"/>
        <pt x="141" y="992" on="0"/>
        <pt x="286" y="1256" on="0"/>
        <pt x="492" y="1477" on="0"/>
        <pt x="749" y="1638" on="0"/>
        <pt x="1052" y="1728" on="0"/>
        <pt x="1221" y="1728" on="1"/>
        <pt x="1296" y="1728" on="0"/>
        <pt x="1444" y="1700" on="0"/>
        <pt x="1578" y="1646" on="0"/>
        <pt x="1693" y="1566" on="0"/>
        <pt x="1776" y="1463" on="0"/>
        <pt x="1824" y="1337" on="0"/>
      </contour>
      <contour>
        <pt x="1203" y="1504" on="1"/>
        <pt x="1038" y="1504" on="0"/>
        <pt x="779" y="1412" on="0"/>
        <pt x="583" y="1256" on="0"/>
        <pt x="445" y="1050" on="0"/>
        <pt x="359" y="824" on="0"/>
        <pt x="320" y="592" on="0"/>
        <pt x="320" y="487" on="1"/>
        <pt x="320" y="406" on="0"/>
        <pt x="348" y="243" on="0"/>
        <pt x="408" y="113" on="0"/>
        <pt x="503" y="32" on="0"/>
        <pt x="570" y="32" on="1"/>
        <pt x="604" y="32" on="0"/>
        <pt x="656" y="85" on="0"/>
        <pt x="696" y="174" on="0"/>
        <pt x="726" y="291" on="0"/>
        <pt x="746" y="417" on="0"/>
        <pt x="758" y="545" on="0"/>
        <pt x="765" y="657" on="0"/>
        <pt x="767" y="744" on="0"/>
        <pt x="767" y="767" on="1"/>
        <pt x="689" y="804" on="0"/>
        <pt x="608" y="868" on="0"/>
        <pt x="608" y="910" on="1"/>
        <pt x="608" y="920" on="0"/>
        <pt x="611" y="948" on="0"/>
        <pt x="621" y="972" on="0"/>
        <pt x="640" y="989" on="0"/>
        <pt x="656" y="989" on="1"/>
        <pt x="663" y="989" on="0"/>
        <pt x="705" y="984" on="0"/>
        <pt x="751" y="977" on="0"/>
        <pt x="790" y="972" on="0"/>
        <pt x="796" y="972" on="1"/>
        <pt x="797" y="993" on="1"/>
        <pt x="798" y="1009" on="0"/>
        <pt x="803" y="1065" on="0"/>
        <pt x="815" y="1129" on="0"/>
        <pt x="838" y="1194" on="0"/>
        <pt x="876" y="1247" on="0"/>
        <pt x="929" y="1280" on="0"/>
        <pt x="967" y="1280" on="1"/>
        <pt x="1017" y="1280" on="0"/>
        <pt x="1050" y="1235" on="0"/>
        <pt x="1050" y="1200" on="1"/>
        <pt x="1050" y="1191" on="1"/>
        <pt x="1049" y="1153" on="0"/>
        <pt x="1028" y="1028" on="0"/>
        <pt x="1019" y="946" on="1"/>
        <pt x="1182" y="949" on="0"/>
        <pt x="1394" y="1008" on="0"/>
        <pt x="1518" y="1098" on="0"/>
        <pt x="1568" y="1205" on="0"/>
        <pt x="1568" y="1255" on="1"/>
        <pt x="1568" y="1304" on="0"/>
        <pt x="1521" y="1394" on="0"/>
        <pt x="1429" y="1463" on="0"/>
        <pt x="1293" y="1504" on="0"/>
      </contour>
    </TTGlyph>
    <TTGlyph name="S" xMin="254" yMin="-128" xMax="1682" yMax="1760">
      <contour>
        <pt x="733" y="1312" on="1"/>
        <pt x="733" y="1246" on="0"/>
        <pt x="810" y="1142" on="0"/>
        <pt x="937" y="1053" on="0"/>
        <pt x="1098" y="973" on="0"/>
        <pt x="1267" y="888" on="0"/>
        <pt x="1428" y="791" on="0"/>
        <pt x="1555" y="669" on="0"/>
        <pt x="1632" y="515" on="0"/>
        <pt x="1632" y="416" on="1"/>
        <pt x="1632" y="326" on="0"/>
        <pt x="1574" y="175" on="0"/>
        <pt x="1473" y="55" on="0"/>
        <pt x="1335" y="-37" on="0"/>
        <pt x="1175" y="-97" on="0"/>
        <pt x="999" y="-128" on="0"/>
        <pt x="910" y="-128" on="1"/>
        <pt x="785" y="-128" on="0"/>
        <pt x="549" y="-67" on="0"/>
        <pt x="365" y="56" on="0"/>
        <pt x="254" y="241" on="0"/>
        <pt x="254" y="365" on="1"/>
        <pt x="254" y="429" on="0"/>
        <pt x="295" y="526" on="0"/>
        <pt x="356" y="591" on="0"/>
        <pt x="428" y="624" on="0"/>
        <pt x="459" y="624" on="1"/>
        <pt x="491" y="624" on="0"/>
        <pt x="534" y="589" on="0"/>
        <pt x="534" y="552" on="1"/>
        <pt x="534" y="535" on="0"/>
        <pt x="526" y="497" on="0"/>
        <pt x="517" y="452" on="0"/>
        <pt x="509" y="398" on="0"/>
        <pt x="509" y="366" on="1"/>
        <pt x="509" y="296" on="0"/>
        <pt x="573" y="194" on="0"/>
        <pt x="679" y="128" on="0"/>
        <pt x="817" y="96" on="0"/>
        <pt x="891" y="96" on="1"/>
        <pt x="978" y="96" on="0"/>
        <pt x="1152" y="138" on="0"/>
        <pt x="1290" y="220" on="0"/>
        <pt x="1376" y="339" on="0"/>
        <pt x="1376" y="416" on="1"/>
        <pt x="1376" y="487" on="0"/>
        <pt x="1299" y="599" on="0"/>
        <pt x="1172" y="694" on="0"/>
        <pt x="1010" y="778" on="0"/>
        <pt x="842" y="864" on="0"/>
        <pt x="680" y="959" on="0"/>
        <pt x="553" y="1073" on="0"/>
        <pt x="476" y="1214" on="0"/>
        <pt x="476" y="1304" on="1"/>
        <pt x="476" y="1388" on="0"/>
        <pt x="557" y="1551" on="0"/>
        <pt x="720" y="1680" on="0"/>
        <pt x="964" y="1760" on="0"/>
        <pt x="1128" y="1760" on="1"/>
        <pt x="1232" y="1760" on="0"/>
        <pt x="1431" y="1698" on="0"/>
        <pt x="1587" y="1584" on="0"/>
        <pt x="1682" y="1426" on="0"/>
        <pt x="1682" y="1330" on="1"/>
        <pt x="1682" y="1273" on="0"/>
        <pt x="1643" y="1153" on="0"/>
        <pt x="1600" y="1088" on="1"/>
        <pt x="1558" y="1025" on="0"/>
        <pt x="1459" y="964" on="0"/>
        <pt x="1419" y="964" on="1"/>
        <pt x="1389" y="964" on="0"/>
        <pt x="1351" y="999" on="0"/>
        <pt x="1351" y="1034" on="1"/>
        <pt x="1351" y="1060" on="0"/>
        <pt x="1375" y="1131" on="0"/>
        <pt x="1404" y="1177" on="1"/>
        <pt x="1431" y="1221" on="0"/>
        <pt x="1457" y="1298" on="0"/>
        <pt x="1457" y="1331" on="1"/>
        <pt x="1457" y="1382" on="0"/>
        <pt x="1402" y="1459" on="0"/>
        <pt x="1305" y="1511" on="0"/>
        <pt x="1169" y="1537" on="0"/>
        <pt x="1088" y="1537" on="1"/>
        <pt x="998" y="1537" on="0"/>
        <pt x="865" y="1496" on="0"/>
        <pt x="776" y="1431" on="0"/>
        <pt x="733" y="1351" on="0"/>
      </contour>
    </TTGlyph>
    <TTGlyph name="Scaron" xMin="254" yMin="-128" xMax="1682" yMax="2602">
      <component glyphName="S" x="0" y="0" flags="0x1204"/>
      <component glyphName="caron" x="867" y="907" flags="0x1004"/>
    </TTGlyph>
    <TTGlyph name="T" xMin="199" yMin="-64" xMax="1995" yMax="1728">
      <contour>
        <pt x="199" y="1330" on="1"/>
        <pt x="199" y="1414" on="0"/>
        <pt x="268" y="1539" on="0"/>
        <pt x="393" y="1627" on="0"/>
        <pt x="568" y="1684" on="0"/>
        <pt x="778" y="1716" on="0"/>
        <pt x="1018" y="1728" on="0"/>
        <pt x="1146" y="1728" on="1"/>
        <pt x="1320" y="1728" on="0"/>
        <pt x="1701" y="1700" on="0"/>
        <pt x="1908" y="1663" on="1"/>
        <pt x="1956" y="1653" on="0"/>
        <pt x="1995" y="1601" on="0"/>
        <pt x="1995" y="1569" on="1"/>
        <pt x="1995" y="1549" on="0"/>
        <pt x="1977" y="1511" on="0"/>
        <pt x="1947" y="1479" on="0"/>
        <pt x="1907" y="1460" on="0"/>
        <pt x="1885" y="1460" on="1"/>
        <pt x="1808" y="1460" on="0"/>
        <pt x="1641" y="1476" on="0"/>
        <pt x="1460" y="1496" on="0"/>
        <pt x="1268" y="1516" on="0"/>
        <pt x="1166" y="1521" on="1"/>
        <pt x="1148" y="1409" on="0"/>
        <pt x="1092" y="1151" on="0"/>
        <pt x="1025" y="882" on="0"/>
        <pt x="952" y="615" on="0"/>
        <pt x="884" y="372" on="0"/>
        <pt x="825" y="166" on="0"/>
        <pt x="806" y="92" on="1"/>
        <pt x="798" y="58" on="0"/>
        <pt x="765" y="1" on="0"/>
        <pt x="724" y="-41" on="0"/>
        <pt x="680" y="-64" on="0"/>
        <pt x="661" y="-64" on="1"/>
        <pt x="604" y="-64" on="0"/>
        <pt x="530" y="-10" on="0"/>
        <pt x="530" y="50" on="1"/>
        <pt x="530" y="69" on="0"/>
        <pt x="536" y="92" on="1"/>
        <pt x="549" y="183" on="0"/>
        <pt x="592" y="359" on="0"/>
        <pt x="650" y="550" on="0"/>
        <pt x="724" y="764" on="0"/>
        <pt x="814" y="1021" on="0"/>
        <pt x="919" y="1331" on="0"/>
        <pt x="980" y="1521" on="1"/>
        <pt x="927" y="1517" on="0"/>
        <pt x="818" y="1507" on="0"/>
        <pt x="715" y="1490" on="0"/>
        <pt x="626" y="1464" on="0"/>
        <pt x="559" y="1424" on="0"/>
        <pt x="520" y="1368" on="0"/>
        <pt x="520" y="1330" on="1"/>
        <pt x="520" y="1328" on="0"/>
        <pt x="515" y="1288" on="0"/>
        <pt x="485" y="1241" on="0"/>
        <pt x="420" y="1202" on="0"/>
        <pt x="360" y="1202" on="1"/>
        <pt x="300" y="1202" on="0"/>
        <pt x="234" y="1242" on="0"/>
        <pt x="219" y="1266" on="1"/>
        <pt x="201" y="1294" on="0"/>
      </contour>
    </TTGlyph>
    <TTGlyph name="Thorn" xMin="94" yMin="-355" xMax="1526" yMax="1954">
      <contour>
        <pt x="907" y="393" on="1"/>
        <pt x="879" y="186" on="0"/>
        <pt x="810" y="-100" on="0"/>
        <pt x="703" y="-277" on="0"/>
        <pt x="546" y="-355" on="0"/>
        <pt x="430" y="-355" on="1"/>
        <pt x="367" y="-355" on="0"/>
        <pt x="268" y="-280" on="0"/>
        <pt x="194" y="-153" on="0"/>
        <pt x="141" y="12" on="0"/>
        <pt x="109" y="193" on="0"/>
        <pt x="94" y="376" on="0"/>
        <pt x="94" y="457" on="1"/>
        <pt x="94" y="653" on="0"/>
        <pt x="187" y="977" on="0"/>
        <pt x="358" y="1216" on="0"/>
        <pt x="599" y="1363" on="0"/>
        <pt x="746" y="1383" on="1"/>
        <pt x="751" y="1428" on="0"/>
        <pt x="756" y="1484" on="0"/>
        <pt x="756" y="1489" on="1"/>
        <pt x="757" y="1521" on="0"/>
        <pt x="767" y="1614" on="0"/>
        <pt x="788" y="1718" on="0"/>
        <pt x="822" y="1821" on="0"/>
        <pt x="873" y="1903" on="0"/>
        <pt x="944" y="1954" on="0"/>
        <pt x="992" y="1954" on="1"/>
        <pt x="1007" y="1954" on="0"/>
        <pt x="1038" y="1947" on="0"/>
        <pt x="1063" y="1928" on="0"/>
        <pt x="1080" y="1896" on="0"/>
        <pt x="1080" y="1871" on="1"/>
        <pt x="1080" y="1864" on="0"/>
        <pt x="1079" y="1859" on="0"/>
        <pt x="1079" y="1855" on="1"/>
        <pt x="1008" y="1515" on="1"/>
        <pt x="993" y="1380" on="1"/>
        <pt x="1126" y="1362" on="0"/>
        <pt x="1325" y="1260" on="0"/>
        <pt x="1459" y="1116" on="0"/>
        <pt x="1526" y="940" on="0"/>
        <pt x="1526" y="847" on="1"/>
        <pt x="1526" y="770" on="0"/>
        <pt x="1450" y="624" on="0"/>
        <pt x="1297" y="501" on="0"/>
        <pt x="1064" y="412" on="0"/>
      </contour>
      <contour>
        <pt x="362" y="483" on="1"/>
        <pt x="362" y="447" on="0"/>
        <pt x="362" y="330" on="0"/>
        <pt x="367" y="195" on="0"/>
        <pt x="377" y="59" on="0"/>
        <pt x="397" y="-52" on="0"/>
        <pt x="428" y="-121" on="0"/>
        <pt x="452" y="-121" on="1"/>
        <pt x="491" y="-121" on="0"/>
        <pt x="552" y="-59" on="0"/>
        <pt x="598" y="39" on="0"/>
        <pt x="630" y="160" on="0"/>
        <pt x="650" y="276" on="0"/>
        <pt x="659" y="374" on="0"/>
        <pt x="659" y="401" on="1"/>
        <pt x="610" y="422" on="0"/>
        <pt x="555" y="453" on="0"/>
        <pt x="527" y="481" on="0"/>
        <pt x="520" y="513" on="0"/>
        <pt x="520" y="535" on="1"/>
        <pt x="520" y="553" on="0"/>
        <pt x="522" y="588" on="0"/>
        <pt x="531" y="615" on="0"/>
        <pt x="548" y="632" on="0"/>
        <pt x="563" y="632" on="1"/>
        <pt x="573" y="632" on="0"/>
        <pt x="590" y="624" on="0"/>
        <pt x="603" y="617" on="1"/>
        <pt x="617" y="615" on="0"/>
        <pt x="642" y="611" on="0"/>
        <pt x="652" y="610" on="1"/>
        <pt x="663" y="608" on="0"/>
        <pt x="672" y="608" on="1"/>
        <pt x="672" y="609" on="0"/>
        <pt x="676" y="656" on="0"/>
        <pt x="684" y="734" on="0"/>
        <pt x="694" y="838" on="0"/>
        <pt x="705" y="956" on="0"/>
        <pt x="717" y="1082" on="0"/>
        <pt x="723" y="1143" on="1"/>
        <pt x="627" y="1120" on="0"/>
        <pt x="490" y="995" on="0"/>
        <pt x="403" y="817" on="0"/>
        <pt x="362" y="599" on="0"/>
      </contour>
      <contour>
        <pt x="1291" y="824" on="1"/>
        <pt x="1291" y="871" on="0"/>
        <pt x="1260" y="972" on="0"/>
        <pt x="1185" y="1060" on="0"/>
        <pt x="1061" y="1129" on="0"/>
        <pt x="968" y="1144" on="1"/>
        <pt x="913" y="628" on="1"/>
        <pt x="1011" y="638" on="0"/>
        <pt x="1153" y="677" on="0"/>
        <pt x="1246" y="729" on="0"/>
        <pt x="1291" y="791" on="0"/>
      </contour>
    </TTGlyph>
    <TTGlyph name="U" xMin="96" yMin="-160" xMax="1536" yMax="1728">
      <contour>
        <pt x="1248" y="1568" on="1"/>
        <pt x="1251" y="1619" on="0"/>
        <pt x="1283" y="1681" on="0"/>
        <pt x="1332" y="1716" on="0"/>
        <pt x="1393" y="1728" on="0"/>
        <pt x="1423" y="1728" on="1"/>
        <pt x="1450" y="1728" on="0"/>
        <pt x="1492" y="1716" on="0"/>
        <pt x="1521" y="1685" on="0"/>
        <pt x="1536" y="1633" on="0"/>
        <pt x="1536" y="1593" on="1"/>
        <pt x="1536" y="1316" on="0"/>
        <pt x="1470" y="840" on="0"/>
        <pt x="1350" y="451" on="0"/>
        <pt x="1182" y="150" on="0"/>
        <pt x="979" y="-54" on="0"/>
        <pt x="745" y="-160" on="0"/>
        <pt x="620" y="-160" on="1"/>
        <pt x="470" y="-160" on="0"/>
        <pt x="268" y="-39" on="0"/>
        <pt x="147" y="167" on="0"/>
        <pt x="96" y="438" on="0"/>
        <pt x="96" y="588" on="1"/>
        <pt x="96" y="707" on="0"/>
        <pt x="127" y="951" on="0"/>
        <pt x="175" y="1182" on="0"/>
        <pt x="236" y="1389" on="0"/>
        <pt x="266" y="1472" on="1"/>
        <pt x="285" y="1530" on="0"/>
        <pt x="324" y="1594" on="0"/>
        <pt x="362" y="1625" on="0"/>
        <pt x="400" y="1632" on="0"/>
        <pt x="420" y="1632" on="1"/>
        <pt x="458" y="1632" on="0"/>
        <pt x="517" y="1625" on="0"/>
        <pt x="557" y="1605" on="0"/>
        <pt x="577" y="1568" on="0"/>
        <pt x="577" y="1537" on="1"/>
        <pt x="577" y="1529" on="1"/>
        <pt x="575" y="1517" on="0"/>
        <pt x="573" y="1489" on="0"/>
        <pt x="568" y="1472" on="1"/>
        <pt x="556" y="1435" on="0"/>
        <pt x="515" y="1310" on="0"/>
        <pt x="467" y="1149" on="0"/>
        <pt x="417" y="963" on="0"/>
        <pt x="377" y="768" on="0"/>
        <pt x="352" y="575" on="0"/>
        <pt x="352" y="488" on="1"/>
        <pt x="352" y="398" on="0"/>
        <pt x="382" y="243" on="0"/>
        <pt x="453" y="129" on="0"/>
        <pt x="567" y="64" on="0"/>
        <pt x="651" y="64" on="1"/>
        <pt x="716" y="64" on="0"/>
        <pt x="833" y="135" on="0"/>
        <pt x="936" y="264" on="0"/>
        <pt x="1027" y="444" on="0"/>
        <pt x="1103" y="660" on="0"/>
        <pt x="1164" y="905" on="0"/>
        <pt x="1210" y="1166" on="0"/>
        <pt x="1241" y="1436" on="0"/>
      </contour>
    </TTGlyph>
    <TTGlyph name="Uacute" xMin="96" yMin="-160" xMax="1536" yMax="2464">
      <component glyphName="U" x="0" y="0" flags="0x1204"/>
      <component glyphName="acute" x="819" y="754" flags="0x1004"/>
    </TTGlyph>
    <TTGlyph name="Ucircumflex" xMin="96" yMin="-160" xMax="1536" yMax="2532">
      <component glyphName="U" x="0" y="0" flags="0x1204"/>
      <component glyphName="circumflex" x="503" y="836" flags="0x1004"/>
    </TTGlyph>
    <TTGlyph name="Udieresis" xMin="96" yMin="-160" xMax="1536" yMax="2202">
      <component glyphName="U" x="0" y="0" flags="0x1204"/>
      <component glyphName="dieresis" x="450" y="748" flags="0x1004"/>
    </TTGlyph>
    <TTGlyph name="Ugrave" xMin="96" yMin="-160" xMax="1536" yMax="2464">
      <component glyphName="U" x="0" y="0" flags="0x1204"/>
      <component glyphName="grave" x="524" y="754" flags="0x1004"/>
    </TTGlyph>
    <TTGlyph name="V" xMin="31" yMin="-33" xMax="1326" yMax="1630">
      <contour>
        <pt x="91" y="480" on="1"/>
        <pt x="91" y="482" on="0"/>
        <pt x="85" y="548" on="0"/>
        <pt x="77" y="658" on="0"/>
        <pt x="66" y="801" on="0"/>
        <pt x="55" y="958" on="0"/>
        <pt x="44" y="1121" on="0"/>
        <pt x="36" y="1270" on="0"/>
        <pt x="31" y="1395" on="0"/>
        <pt x="31" y="1436" on="1"/>
        <pt x="31" y="1497" on="0"/>
        <pt x="62" y="1563" on="0"/>
        <pt x="106" y="1594" on="0"/>
        <pt x="154" y="1599" on="0"/>
        <pt x="172" y="1599" on="1"/>
        <pt x="209" y="1599" on="0"/>
        <pt x="256" y="1579" on="0"/>
        <pt x="283" y="1540" on="0"/>
        <pt x="293" y="1484" on="0"/>
        <pt x="293" y="1449" on="1"/>
        <pt x="337" y="260" on="1"/>
        <pt x="988" y="1510" on="1"/>
        <pt x="995" y="1534" on="0"/>
        <pt x="1029" y="1578" on="0"/>
        <pt x="1077" y="1611" on="0"/>
        <pt x="1135" y="1630" on="0"/>
        <pt x="1166" y="1630" on="1"/>
        <pt x="1202" y="1630" on="0"/>
        <pt x="1243" y="1567" on="0"/>
        <pt x="1243" y="1516" on="1"/>
        <pt x="1243" y="1480" on="0"/>
        <pt x="1205" y="1360" on="0"/>
        <pt x="1142" y="1210" on="0"/>
        <pt x="1058" y="1038" on="0"/>
        <pt x="967" y="860" on="0"/>
        <pt x="874" y="685" on="0"/>
        <pt x="832" y="608" on="1"/>
        <pt x="820" y="585" on="0"/>
        <pt x="808" y="535" on="0"/>
        <pt x="808" y="510" on="1"/>
        <pt x="808" y="472" on="0"/>
        <pt x="838" y="400" on="0"/>
        <pt x="901" y="344" on="0"/>
        <pt x="998" y="311" on="0"/>
        <pt x="1065" y="311" on="1"/>
        <pt x="1081" y="311" on="0"/>
        <pt x="1120" y="325" on="0"/>
        <pt x="1162" y="348" on="0"/>
        <pt x="1206" y="378" on="0"/>
        <pt x="1227" y="393" on="1"/>
        <pt x="1275" y="429" on="0"/>
        <pt x="1326" y="475" on="1"/>
        <pt x="1303" y="268" on="1"/>
        <pt x="1220" y="202" on="0"/>
        <pt x="1055" y="123" on="0"/>
        <pt x="983" y="123" on="1"/>
        <pt x="915" y="123" on="0"/>
        <pt x="810" y="160" on="0"/>
        <pt x="736" y="228" on="0"/>
        <pt x="698" y="324" on="0"/>
        <pt x="698" y="383" on="1"/>
        <pt x="698" y="413" on="0"/>
        <pt x="704" y="448" on="1"/>
        <pt x="645" y="310" on="0"/>
        <pt x="542" y="125" on="0"/>
        <pt x="446" y="14" on="0"/>
        <pt x="356" y="-33" on="0"/>
        <pt x="312" y="-33" on="1"/>
        <pt x="252" y="-33" on="0"/>
        <pt x="176" y="7" on="0"/>
        <pt x="131" y="78" on="0"/>
        <pt x="110" y="176" on="0"/>
        <pt x="101" y="290" on="0"/>
        <pt x="97" y="416" on="0"/>
      </contour>
    </TTGlyph>
    <TTGlyph name="W" xMin="384" yMin="-96" xMax="2630" yMax="1664">
      <contour>
        <pt x="864" y="1542" on="1"/>
        <pt x="864" y="1508" on="0"/>
        <pt x="831" y="1375" on="0"/>
        <pt x="781" y="1201" on="0"/>
        <pt x="723" y="997" on="0"/>
        <pt x="673" y="787" on="0"/>
        <pt x="640" y="584" on="0"/>
        <pt x="640" y="497" on="1"/>
        <pt x="640" y="426" on="0"/>
        <pt x="659" y="303" on="0"/>
        <pt x="699" y="212" on="0"/>
        <pt x="759" y="160" on="0"/>
        <pt x="800" y="160" on="1"/>
        <pt x="841" y="160" on="0"/>
        <pt x="918" y="208" on="0"/>
        <pt x="990" y="292" on="0"/>
        <pt x="1056" y="408" on="0"/>
        <pt x="1117" y="543" on="0"/>
        <pt x="1171" y="692" on="0"/>
        <pt x="1195" y="768" on="1"/>
        <pt x="1279" y="1036" on="0"/>
        <pt x="1344" y="1377" on="1"/>
        <pt x="1356" y="1432" on="0"/>
        <pt x="1389" y="1506" on="0"/>
        <pt x="1435" y="1550" on="0"/>
        <pt x="1496" y="1568" on="0"/>
        <pt x="1536" y="1568" on="1"/>
        <pt x="1574" y="1568" on="0"/>
        <pt x="1623" y="1554" on="0"/>
        <pt x="1652" y="1530" on="0"/>
        <pt x="1664" y="1496" on="0"/>
        <pt x="1664" y="1475" on="1"/>
        <pt x="1664" y="1468" on="0"/>
        <pt x="1648" y="1365" on="0"/>
        <pt x="1623" y="1204" on="0"/>
        <pt x="1594" y="1000" on="0"/>
        <pt x="1569" y="785" on="0"/>
        <pt x="1553" y="575" on="0"/>
        <pt x="1553" y="487" on="1"/>
        <pt x="1553" y="397" on="0"/>
        <pt x="1566" y="252" on="0"/>
        <pt x="1597" y="150" on="0"/>
        <pt x="1647" y="96" on="0"/>
        <pt x="1684" y="96" on="1"/>
        <pt x="1748" y="96" on="0"/>
        <pt x="1853" y="196" on="0"/>
        <pt x="1940" y="363" on="0"/>
        <pt x="2009" y="583" on="0"/>
        <pt x="2062" y="823" on="0"/>
        <pt x="2101" y="1067" on="0"/>
        <pt x="2127" y="1284" on="0"/>
        <pt x="2142" y="1457" on="0"/>
        <pt x="2145" y="1506" on="1"/>
        <pt x="2148" y="1557" on="0"/>
        <pt x="2179" y="1619" on="0"/>
        <pt x="2227" y="1653" on="0"/>
        <pt x="2288" y="1664" on="0"/>
        <pt x="2320" y="1664" on="1"/>
        <pt x="2345" y="1664" on="0"/>
        <pt x="2386" y="1653" on="0"/>
        <pt x="2416" y="1626" on="0"/>
        <pt x="2432" y="1581" on="0"/>
        <pt x="2432" y="1546" on="1"/>
        <pt x="2432" y="1449" on="0"/>
        <pt x="2407" y="1224" on="0"/>
        <pt x="2370" y="998" on="0"/>
        <pt x="2327" y="784" on="0"/>
        <pt x="2290" y="612" on="0"/>
        <pt x="2265" y="494" on="0"/>
        <pt x="2265" y="478" on="1"/>
        <pt x="2265" y="439" on="0"/>
        <pt x="2287" y="384" on="0"/>
        <pt x="2324" y="348" on="0"/>
        <pt x="2375" y="332" on="0"/>
        <pt x="2404" y="332" on="1"/>
        <pt x="2433" y="332" on="0"/>
        <pt x="2494" y="359" on="0"/>
        <pt x="2550" y="407" on="0"/>
        <pt x="2597" y="474" on="0"/>
        <pt x="2613" y="515" on="1"/>
        <pt x="2630" y="308" on="1"/>
        <pt x="2556" y="223" on="0"/>
        <pt x="2399" y="125" on="0"/>
        <pt x="2330" y="125" on="1"/>
        <pt x="2297" y="125" on="0"/>
        <pt x="2239" y="146" on="0"/>
        <pt x="2194" y="190" on="0"/>
        <pt x="2164" y="260" on="0"/>
        <pt x="2158" y="308" on="1"/>
        <pt x="2108" y="215" on="0"/>
        <pt x="1993" y="66" on="0"/>
        <pt x="1864" y="-39" on="0"/>
        <pt x="1723" y="-96" on="0"/>
        <pt x="1648" y="-96" on="1"/>
        <pt x="1553" y="-96" on="0"/>
        <pt x="1420" y="4" on="0"/>
        <pt x="1337" y="176" on="0"/>
        <pt x="1299" y="408" on="0"/>
        <pt x="1299" y="539" on="1"/>
        <pt x="1299" y="587" on="0"/>
        <pt x="1309" y="671" on="0"/>
        <pt x="1312" y="704" on="1"/>
        <pt x="1276" y="476" on="0"/>
        <pt x="1167" y="169" on="0"/>
        <pt x="1020" y="-17" on="0"/>
        <pt x="831" y="-96" on="0"/>
        <pt x="716" y="-96" on="1"/>
        <pt x="650" y="-96" on="0"/>
        <pt x="530" y="-9" on="0"/>
        <pt x="439" y="163" on="0"/>
        <pt x="384" y="422" on="0"/>
        <pt x="384" y="595" on="1"/>
        <pt x="384" y="701" on="0"/>
        <pt x="408" y="924" on="0"/>
        <pt x="453" y="1148" on="0"/>
        <pt x="519" y="1368" on="0"/>
        <pt x="561" y="1472" on="1"/>
        <pt x="586" y="1530" on="0"/>
        <pt x="636" y="1595" on="0"/>
        <pt x="688" y="1626" on="0"/>
        <pt x="741" y="1632" on="0"/>
        <pt x="768" y="1632" on="1"/>
        <pt x="790" y="1632" on="0"/>
        <pt x="826" y="1626" on="0"/>
        <pt x="851" y="1607" on="0"/>
        <pt x="864" y="1572" on="0"/>
      </contour>
    </TTGlyph>
    <TTGlyph name="X" xMin="263" yMin="-105" xMax="1984" yMax="1728">
      <contour>
        <pt x="947" y="934" on="1"/>
        <pt x="939" y="989" on="0"/>
        <pt x="917" y="1111" on="0"/>
        <pt x="885" y="1231" on="0"/>
        <pt x="840" y="1340" on="0"/>
        <pt x="779" y="1423" on="0"/>
        <pt x="700" y="1472" on="0"/>
        <pt x="650" y="1472" on="1"/>
        <pt x="644" y="1472" on="0"/>
        <pt x="603" y="1436" on="0"/>
        <pt x="550" y="1373" on="0"/>
        <pt x="492" y="1290" on="0"/>
        <pt x="468" y="1244" on="1"/>
        <pt x="452" y="1214" on="0"/>
        <pt x="438" y="1214" on="1"/>
        <pt x="428" y="1214" on="0"/>
        <pt x="410" y="1241" on="0"/>
        <pt x="396" y="1283" on="0"/>
        <pt x="385" y="1335" on="0"/>
        <pt x="378" y="1384" on="0"/>
        <pt x="374" y="1425" on="0"/>
        <pt x="374" y="1436" on="1"/>
        <pt x="374" y="1510" on="0"/>
        <pt x="414" y="1620" on="0"/>
        <pt x="486" y="1692" on="0"/>
        <pt x="583" y="1728" on="0"/>
        <pt x="640" y="1728" on="1"/>
        <pt x="690" y="1728" on="0"/>
        <pt x="793" y="1712" on="0"/>
        <pt x="896" y="1667" on="0"/>
        <pt x="994" y="1583" on="0"/>
        <pt x="1082" y="1447" on="0"/>
        <pt x="1157" y="1251" on="0"/>
        <pt x="1185" y="1116" on="1"/>
        <pt x="1234" y="1190" on="0"/>
        <pt x="1344" y="1335" on="0"/>
        <pt x="1457" y="1467" on="0"/>
        <pt x="1569" y="1580" on="0"/>
        <pt x="1670" y="1663" on="0"/>
        <pt x="1758" y="1710" on="0"/>
        <pt x="1791" y="1710" on="1"/>
        <pt x="1822" y="1710" on="0"/>
        <pt x="1874" y="1665" on="0"/>
        <pt x="1911" y="1592" on="0"/>
        <pt x="1931" y="1498" on="0"/>
        <pt x="1931" y="1450" on="1"/>
        <pt x="1931" y="1354" on="0"/>
        <pt x="1825" y="1257" on="0"/>
        <pt x="1741" y="1257" on="1"/>
        <pt x="1731" y="1257" on="0"/>
        <pt x="1723" y="1280" on="0"/>
        <pt x="1721" y="1314" on="0"/>
        <pt x="1722" y="1355" on="0"/>
        <pt x="1720" y="1389" on="0"/>
        <pt x="1712" y="1412" on="0"/>
        <pt x="1703" y="1412" on="1"/>
        <pt x="1683" y="1412" on="0"/>
        <pt x="1626" y="1371" on="0"/>
        <pt x="1556" y="1299" on="0"/>
        <pt x="1475" y="1201" on="0"/>
        <pt x="1389" y="1087" on="0"/>
        <pt x="1302" y="963" on="0"/>
        <pt x="1260" y="901" on="1"/>
        <pt x="1292" y="781" on="0"/>
        <pt x="1334" y="577" on="0"/>
        <pt x="1368" y="412" on="0"/>
        <pt x="1400" y="287" on="0"/>
        <pt x="1444" y="202" on="0"/>
        <pt x="1507" y="159" on="0"/>
        <pt x="1555" y="159" on="1"/>
        <pt x="1616" y="159" on="0"/>
        <pt x="1766" y="279" on="0"/>
        <pt x="1855" y="416" on="1"/>
        <pt x="1870" y="431" on="0"/>
        <pt x="1889" y="431" on="1"/>
        <pt x="1906" y="431" on="0"/>
        <pt x="1940" y="409" on="0"/>
        <pt x="1967" y="374" on="0"/>
        <pt x="1984" y="331" on="0"/>
        <pt x="1984" y="310" on="1"/>
        <pt x="1984" y="279" on="0"/>
        <pt x="1962" y="257" on="1"/>
        <pt x="1896" y="178" on="0"/>
        <pt x="1761" y="58" on="0"/>
        <pt x="1633" y="-23" on="0"/>
        <pt x="1515" y="-64" on="0"/>
        <pt x="1467" y="-64" on="1"/>
        <pt x="1411" y="-64" on="0"/>
        <pt x="1321" y="-41" on="0"/>
        <pt x="1247" y="18" on="0"/>
        <pt x="1184" y="123" on="0"/>
        <pt x="1125" y="286" on="0"/>
        <pt x="1067" y="516" on="0"/>
        <pt x="1034" y="671" on="1"/>
        <pt x="926" y="509" on="0"/>
        <pt x="832" y="368" on="1"/>
        <pt x="792" y="308" on="0"/>
        <pt x="710" y="186" on="0"/>
        <pt x="637" y="78" on="0"/>
        <pt x="579" y="-7" on="0"/>
        <pt x="562" y="-31" on="1"/>
        <pt x="538" y="-64" on="0"/>
        <pt x="449" y="-105" on="0"/>
        <pt x="400" y="-105" on="1"/>
        <pt x="331" y="-105" on="0"/>
        <pt x="263" y="-49" on="0"/>
        <pt x="263" y="-5" on="1"/>
        <pt x="263" y="48" on="0"/>
        <pt x="310" y="109" on="1"/>
        <pt x="331" y="136" on="0"/>
        <pt x="409" y="233" on="0"/>
        <pt x="508" y="355" on="0"/>
        <pt x="621" y="494" on="0"/>
        <pt x="733" y="630" on="0"/>
        <pt x="834" y="754" on="0"/>
        <pt x="912" y="849" on="0"/>
        <pt x="957" y="904" on="0"/>
        <pt x="956" y="903" on="1"/>
      </contour>
    </TTGlyph>
    <TTGlyph name="Y" xMin="225" yMin="-35" xMax="1645" yMax="1602">
      <contour>
        <pt x="1126" y="506" on="1"/>
        <pt x="1044" y="394" on="0"/>
        <pt x="912" y="227" on="0"/>
        <pt x="803" y="107" on="0"/>
        <pt x="712" y="28" on="0"/>
        <pt x="628" y="-17" on="0"/>
        <pt x="548" y="-35" on="0"/>
        <pt x="504" y="-35" on="1"/>
        <pt x="464" y="-35" on="0"/>
        <pt x="382" y="1" on="0"/>
        <pt x="314" y="49" on="0"/>
        <pt x="267" y="96" on="0"/>
        <pt x="263" y="108" on="1"/>
        <pt x="257" y="116" on="0"/>
        <pt x="247" y="146" on="0"/>
        <pt x="247" y="162" on="1"/>
        <pt x="247" y="177" on="0"/>
        <pt x="261" y="200" on="0"/>
        <pt x="278" y="200" on="1"/>
        <pt x="284" y="200" on="0"/>
        <pt x="293" y="197" on="1"/>
        <pt x="324" y="177" on="0"/>
        <pt x="384" y="159" on="0"/>
        <pt x="410" y="159" on="1"/>
        <pt x="485" y="159" on="0"/>
        <pt x="605" y="212" on="0"/>
        <pt x="701" y="296" on="0"/>
        <pt x="777" y="403" on="0"/>
        <pt x="837" y="511" on="0"/>
        <pt x="884" y="610" on="0"/>
        <pt x="904" y="645" on="1"/>
        <pt x="869" y="733" on="0"/>
        <pt x="795" y="907" on="0"/>
        <pt x="715" y="1066" on="0"/>
        <pt x="632" y="1202" on="0"/>
        <pt x="545" y="1303" on="0"/>
        <pt x="455" y="1360" on="0"/>
        <pt x="410" y="1360" on="1"/>
        <pt x="386" y="1360" on="0"/>
        <pt x="357" y="1348" on="0"/>
        <pt x="341" y="1328" on="0"/>
        <pt x="335" y="1302" on="0"/>
        <pt x="335" y="1289" on="1"/>
        <pt x="335" y="1274" on="0"/>
        <pt x="339" y="1244" on="0"/>
        <pt x="339" y="1233" on="1"/>
        <pt x="339" y="1216" on="0"/>
        <pt x="322" y="1208" on="0"/>
        <pt x="311" y="1208" on="1"/>
        <pt x="291" y="1208" on="0"/>
        <pt x="259" y="1256" on="0"/>
        <pt x="237" y="1336" on="0"/>
        <pt x="225" y="1439" on="0"/>
        <pt x="225" y="1494" on="1"/>
        <pt x="225" y="1511" on="0"/>
        <pt x="243" y="1547" on="0"/>
        <pt x="282" y="1577" on="0"/>
        <pt x="341" y="1596" on="0"/>
        <pt x="383" y="1596" on="1"/>
        <pt x="497" y="1596" on="0"/>
        <pt x="686" y="1481" on="0"/>
        <pt x="848" y="1282" on="0"/>
        <pt x="988" y="1015" on="0"/>
        <pt x="1054" y="864" on="1"/>
        <pt x="1113" y="971" on="0"/>
        <pt x="1222" y="1178" on="0"/>
        <pt x="1314" y="1358" on="0"/>
        <pt x="1387" y="1503" on="0"/>
        <pt x="1411" y="1548" on="1"/>
        <pt x="1424" y="1572" on="0"/>
        <pt x="1493" y="1602" on="0"/>
        <pt x="1533" y="1602" on="1"/>
        <pt x="1554" y="1602" on="0"/>
        <pt x="1594" y="1590" on="0"/>
        <pt x="1625" y="1564" on="0"/>
        <pt x="1645" y="1521" on="0"/>
        <pt x="1645" y="1491" on="1"/>
        <pt x="1645" y="1449" on="0"/>
        <pt x="1619" y="1388" on="1"/>
        <pt x="1596" y="1335" on="0"/>
        <pt x="1513" y="1167" on="0"/>
        <pt x="1400" y="959" on="0"/>
        <pt x="1262" y="724" on="0"/>
        <pt x="1186" y="605" on="1"/>
      </contour>
    </TTGlyph>
    <TTGlyph name="Yacute" xMin="225" yMin="-35" xMax="1645" yMax="2340">
      <component glyphName="Y" x="0" y="0" flags="0x1004"/>
      <component glyphName="acute" x="949" y="630" flags="0x1004"/>
    </TTGlyph>
    <TTGlyph name="Ydieresis" xMin="225" yMin="-35" xMax="1645" yMax="2101">
      <component glyphName="Y" x="0" y="0" flags="0x1004"/>
      <component glyphName="dieresis" x="580" y="647" flags="0x1004"/>
    </TTGlyph>
    <TTGlyph name="Z" xMin="-47" yMin="-30" xMax="1295" yMax="1633">
      <contour>
        <pt x="635" y="1313" on="1"/>
        <pt x="582" y="1319" on="0"/>
        <pt x="500" y="1342" on="0"/>
        <pt x="436" y="1365" on="0"/>
        <pt x="385" y="1382" on="0"/>
        <pt x="363" y="1382" on="1"/>
        <pt x="345" y="1382" on="0"/>
        <pt x="311" y="1366" on="0"/>
        <pt x="276" y="1327" on="0"/>
        <pt x="238" y="1262" on="0"/>
        <pt x="216" y="1213" on="1"/>
        <pt x="188" y="1152" on="0"/>
        <pt x="130" y="1107" on="0"/>
        <pt x="109" y="1107" on="1"/>
        <pt x="90" y="1107" on="0"/>
        <pt x="74" y="1140" on="0"/>
        <pt x="74" y="1168" on="1"/>
        <pt x="74" y="1179" on="0"/>
        <pt x="77" y="1205" on="0"/>
        <pt x="79" y="1219" on="1"/>
        <pt x="96" y="1348" on="0"/>
        <pt x="163" y="1510" on="0"/>
        <pt x="246" y="1601" on="0"/>
        <pt x="334" y="1633" on="0"/>
        <pt x="373" y="1633" on="1"/>
        <pt x="417" y="1633" on="0"/>
        <pt x="503" y="1607" on="0"/>
        <pt x="592" y="1575" on="0"/>
        <pt x="685" y="1548" on="0"/>
        <pt x="735" y="1547" on="1"/>
        <pt x="772" y="1546" on="0"/>
        <pt x="837" y="1546" on="0"/>
        <pt x="866" y="1546" on="1"/>
        <pt x="957" y="1546" on="0"/>
        <pt x="1064" y="1550" on="0"/>
        <pt x="1121" y="1554" on="0"/>
        <pt x="1141" y="1558" on="0"/>
        <pt x="1145" y="1558" on="1"/>
        <pt x="1187" y="1558" on="0"/>
        <pt x="1224" y="1502" on="0"/>
        <pt x="1224" y="1454" on="1"/>
        <pt x="1224" y="1439" on="0"/>
        <pt x="1220" y="1406" on="0"/>
        <pt x="1217" y="1388" on="1"/>
        <pt x="1215" y="1383" on="0"/>
        <pt x="1190" y="1356" on="0"/>
        <pt x="1161" y="1340" on="1"/>
        <pt x="1045" y="1227" on="0"/>
        <pt x="850" y="1000" on="0"/>
        <pt x="691" y="788" on="0"/>
        <pt x="567" y="600" on="0"/>
        <pt x="477" y="453" on="0"/>
        <pt x="420" y="357" on="0"/>
        <pt x="408" y="342" on="1"/>
        <pt x="403" y="319" on="1"/>
        <pt x="404" y="319" on="0"/>
        <pt x="435" y="303" on="0"/>
        <pt x="486" y="280" on="0"/>
        <pt x="549" y="252" on="0"/>
        <pt x="615" y="229" on="0"/>
        <pt x="677" y="213" on="0"/>
        <pt x="701" y="213" on="1"/>
        <pt x="782" y="213" on="0"/>
        <pt x="910" y="247" on="0"/>
        <pt x="1015" y="296" on="0"/>
        <pt x="1100" y="351" on="0"/>
        <pt x="1137" y="372" on="1"/>
        <pt x="1159" y="388" on="0"/>
        <pt x="1181" y="388" on="1"/>
        <pt x="1203" y="388" on="0"/>
        <pt x="1244" y="364" on="0"/>
        <pt x="1276" y="326" on="0"/>
        <pt x="1295" y="279" on="0"/>
        <pt x="1295" y="257" on="1"/>
        <pt x="1295" y="223" on="0"/>
        <pt x="1277" y="202" on="1"/>
        <pt x="1241" y="172" on="0"/>
        <pt x="1120" y="92" on="0"/>
        <pt x="970" y="20" on="0"/>
        <pt x="800" y="-30" on="0"/>
        <pt x="713" y="-30" on="1"/>
        <pt x="699" y="-30" on="0"/>
        <pt x="633" y="-14" on="0"/>
        <pt x="523" y="25" on="0"/>
        <pt x="369" y="88" on="0"/>
        <pt x="268" y="135" on="1"/>
        <pt x="217" y="90" on="0"/>
        <pt x="116" y="51" on="0"/>
        <pt x="74" y="51" on="1"/>
        <pt x="20" y="51" on="0"/>
        <pt x="-47" y="107" on="0"/>
        <pt x="-47" y="156" on="1"/>
        <pt x="-47" y="194" on="0"/>
        <pt x="4" y="294" on="0"/>
        <pt x="64" y="352" on="1"/>
        <pt x="798" y="1312" on="1"/>
        <pt x="775" y="1312" on="0"/>
        <pt x="726" y="1310" on="0"/>
        <pt x="700" y="1310" on="1"/>
        <pt x="668" y="1310" on="0"/>
      </contour>
    </TTGlyph>
    <TTGlyph name="Zcaron" xMin="-47" yMin="-30" xMax="1295" yMax="2418">
      <component glyphName="Z" x="0" y="0" flags="0x1204"/>
      <component glyphName="caron" x="377" y="723" flags="0x1004"/>
    </TTGlyph>
    <TTGlyph name="a" xMin="64" yMin="-5" xMax="1174" yMax="958">
      <contour>
        <pt x="1174" y="245" on="1"/>
        <pt x="1151" y="213" on="0"/>
        <pt x="1074" y="127" on="0"/>
        <pt x="978" y="49" on="0"/>
        <pt x="868" y="-5" on="0"/>
        <pt x="813" y="-5" on="1"/>
        <pt x="747" y="-5" on="0"/>
        <pt x="659" y="80" on="0"/>
        <pt x="627" y="161" on="1"/>
        <pt x="603" y="133" on="0"/>
        <pt x="533" y="75" on="0"/>
        <pt x="450" y="28" on="0"/>
        <pt x="360" y="-2" on="0"/>
        <pt x="315" y="-2" on="1"/>
        <pt x="267" y="-2" on="0"/>
        <pt x="176" y="37" on="0"/>
        <pt x="106" y="110" on="0"/>
        <pt x="64" y="215" on="0"/>
        <pt x="64" y="281" on="1"/>
        <pt x="64" y="356" on="0"/>
        <pt x="106" y="514" on="0"/>
        <pt x="180" y="665" on="0"/>
        <pt x="281" y="799" on="0"/>
        <pt x="401" y="899" on="0"/>
        <pt x="534" y="958" on="0"/>
        <pt x="603" y="958" on="1"/>
        <pt x="626" y="958" on="0"/>
        <pt x="652" y="940" on="0"/>
        <pt x="669" y="917" on="0"/>
        <pt x="685" y="895" on="0"/>
        <pt x="697" y="890" on="1"/>
        <pt x="709" y="885" on="0"/>
        <pt x="734" y="882" on="0"/>
        <pt x="747" y="882" on="1"/>
        <pt x="758" y="882" on="0"/>
        <pt x="781" y="883" on="0"/>
        <pt x="792" y="883" on="1"/>
        <pt x="807" y="883" on="0"/>
        <pt x="833" y="877" on="0"/>
        <pt x="853" y="857" on="0"/>
        <pt x="864" y="821" on="0"/>
        <pt x="864" y="790" on="1"/>
        <pt x="864" y="742" on="0"/>
        <pt x="844" y="625" on="0"/>
        <pt x="820" y="502" on="0"/>
        <pt x="800" y="379" on="0"/>
        <pt x="800" y="324" on="1"/>
        <pt x="800" y="277" on="0"/>
        <pt x="817" y="224" on="0"/>
        <pt x="845" y="224" on="1"/>
        <pt x="866" y="224" on="0"/>
        <pt x="912" y="245" on="0"/>
        <pt x="959" y="279" on="0"/>
        <pt x="1006" y="322" on="0"/>
        <pt x="1027" y="345" on="1"/>
        <pt x="1076" y="399" on="0"/>
        <pt x="1126" y="467" on="1"/>
      </contour>
      <contour>
        <pt x="320" y="324" on="1"/>
        <pt x="320" y="299" on="0"/>
        <pt x="327" y="252" on="0"/>
        <pt x="345" y="215" on="0"/>
        <pt x="375" y="192" on="0"/>
        <pt x="398" y="192" on="1"/>
        <pt x="435" y="192" on="0"/>
        <pt x="495" y="256" on="0"/>
        <pt x="539" y="346" on="0"/>
        <pt x="566" y="442" on="0"/>
        <pt x="570" y="474" on="1"/>
        <pt x="631" y="768" on="1"/>
        <pt x="590" y="768" on="0"/>
        <pt x="512" y="727" on="0"/>
        <pt x="443" y="657" on="0"/>
        <pt x="385" y="567" on="0"/>
        <pt x="343" y="468" on="0"/>
        <pt x="320" y="368" on="0"/>
      </contour>
    </TTGlyph>
    <TTGlyph name="aacute" xMin="64" yMin="-5" xMax="1174" yMax="1718">
      <component glyphName="a" x="0" y="0" flags="0x1204"/>
      <component glyphName="acute" x="545" y="8" flags="0x1004"/>
    </TTGlyph>
    <TTGlyph name="acircumflex" xMin="64" yMin="-5" xMax="1174" yMax="1749">
      <component glyphName="a" x="0" y="0" flags="0x1204"/>
      <component glyphName="circumflex" x="211" y="53" flags="0x1004"/>
    </TTGlyph>
    <TTGlyph name="acute" xMin="102" yMin="1088" xMax="544" yMax="1710">
      <contour>
        <pt x="112" y="1203" on="1"/>
        <pt x="118" y="1216" on="0"/>
        <pt x="140" y="1269" on="0"/>
        <pt x="169" y="1336" on="0"/>
        <pt x="202" y="1414" on="0"/>
        <pt x="219" y="1452" on="1"/>
        <pt x="258" y="1542" on="0"/>
        <pt x="304" y="1646" on="1"/>
        <pt x="317" y="1680" on="0"/>
        <pt x="370" y="1710" on="0"/>
        <pt x="399" y="1710" on="1"/>
        <pt x="425" y="1710" on="0"/>
        <pt x="477" y="1690" on="0"/>
        <pt x="518" y="1654" on="0"/>
        <pt x="544" y="1604" on="0"/>
        <pt x="544" y="1574" on="1"/>
        <pt x="544" y="1527" on="0"/>
        <pt x="507" y="1477" on="1"/>
        <pt x="488" y="1451" on="0"/>
        <pt x="439" y="1388" on="0"/>
        <pt x="386" y="1319" on="0"/>
        <pt x="331" y="1251" on="0"/>
        <pt x="281" y="1190" on="0"/>
        <pt x="240" y="1140" on="0"/>
        <pt x="228" y="1125" on="1"/>
        <pt x="211" y="1105" on="0"/>
        <pt x="177" y="1088" on="0"/>
        <pt x="160" y="1088" on="1"/>
        <pt x="136" y="1088" on="0"/>
        <pt x="102" y="1125" on="0"/>
        <pt x="102" y="1155" on="1"/>
        <pt x="102" y="1166" on="0"/>
        <pt x="107" y="1190" on="0"/>
      </contour>
    </TTGlyph>
    <TTGlyph name="adieresis" xMin="64" yMin="-5" xMax="1174" yMax="1428">
      <component glyphName="a" x="0" y="0" flags="0x1204"/>
      <component glyphName="dieresis" x="184" y="-26" flags="0x1004"/>
    </TTGlyph>
    <TTGlyph name="ae" xMin="64" yMin="-5" xMax="2009" yMax="959">
      <component glyphName="a" x="0" y="0" flags="0x1004"/>
      <component glyphName="e" x="928" y="0" flags="0x1004"/>
    </TTGlyph>
    <TTGlyph name="agrave" xMin="64" yMin="-5" xMax="1174" yMax="1770">
      <component glyphName="a" x="0" y="0" flags="0x1204"/>
      <component glyphName="grave" x="253" y="60" flags="0x1004"/>
    </TTGlyph>
    <TTGlyph name="ampersand" xMin="64" yMin="-45" xMax="1291" yMax="1652">
      <contour>
        <pt x="471" y="857" on="1"/>
        <pt x="452" y="892" on="0"/>
        <pt x="411" y="986" on="0"/>
        <pt x="376" y="1090" on="0"/>
        <pt x="353" y="1195" on="0"/>
        <pt x="353" y="1242" on="1"/>
        <pt x="353" y="1323" on="0"/>
        <pt x="423" y="1471" on="0"/>
        <pt x="541" y="1585" on="0"/>
        <pt x="696" y="1652" on="0"/>
        <pt x="782" y="1652" on="1"/>
        <pt x="855" y="1652" on="0"/>
        <pt x="978" y="1607" on="0"/>
        <pt x="1066" y="1527" on="0"/>
        <pt x="1115" y="1419" on="0"/>
        <pt x="1115" y="1355" on="1"/>
        <pt x="1115" y="1299" on="0"/>
        <pt x="1077" y="1176" on="0"/>
        <pt x="991" y="1049" on="0"/>
        <pt x="855" y="923" on="0"/>
        <pt x="758" y="864" on="1"/>
        <pt x="770" y="840" on="0"/>
        <pt x="827" y="749" on="0"/>
        <pt x="898" y="637" on="0"/>
        <pt x="975" y="514" on="0"/>
        <pt x="1008" y="457" on="1"/>
        <pt x="1029" y="472" on="0"/>
        <pt x="1054" y="504" on="0"/>
        <pt x="1066" y="536" on="0"/>
        <pt x="1069" y="569" on="0"/>
        <pt x="1069" y="586" on="1"/>
        <pt x="1069" y="624" on="0"/>
        <pt x="1051" y="678" on="0"/>
        <pt x="1018" y="730" on="0"/>
        <pt x="972" y="789" on="0"/>
        <pt x="945" y="832" on="1"/>
        <pt x="945" y="833" on="0"/>
        <pt x="955" y="843" on="0"/>
        <pt x="968" y="855" on="0"/>
        <pt x="980" y="864" on="0"/>
        <pt x="982" y="864" on="1"/>
        <pt x="997" y="864" on="0"/>
        <pt x="1053" y="839" on="0"/>
        <pt x="1119" y="794" on="0"/>
        <pt x="1189" y="731" on="0"/>
        <pt x="1245" y="653" on="0"/>
        <pt x="1281" y="562" on="0"/>
        <pt x="1281" y="513" on="1"/>
        <pt x="1281" y="452" on="0"/>
        <pt x="1214" y="321" on="0"/>
        <pt x="1134" y="256" on="1"/>
        <pt x="1137" y="256" on="0"/>
        <pt x="1173" y="229" on="0"/>
        <pt x="1219" y="193" on="0"/>
        <pt x="1264" y="157" on="0"/>
        <pt x="1275" y="147" on="1"/>
        <pt x="1291" y="132" on="0"/>
        <pt x="1291" y="106" on="1"/>
        <pt x="1291" y="83" on="0"/>
        <pt x="1264" y="30" on="0"/>
        <pt x="1222" y="-15" on="0"/>
        <pt x="1171" y="-45" on="0"/>
        <pt x="1147" y="-45" on="1"/>
        <pt x="1124" y="-45" on="0"/>
        <pt x="1106" y="-30" on="1"/>
        <pt x="1093" y="-19" on="0"/>
        <pt x="1044" y="32" on="0"/>
        <pt x="996" y="86" on="0"/>
        <pt x="960" y="127" on="0"/>
        <pt x="960" y="128" on="1"/>
        <pt x="913" y="92" on="0"/>
        <pt x="852" y="64" on="1"/>
        <pt x="799" y="40" on="0"/>
        <pt x="652" y="0" on="0"/>
        <pt x="558" y="0" on="1"/>
        <pt x="436" y="0" on="0"/>
        <pt x="251" y="54" on="0"/>
        <pt x="127" y="148" on="0"/>
        <pt x="64" y="273" on="0"/>
        <pt x="64" y="345" on="1"/>
        <pt x="64" y="408" on="0"/>
        <pt x="115" y="542" on="0"/>
        <pt x="217" y="676" on="0"/>
        <pt x="369" y="802" on="0"/>
      </contour>
      <contour>
        <pt x="566" y="202" on="1"/>
        <pt x="631" y="202" on="0"/>
        <pt x="755" y="247" on="0"/>
        <pt x="809" y="282" on="1"/>
        <pt x="766" y="333" on="0"/>
        <pt x="700" y="418" on="0"/>
        <pt x="637" y="511" on="0"/>
        <pt x="569" y="624" on="0"/>
        <pt x="525" y="704" on="1"/>
        <pt x="477" y="668" on="0"/>
        <pt x="401" y="587" on="0"/>
        <pt x="349" y="503" on="0"/>
        <pt x="322" y="420" on="0"/>
        <pt x="322" y="381" on="1"/>
        <pt x="322" y="343" on="0"/>
        <pt x="351" y="278" on="0"/>
        <pt x="411" y="230" on="0"/>
        <pt x="503" y="202" on="0"/>
      </contour>
      <contour>
        <pt x="794" y="1440" on="1"/>
        <pt x="773" y="1440" on="0"/>
        <pt x="721" y="1413" on="0"/>
        <pt x="676" y="1365" on="0"/>
        <pt x="646" y="1300" on="0"/>
        <pt x="646" y="1262" on="1"/>
        <pt x="646" y="1229" on="0"/>
        <pt x="665" y="1137" on="0"/>
        <pt x="689" y="1052" on="0"/>
        <pt x="709" y="993" on="0"/>
        <pt x="711" y="993" on="1"/>
        <pt x="760" y="1038" on="0"/>
        <pt x="841" y="1121" on="0"/>
        <pt x="897" y="1203" on="0"/>
        <pt x="928" y="1287" on="0"/>
        <pt x="928" y="1332" on="1"/>
        <pt x="928" y="1357" on="0"/>
        <pt x="915" y="1397" on="0"/>
        <pt x="885" y="1425" on="0"/>
        <pt x="833" y="1440" on="0"/>
      </contour>
    </TTGlyph>
    <TTGlyph name="aring" xMin="64" yMin="-5" xMax="1174" yMax="1618">
      <component glyphName="a" x="0" y="0" flags="0x1204"/>
      <component glyphName="ring" x="351" y="9" flags="0x1004"/>
    </TTGlyph>
    <TTGlyph name="asciicircum" xMin="93" yMin="508" xMax="1023" yMax="1344">
      <contour>
        <pt x="1013" y="680" on="1"/>
        <pt x="1023" y="649" on="0"/>
        <pt x="1023" y="622" on="1"/>
        <pt x="1023" y="595" on="0"/>
        <pt x="1005" y="553" on="0"/>
        <pt x="978" y="523" on="0"/>
        <pt x="946" y="508" on="0"/>
        <pt x="933" y="508" on="1"/>
        <pt x="903" y="508" on="0"/>
        <pt x="853" y="539" on="0"/>
        <pt x="814" y="581" on="0"/>
        <pt x="788" y="627" on="0"/>
        <pt x="784" y="642" on="1"/>
        <pt x="578" y="1124" on="1"/>
        <pt x="318" y="603" on="1"/>
        <pt x="290" y="552" on="0"/>
        <pt x="224" y="511" on="0"/>
        <pt x="194" y="511" on="1"/>
        <pt x="173" y="511" on="0"/>
        <pt x="136" y="528" on="0"/>
        <pt x="109" y="558" on="0"/>
        <pt x="93" y="598" on="0"/>
        <pt x="93" y="621" on="1"/>
        <pt x="93" y="634" on="0"/>
        <pt x="99" y="666" on="0"/>
        <pt x="107" y="681" on="1"/>
        <pt x="108" y="683" on="0"/>
        <pt x="130" y="725" on="0"/>
        <pt x="165" y="791" on="0"/>
        <pt x="208" y="874" on="0"/>
        <pt x="254" y="960" on="0"/>
        <pt x="298" y="1044" on="0"/>
        <pt x="332" y="1110" on="0"/>
        <pt x="355" y="1153" on="0"/>
        <pt x="356" y="1156" on="1"/>
        <pt x="401" y="1255" on="0"/>
        <pt x="514" y="1344" on="0"/>
        <pt x="567" y="1344" on="1"/>
        <pt x="595" y="1344" on="0"/>
        <pt x="652" y="1333" on="0"/>
        <pt x="707" y="1299" on="0"/>
        <pt x="761" y="1238" on="0"/>
        <pt x="785" y="1189" on="1"/>
        <pt x="842" y="1079" on="0"/>
        <pt x="958" y="823" on="0"/>
      </contour>
    </TTGlyph>
    <TTGlyph name="asciitilde" xMin="146" yMin="1295" xMax="974" yMax="1713">
      <contour>
        <pt x="710" y="1467" on="1"/>
        <pt x="722" y="1480" on="0"/>
        <pt x="734" y="1497" on="1"/>
        <pt x="745" y="1511" on="0"/>
        <pt x="770" y="1547" on="0"/>
        <pt x="783" y="1567" on="1"/>
        <pt x="803" y="1599" on="0"/>
        <pt x="862" y="1630" on="0"/>
        <pt x="891" y="1630" on="1"/>
        <pt x="925" y="1630" on="0"/>
        <pt x="974" y="1592" on="0"/>
        <pt x="974" y="1557" on="1"/>
        <pt x="974" y="1532" on="0"/>
        <pt x="960" y="1504" on="1"/>
        <pt x="948" y="1481" on="0"/>
        <pt x="910" y="1410" on="0"/>
        <pt x="853" y="1343" on="0"/>
        <pt x="777" y="1295" on="0"/>
        <pt x="728" y="1295" on="1"/>
        <pt x="697" y="1295" on="0"/>
        <pt x="650" y="1313" on="0"/>
        <pt x="602" y="1349" on="0"/>
        <pt x="549" y="1404" on="0"/>
        <pt x="512" y="1440" on="1"/>
        <pt x="410" y="1541" on="1"/>
        <pt x="398" y="1526" on="0"/>
        <pt x="386" y="1510" on="1"/>
        <pt x="375" y="1496" on="0"/>
        <pt x="349" y="1461" on="0"/>
        <pt x="337" y="1441" on="1"/>
        <pt x="317" y="1409" on="0"/>
        <pt x="258" y="1378" on="0"/>
        <pt x="229" y="1378" on="1"/>
        <pt x="195" y="1378" on="0"/>
        <pt x="146" y="1416" on="0"/>
        <pt x="146" y="1451" on="1"/>
        <pt x="146" y="1476" on="0"/>
        <pt x="160" y="1504" on="1"/>
        <pt x="172" y="1527" on="0"/>
        <pt x="210" y="1598" on="0"/>
        <pt x="267" y="1665" on="0"/>
        <pt x="343" y="1713" on="0"/>
        <pt x="392" y="1713" on="1"/>
        <pt x="423" y="1713" on="0"/>
        <pt x="470" y="1695" on="0"/>
        <pt x="518" y="1659" on="0"/>
        <pt x="571" y="1604" on="0"/>
        <pt x="608" y="1568" on="1"/>
      </contour>
    </TTGlyph>
    <TTGlyph name="asterisk" xMin="32" yMin="864" xMax="993" yMax="1824">
      <contour>
        <pt x="689" y="1708" on="1"/>
        <pt x="678" y="1677" on="0"/>
        <pt x="652" y="1602" on="0"/>
        <pt x="624" y="1527" on="0"/>
        <pt x="597" y="1456" on="0"/>
        <pt x="586" y="1429" on="1"/>
        <pt x="618" y="1446" on="0"/>
        <pt x="703" y="1494" on="0"/>
        <pt x="742" y="1515" on="1"/>
        <pt x="788" y="1540" on="0"/>
        <pt x="835" y="1566" on="1"/>
        <pt x="844" y="1572" on="0"/>
        <pt x="862" y="1576" on="0"/>
        <pt x="873" y="1576" on="1"/>
        <pt x="895" y="1576" on="0"/>
        <pt x="939" y="1554" on="0"/>
        <pt x="972" y="1518" on="0"/>
        <pt x="993" y="1474" on="0"/>
        <pt x="993" y="1452" on="1"/>
        <pt x="993" y="1427" on="0"/>
        <pt x="959" y="1386" on="0"/>
        <pt x="918" y="1375" on="1"/>
        <pt x="888" y="1369" on="0"/>
        <pt x="816" y="1355" on="0"/>
        <pt x="743" y="1342" on="0"/>
        <pt x="672" y="1330" on="0"/>
        <pt x="642" y="1326" on="1"/>
        <pt x="669" y="1314" on="0"/>
        <pt x="735" y="1284" on="0"/>
        <pt x="803" y="1252" on="0"/>
        <pt x="869" y="1221" on="0"/>
        <pt x="897" y="1208" on="1"/>
        <pt x="926" y="1191" on="0"/>
        <pt x="951" y="1153" on="0"/>
        <pt x="951" y="1133" on="1"/>
        <pt x="951" y="1112" on="0"/>
        <pt x="928" y="1072" on="0"/>
        <pt x="891" y="1041" on="0"/>
        <pt x="845" y="1022" on="0"/>
        <pt x="823" y="1022" on="1"/>
        <pt x="788" y="1022" on="0"/>
        <pt x="765" y="1045" on="1"/>
        <pt x="723" y="1084" on="0"/>
        <pt x="683" y="1122" on="1"/>
        <pt x="649" y="1154" on="0"/>
        <pt x="577" y="1223" on="0"/>
        <pt x="553" y="1248" on="1"/>
        <pt x="552" y="1213" on="0"/>
        <pt x="551" y="1114" on="0"/>
        <pt x="550" y="1068" on="1"/>
        <pt x="549" y="1014" on="0"/>
        <pt x="548" y="957" on="1"/>
        <pt x="548" y="935" on="0"/>
        <pt x="526" y="901" on="0"/>
        <pt x="490" y="877" on="0"/>
        <pt x="446" y="864" on="0"/>
        <pt x="424" y="864" on="1"/>
        <pt x="406" y="864" on="0"/>
        <pt x="373" y="873" on="0"/>
        <pt x="347" y="893" on="0"/>
        <pt x="331" y="922" on="0"/>
        <pt x="331" y="943" on="1"/>
        <pt x="331" y="951" on="0"/>
        <pt x="333" y="970" on="0"/>
        <pt x="336" y="980" on="1"/>
        <pt x="346" y="1011" on="0"/>
        <pt x="373" y="1084" on="0"/>
        <pt x="400" y="1158" on="0"/>
        <pt x="427" y="1228" on="0"/>
        <pt x="438" y="1255" on="1"/>
        <pt x="406" y="1237" on="0"/>
        <pt x="321" y="1191" on="0"/>
        <pt x="283" y="1170" on="1"/>
        <pt x="238" y="1145" on="0"/>
        <pt x="191" y="1120" on="1"/>
        <pt x="174" y="1110" on="0"/>
        <pt x="153" y="1110" on="1"/>
        <pt x="130" y="1110" on="0"/>
        <pt x="87" y="1133" on="0"/>
        <pt x="53" y="1169" on="0"/>
        <pt x="32" y="1213" on="0"/>
        <pt x="32" y="1235" on="1"/>
        <pt x="32" y="1261" on="0"/>
        <pt x="66" y="1301" on="0"/>
        <pt x="107" y="1312" on="1"/>
        <pt x="137" y="1318" on="0"/>
        <pt x="207" y="1331" on="0"/>
        <pt x="281" y="1344" on="0"/>
        <pt x="351" y="1355" on="0"/>
        <pt x="381" y="1360" on="1"/>
        <pt x="354" y="1372" on="0"/>
        <pt x="288" y="1402" on="0"/>
        <pt x="221" y="1433" on="0"/>
        <pt x="155" y="1464" on="0"/>
        <pt x="128" y="1477" on="1"/>
        <pt x="74" y="1508" on="0"/>
        <pt x="74" y="1551" on="1"/>
        <pt x="74" y="1572" on="0"/>
        <pt x="97" y="1612" on="0"/>
        <pt x="134" y="1644" on="0"/>
        <pt x="180" y="1663" on="0"/>
        <pt x="203" y="1663" on="1"/>
        <pt x="238" y="1663" on="0"/>
        <pt x="260" y="1640" on="1"/>
        <pt x="302" y="1601" on="0"/>
        <pt x="342" y="1563" on="1"/>
        <pt x="376" y="1531" on="0"/>
        <pt x="448" y="1461" on="0"/>
        <pt x="473" y="1437" on="1"/>
        <pt x="473" y="1472" on="0"/>
        <pt x="475" y="1571" on="0"/>
        <pt x="476" y="1618" on="1"/>
        <pt x="477" y="1673" on="0"/>
        <pt x="478" y="1731" on="1"/>
        <pt x="478" y="1753" on="0"/>
        <pt x="500" y="1788" on="0"/>
        <pt x="534" y="1812" on="0"/>
        <pt x="578" y="1824" on="0"/>
        <pt x="601" y="1824" on="1"/>
        <pt x="637" y="1824" on="0"/>
        <pt x="694" y="1786" on="0"/>
        <pt x="694" y="1745" on="1"/>
        <pt x="694" y="1737" on="0"/>
        <pt x="691" y="1719" on="0"/>
      </contour>
    </TTGlyph>
    <TTGlyph name="at" xMin="112" yMin="-384" xMax="2138" yMax="1568">
      <contour>
        <pt x="1486" y="1029" on="1"/>
        <pt x="1463" y="1035" on="0"/>
        <pt x="1412" y="1042" on="0"/>
        <pt x="1389" y="1042" on="1"/>
        <pt x="1325" y="1042" on="0"/>
        <pt x="1203" y="976" on="0"/>
        <pt x="1093" y="869" on="0"/>
        <pt x="1001" y="730" on="0"/>
        <pt x="934" y="583" on="0"/>
        <pt x="897" y="441" on="0"/>
        <pt x="897" y="383" on="1"/>
        <pt x="897" y="308" on="0"/>
        <pt x="960" y="227" on="0"/>
        <pt x="1027" y="227" on="1"/>
        <pt x="1072" y="227" on="0"/>
        <pt x="1153" y="264" on="0"/>
        <pt x="1222" y="325" on="0"/>
        <pt x="1279" y="401" on="0"/>
        <pt x="1322" y="479" on="0"/>
        <pt x="1350" y="552" on="0"/>
        <pt x="1355" y="578" on="1"/>
      </contour>
      <contour>
        <pt x="112" y="215" on="1"/>
        <pt x="112" y="329" on="0"/>
        <pt x="160" y="567" on="0"/>
        <pt x="251" y="800" on="0"/>
        <pt x="382" y="1022" on="0"/>
        <pt x="547" y="1218" on="0"/>
        <pt x="744" y="1383" on="0"/>
        <pt x="967" y="1502" on="0"/>
        <pt x="1212" y="1568" on="0"/>
        <pt x="1344" y="1568" on="1"/>
        <pt x="1441" y="1568" on="0"/>
        <pt x="1634" y="1534" on="0"/>
        <pt x="1811" y="1463" on="0"/>
        <pt x="1962" y="1352" on="0"/>
        <pt x="2074" y="1197" on="0"/>
        <pt x="2138" y="996" on="0"/>
        <pt x="2138" y="870" on="1"/>
        <pt x="2138" y="844" on="0"/>
        <pt x="2136" y="790" on="0"/>
        <pt x="2132" y="762" on="1"/>
        <pt x="2123" y="694" on="0"/>
        <pt x="2068" y="535" on="0"/>
        <pt x="1981" y="378" on="0"/>
        <pt x="1865" y="232" on="0"/>
        <pt x="1725" y="121" on="0"/>
        <pt x="1563" y="54" on="0"/>
        <pt x="1475" y="54" on="1"/>
        <pt x="1453" y="54" on="0"/>
        <pt x="1408" y="69" on="0"/>
        <pt x="1372" y="109" on="0"/>
        <pt x="1350" y="179" on="0"/>
        <pt x="1350" y="235" on="1"/>
        <pt x="1350" y="259" on="0"/>
        <pt x="1357" y="313" on="0"/>
        <pt x="1363" y="345" on="1"/>
        <pt x="1325" y="268" on="0"/>
        <pt x="1230" y="152" on="0"/>
        <pt x="1122" y="72" on="0"/>
        <pt x="1007" y="32" on="0"/>
        <pt x="950" y="32" on="1"/>
        <pt x="884" y="32" on="0"/>
        <pt x="765" y="76" on="0"/>
        <pt x="674" y="163" on="0"/>
        <pt x="620" y="292" on="0"/>
        <pt x="620" y="378" on="1"/>
        <pt x="620" y="465" on="0"/>
        <pt x="675" y="661" on="0"/>
        <pt x="776" y="853" on="0"/>
        <pt x="919" y="1028" on="0"/>
        <pt x="1097" y="1162" on="0"/>
        <pt x="1306" y="1241" on="0"/>
        <pt x="1421" y="1241" on="1"/>
        <pt x="1444" y="1241" on="0"/>
        <pt x="1472" y="1234" on="0"/>
        <pt x="1486" y="1223" on="0"/>
        <pt x="1490" y="1211" on="0"/>
        <pt x="1490" y="1207" on="1"/>
        <pt x="1490" y="1203" on="0"/>
        <pt x="1489" y="1198" on="0"/>
        <pt x="1489" y="1196" on="1"/>
        <pt x="1489" y="1192" on="1"/>
        <pt x="1512" y="1182" on="0"/>
        <pt x="1563" y="1178" on="0"/>
        <pt x="1611" y="1174" on="0"/>
        <pt x="1654" y="1164" on="0"/>
        <pt x="1687" y="1132" on="0"/>
        <pt x="1706" y="1070" on="0"/>
        <pt x="1706" y="1018" on="1"/>
        <pt x="1706" y="978" on="0"/>
        <pt x="1689" y="877" on="0"/>
        <pt x="1662" y="767" on="0"/>
        <pt x="1628" y="654" on="0"/>
        <pt x="1596" y="547" on="0"/>
        <pt x="1569" y="453" on="0"/>
        <pt x="1562" y="417" on="1"/>
        <pt x="1548" y="372" on="0"/>
        <pt x="1548" y="340" on="1"/>
        <pt x="1548" y="317" on="0"/>
        <pt x="1563" y="289" on="0"/>
        <pt x="1580" y="289" on="1"/>
        <pt x="1617" y="289" on="0"/>
        <pt x="1691" y="334" on="0"/>
        <pt x="1760" y="412" on="0"/>
        <pt x="1819" y="517" on="0"/>
        <pt x="1863" y="638" on="0"/>
        <pt x="1888" y="768" on="0"/>
        <pt x="1888" y="832" on="1"/>
        <pt x="1888" y="982" on="0"/>
        <pt x="1803" y="1190" on="0"/>
        <pt x="1655" y="1319" on="0"/>
        <pt x="1457" y="1376" on="0"/>
        <pt x="1344" y="1376" on="1"/>
        <pt x="1203" y="1376" on="0"/>
        <pt x="953" y="1272" on="0"/>
        <pt x="743" y="1097" on="0"/>
        <pt x="577" y="870" on="0"/>
        <pt x="461" y="622" on="0"/>
        <pt x="400" y="371" on="0"/>
        <pt x="400" y="261" on="1"/>
        <pt x="400" y="172" on="0"/>
        <pt x="462" y="29" on="0"/>
        <pt x="602" y="-73" on="0"/>
        <pt x="828" y="-128" on="0"/>
        <pt x="992" y="-128" on="1"/>
        <pt x="1231" y="-128" on="0"/>
        <pt x="1598" y="-55" on="0"/>
        <pt x="1733" y="7" on="1"/>
        <pt x="1756" y="17" on="0"/>
        <pt x="1775" y="17" on="1"/>
        <pt x="1792" y="17" on="0"/>
        <pt x="1816" y="1" on="0"/>
        <pt x="1832" y="-25" on="0"/>
        <pt x="1839" y="-58" on="0"/>
        <pt x="1839" y="-75" on="1"/>
        <pt x="1839" y="-101" on="0"/>
        <pt x="1823" y="-148" on="0"/>
        <pt x="1809" y="-156" on="1"/>
        <pt x="1713" y="-213" on="0"/>
        <pt x="1482" y="-299" on="0"/>
        <pt x="1240" y="-356" on="0"/>
        <pt x="1000" y="-384" on="0"/>
        <pt x="896" y="-384" on="1"/>
        <pt x="701" y="-384" on="0"/>
        <pt x="407" y="-294" on="0"/>
        <pt x="211" y="-135" on="0"/>
        <pt x="112" y="85" on="0"/>
      </contour>
    </TTGlyph>
    <TTGlyph name="atilde" xMin="64" yMin="-5" xMax="1174" yMax="1460">
      <component glyphName="a" x="0" y="0" flags="0x1204"/>
      <component glyphName="tilde" x="193" y="37" flags="0x1004"/>
    </TTGlyph>
    <TTGlyph name="b" xMin="32" yMin="0" xMax="1178" yMax="1920">
      <contour>
        <pt x="452" y="805" on="1"/>
        <pt x="508" y="875" on="0"/>
        <pt x="601" y="960" on="0"/>
        <pt x="647" y="960" on="1"/>
        <pt x="706" y="960" on="0"/>
        <pt x="798" y="908" on="0"/>
        <pt x="862" y="822" on="0"/>
        <pt x="896" y="710" on="0"/>
        <pt x="896" y="649" on="1"/>
        <pt x="896" y="598" on="0"/>
        <pt x="888" y="507" on="0"/>
        <pt x="867" y="420" on="0"/>
        <pt x="830" y="334" on="0"/>
        <pt x="800" y="288" on="1"/>
        <pt x="836" y="309" on="0"/>
        <pt x="910" y="349" on="0"/>
        <pt x="985" y="397" on="0"/>
        <pt x="1061" y="456" on="0"/>
        <pt x="1101" y="496" on="1"/>
        <pt x="1178" y="331" on="1"/>
        <pt x="1123" y="281" on="0"/>
        <pt x="1014" y="207" on="0"/>
        <pt x="899" y="152" on="0"/>
        <pt x="774" y="112" on="0"/>
        <pt x="704" y="96" on="1"/>
        <pt x="687" y="79" on="0"/>
        <pt x="628" y="45" on="0"/>
        <pt x="599" y="31" on="1"/>
        <pt x="566" y="15" on="0"/>
        <pt x="528" y="0" on="1"/>
        <pt x="503" y="0" on="1"/>
        <pt x="418" y="0" on="0"/>
        <pt x="251" y="47" on="0"/>
        <pt x="183" y="76" on="1"/>
        <pt x="104" y="109" on="0"/>
        <pt x="32" y="152" on="1"/>
        <pt x="35" y="233" on="0"/>
        <pt x="44" y="335" on="1"/>
        <pt x="52" y="423" on="0"/>
        <pt x="80" y="662" on="0"/>
        <pt x="104" y="809" on="1"/>
        <pt x="120" y="907" on="0"/>
        <pt x="168" y="1148" on="0"/>
        <pt x="233" y="1395" on="0"/>
        <pt x="314" y="1628" on="0"/>
        <pt x="413" y="1810" on="0"/>
        <pt x="530" y="1920" on="0"/>
        <pt x="598" y="1920" on="1"/>
        <pt x="674" y="1920" on="0"/>
        <pt x="766" y="1868" on="0"/>
        <pt x="816" y="1779" on="0"/>
        <pt x="832" y="1659" on="0"/>
        <pt x="832" y="1591" on="1"/>
        <pt x="832" y="1496" on="0"/>
        <pt x="761" y="1294" on="0"/>
        <pt x="647" y="1093" on="0"/>
        <pt x="506" y="901" on="0"/>
        <pt x="436" y="816" on="1"/>
      </contour>
      <contour>
        <pt x="542" y="732" on="1"/>
        <pt x="507" y="732" on="0"/>
        <pt x="437" y="703" on="0"/>
        <pt x="377" y="642" on="0"/>
        <pt x="331" y="547" on="0"/>
        <pt x="320" y="480" on="1"/>
        <pt x="311" y="426" on="0"/>
        <pt x="299" y="335" on="0"/>
        <pt x="295" y="300" on="1"/>
        <pt x="291" y="260" on="0"/>
        <pt x="288" y="225" on="1"/>
        <pt x="321" y="215" on="0"/>
        <pt x="354" y="208" on="1"/>
        <pt x="383" y="202" on="0"/>
        <pt x="447" y="192" on="0"/>
        <pt x="476" y="192" on="1"/>
        <pt x="510" y="192" on="0"/>
        <pt x="566" y="232" on="0"/>
        <pt x="610" y="299" on="0"/>
        <pt x="642" y="385" on="0"/>
        <pt x="662" y="478" on="0"/>
        <pt x="672" y="569" on="0"/>
        <pt x="672" y="607" on="1"/>
        <pt x="672" y="632" on="0"/>
        <pt x="661" y="677" on="0"/>
        <pt x="632" y="711" on="0"/>
        <pt x="581" y="732" on="0"/>
      </contour>
      <contour>
        <pt x="640" y="1648" on="1"/>
        <pt x="640" y="1652" on="0"/>
        <pt x="637" y="1678" on="0"/>
        <pt x="626" y="1706" on="0"/>
        <pt x="606" y="1728" on="0"/>
        <pt x="589" y="1728" on="1"/>
        <pt x="569" y="1728" on="0"/>
        <pt x="526" y="1671" on="0"/>
        <pt x="484" y="1574" on="0"/>
        <pt x="444" y="1447" on="0"/>
        <pt x="406" y="1308" on="0"/>
        <pt x="373" y="1164" on="0"/>
        <pt x="346" y="1035" on="0"/>
        <pt x="326" y="928" on="0"/>
        <pt x="320" y="895" on="1"/>
        <pt x="347" y="947" on="0"/>
        <pt x="414" y="1059" on="0"/>
        <pt x="482" y="1180" on="0"/>
        <pt x="547" y="1307" on="0"/>
        <pt x="600" y="1440" on="0"/>
        <pt x="635" y="1577" on="0"/>
      </contour>
    </TTGlyph>
    <TTGlyph name="backslash" xMin="155" yMin="-39" xMax="1159" yMax="1864">
      <contour>
        <pt x="416" y="1760" on="1"/>
        <pt x="446" y="1694" on="0"/>
        <pt x="532" y="1503" on="0"/>
        <pt x="634" y="1278" on="0"/>
        <pt x="745" y="1031" on="0"/>
        <pt x="855" y="787" on="0"/>
        <pt x="958" y="557" on="0"/>
        <pt x="1044" y="367" on="0"/>
        <pt x="1106" y="228" on="0"/>
        <pt x="1120" y="197" on="1"/>
        <pt x="1140" y="151" on="0"/>
        <pt x="1159" y="81" on="0"/>
        <pt x="1159" y="55" on="1"/>
        <pt x="1159" y="6" on="0"/>
        <pt x="1097" y="-39" on="0"/>
        <pt x="1053" y="-39" on="1"/>
        <pt x="1028" y="-39" on="0"/>
        <pt x="975" y="-25" on="0"/>
        <pt x="925" y="1" on="0"/>
        <pt x="882" y="40" on="0"/>
        <pt x="867" y="64" on="1"/>
        <pt x="744" y="313" on="0"/>
        <pt x="540" y="775" on="0"/>
        <pt x="372" y="1177" on="0"/>
        <pt x="237" y="1506" on="0"/>
        <pt x="185" y="1622" on="1"/>
        <pt x="169" y="1657" on="0"/>
        <pt x="155" y="1718" on="0"/>
        <pt x="155" y="1743" on="1"/>
        <pt x="155" y="1773" on="0"/>
        <pt x="173" y="1818" on="0"/>
        <pt x="204" y="1849" on="0"/>
        <pt x="245" y="1864" on="0"/>
        <pt x="267" y="1864" on="1"/>
        <pt x="309" y="1864" on="0"/>
        <pt x="392" y="1812" on="0"/>
      </contour>
    </TTGlyph>
    <TTGlyph name="bar" xMin="472" yMin="-32" xMax="987" yMax="1856">
      <contour>
        <pt x="715" y="1696" on="1"/>
        <pt x="718" y="1724" on="0"/>
        <pt x="744" y="1781" on="0"/>
        <pt x="788" y="1827" on="0"/>
        <pt x="851" y="1856" on="0"/>
        <pt x="892" y="1856" on="1"/>
        <pt x="919" y="1856" on="0"/>
        <pt x="955" y="1829" on="0"/>
        <pt x="977" y="1792" on="0"/>
        <pt x="987" y="1752" on="0"/>
        <pt x="987" y="1739" on="1"/>
        <pt x="987" y="1727" on="0"/>
        <pt x="985" y="1696" on="0"/>
        <pt x="981" y="1664" on="0"/>
        <pt x="977" y="1633" on="0"/>
        <pt x="975" y="1622" on="1"/>
        <pt x="966" y="1564" on="0"/>
        <pt x="939" y="1395" on="0"/>
        <pt x="908" y="1193" on="0"/>
        <pt x="874" y="968" on="0"/>
        <pt x="840" y="741" on="0"/>
        <pt x="807" y="522" on="0"/>
        <pt x="779" y="330" on="0"/>
        <pt x="757" y="176" on="0"/>
        <pt x="750" y="128" on="1"/>
        <pt x="744" y="84" on="0"/>
        <pt x="703" y="24" on="0"/>
        <pt x="652" y="-15" on="0"/>
        <pt x="598" y="-32" on="0"/>
        <pt x="579" y="-32" on="1"/>
        <pt x="555" y="-32" on="0"/>
        <pt x="516" y="-6" on="0"/>
        <pt x="487" y="38" on="0"/>
        <pt x="472" y="96" on="0"/>
        <pt x="472" y="129" on="1"/>
        <pt x="472" y="144" on="0"/>
        <pt x="474" y="178" on="0"/>
        <pt x="477" y="197" on="1"/>
        <pt x="482" y="228" on="0"/>
        <pt x="502" y="362" on="0"/>
        <pt x="530" y="543" on="0"/>
        <pt x="564" y="761" on="0"/>
        <pt x="601" y="993" on="0"/>
        <pt x="638" y="1229" on="0"/>
        <pt x="673" y="1445" on="0"/>
        <pt x="703" y="1630" on="0"/>
      </contour>
    </TTGlyph>
    <TTGlyph name="braceleft" xMin="132" yMin="-312" xMax="1305" yMax="1824">
      <contour>
        <pt x="487" y="1384" on="1"/>
        <pt x="502" y="1481" on="0"/>
        <pt x="574" y="1643" on="0"/>
        <pt x="677" y="1760" on="0"/>
        <pt x="805" y="1824" on="0"/>
        <pt x="877" y="1824" on="1"/>
        <pt x="913" y="1824" on="0"/>
        <pt x="1015" y="1819" on="0"/>
        <pt x="1125" y="1799" on="0"/>
        <pt x="1234" y="1761" on="0"/>
        <pt x="1278" y="1728" on="1"/>
        <pt x="1292" y="1717" on="0"/>
        <pt x="1305" y="1686" on="0"/>
        <pt x="1305" y="1669" on="1"/>
        <pt x="1305" y="1646" on="0"/>
        <pt x="1286" y="1599" on="0"/>
        <pt x="1253" y="1561" on="0"/>
        <pt x="1209" y="1536" on="0"/>
        <pt x="1183" y="1536" on="1"/>
        <pt x="1159" y="1536" on="0"/>
        <pt x="1092" y="1546" on="0"/>
        <pt x="1015" y="1558" on="0"/>
        <pt x="936" y="1568" on="0"/>
        <pt x="900" y="1568" on="1"/>
        <pt x="868" y="1568" on="0"/>
        <pt x="816" y="1543" on="0"/>
        <pt x="774" y="1474" on="0"/>
        <pt x="738" y="1353" on="0"/>
        <pt x="723" y="1256" on="1"/>
        <pt x="711" y="1181" on="0"/>
        <pt x="684" y="1032" on="0"/>
        <pt x="635" y="903" on="0"/>
        <pt x="554" y="805" on="0"/>
        <pt x="488" y="781" on="1"/>
        <pt x="528" y="771" on="0"/>
        <pt x="582" y="725" on="0"/>
        <pt x="614" y="660" on="0"/>
        <pt x="627" y="579" on="0"/>
        <pt x="627" y="534" on="1"/>
        <pt x="627" y="477" on="0"/>
        <pt x="612" y="350" on="0"/>
        <pt x="595" y="228" on="0"/>
        <pt x="580" y="121" on="0"/>
        <pt x="580" y="86" on="1"/>
        <pt x="580" y="44" on="0"/>
        <pt x="593" y="-10" on="0"/>
        <pt x="617" y="-43" on="0"/>
        <pt x="652" y="-56" on="0"/>
        <pt x="675" y="-56" on="1"/>
        <pt x="711" y="-56" on="0"/>
        <pt x="775" y="-33" on="0"/>
        <pt x="836" y="-5" on="0"/>
        <pt x="895" y="18" on="0"/>
        <pt x="926" y="18" on="1"/>
        <pt x="943" y="18" on="0"/>
        <pt x="977" y="6" on="0"/>
        <pt x="1003" y="-20" on="0"/>
        <pt x="1019" y="-60" on="0"/>
        <pt x="1019" y="-87" on="1"/>
        <pt x="1019" y="-102" on="0"/>
        <pt x="1016" y="-120" on="1"/>
        <pt x="1011" y="-154" on="0"/>
        <pt x="952" y="-209" on="0"/>
        <pt x="866" y="-252" on="0"/>
        <pt x="764" y="-282" on="0"/>
        <pt x="668" y="-302" on="0"/>
        <pt x="590" y="-312" on="0"/>
        <pt x="570" y="-312" on="1"/>
        <pt x="509" y="-312" on="0"/>
        <pt x="413" y="-264" on="0"/>
        <pt x="347" y="-175" on="0"/>
        <pt x="312" y="-52" on="0"/>
        <pt x="312" y="23" on="1"/>
        <pt x="312" y="107" on="0"/>
        <pt x="345" y="288" on="0"/>
        <pt x="360" y="376" on="1"/>
        <pt x="362" y="391" on="0"/>
        <pt x="365" y="422" on="0"/>
        <pt x="365" y="439" on="1"/>
        <pt x="365" y="475" on="0"/>
        <pt x="350" y="544" on="0"/>
        <pt x="314" y="598" on="0"/>
        <pt x="254" y="632" on="0"/>
        <pt x="209" y="632" on="1"/>
        <pt x="168" y="632" on="0"/>
        <pt x="132" y="693" on="0"/>
        <pt x="132" y="735" on="1"/>
        <pt x="132" y="766" on="0"/>
        <pt x="150" y="831" on="0"/>
        <pt x="182" y="884" on="0"/>
        <pt x="227" y="919" on="0"/>
        <pt x="254" y="920" on="1"/>
        <pt x="318" y="921" on="0"/>
        <pt x="399" y="954" on="0"/>
        <pt x="449" y="1018" on="0"/>
        <pt x="477" y="1113" on="0"/>
        <pt x="487" y="1176" on="1"/>
      </contour>
    </TTGlyph>
    <TTGlyph name="braceright" xMin="64" yMin="-342" xMax="1193" yMax="1744">
      <contour>
        <pt x="1007" y="1304" on="1"/>
        <pt x="1000" y="1261" on="0"/>
        <pt x="982" y="1165" on="0"/>
        <pt x="966" y="1069" on="0"/>
        <pt x="955" y="979" on="0"/>
        <pt x="955" y="943" on="1"/>
        <pt x="955" y="908" on="0"/>
        <pt x="971" y="856" on="0"/>
        <pt x="1008" y="820" on="0"/>
        <pt x="1071" y="801" on="0"/>
        <pt x="1118" y="800" on="1"/>
        <pt x="1157" y="799" on="0"/>
        <pt x="1193" y="733" on="0"/>
        <pt x="1193" y="688" on="1"/>
        <pt x="1193" y="658" on="0"/>
        <pt x="1177" y="595" on="0"/>
        <pt x="1146" y="544" on="0"/>
        <pt x="1101" y="512" on="0"/>
        <pt x="1073" y="512" on="1"/>
        <pt x="1026" y="512" on="0"/>
        <pt x="958" y="481" on="0"/>
        <pt x="911" y="432" on="0"/>
        <pt x="884" y="373" on="0"/>
        <pt x="880" y="346" on="1"/>
        <pt x="869" y="283" on="0"/>
        <pt x="851" y="169" on="0"/>
        <pt x="841" y="106" on="1"/>
        <pt x="825" y="8" on="0"/>
        <pt x="753" y="-156" on="0"/>
        <pt x="650" y="-275" on="0"/>
        <pt x="522" y="-342" on="0"/>
        <pt x="450" y="-342" on="1"/>
        <pt x="431" y="-342" on="0"/>
        <pt x="359" y="-333" on="0"/>
        <pt x="273" y="-315" on="0"/>
        <pt x="183" y="-286" on="0"/>
        <pt x="110" y="-246" on="0"/>
        <pt x="64" y="-195" on="0"/>
        <pt x="64" y="-163" on="1"/>
        <pt x="64" y="-124" on="0"/>
        <pt x="93" y="-67" on="0"/>
        <pt x="135" y="-30" on="0"/>
        <pt x="181" y="-12" on="0"/>
        <pt x="198" y="-12" on="1"/>
        <pt x="229" y="-12" on="0"/>
        <pt x="281" y="-35" on="0"/>
        <pt x="334" y="-63" on="0"/>
        <pt x="391" y="-86" on="0"/>
        <pt x="427" y="-86" on="1"/>
        <pt x="459" y="-86" on="0"/>
        <pt x="511" y="-59" on="0"/>
        <pt x="555" y="13" on="0"/>
        <pt x="590" y="137" on="0"/>
        <pt x="606" y="234" on="1"/>
        <pt x="617" y="301" on="0"/>
        <pt x="645" y="441" on="0"/>
        <pt x="695" y="561" on="0"/>
        <pt x="776" y="647" on="0"/>
        <pt x="840" y="661" on="1"/>
        <pt x="800" y="676" on="0"/>
        <pt x="747" y="726" on="0"/>
        <pt x="715" y="792" on="0"/>
        <pt x="702" y="872" on="0"/>
        <pt x="702" y="916" on="1"/>
        <pt x="702" y="969" on="0"/>
        <pt x="716" y="1092" on="0"/>
        <pt x="734" y="1211" on="0"/>
        <pt x="748" y="1315" on="0"/>
        <pt x="748" y="1350" on="1"/>
        <pt x="748" y="1391" on="0"/>
        <pt x="735" y="1445" on="0"/>
        <pt x="711" y="1476" on="0"/>
        <pt x="675" y="1488" on="0"/>
        <pt x="652" y="1488" on="1"/>
        <pt x="616" y="1488" on="0"/>
        <pt x="533" y="1478" on="0"/>
        <pt x="454" y="1466" on="0"/>
        <pt x="383" y="1456" on="0"/>
        <pt x="359" y="1456" on="1"/>
        <pt x="338" y="1456" on="0"/>
        <pt x="307" y="1472" on="0"/>
        <pt x="285" y="1499" on="0"/>
        <pt x="274" y="1533" on="0"/>
        <pt x="274" y="1552" on="1"/>
        <pt x="274" y="1579" on="0"/>
        <pt x="300" y="1631" on="0"/>
        <pt x="326" y="1648" on="1"/>
        <pt x="380" y="1681" on="0"/>
        <pt x="501" y="1719" on="0"/>
        <pt x="618" y="1739" on="0"/>
        <pt x="721" y="1744" on="0"/>
        <pt x="757" y="1744" on="1"/>
        <pt x="818" y="1744" on="0"/>
        <pt x="914" y="1697" on="0"/>
        <pt x="981" y="1611" on="0"/>
        <pt x="1016" y="1490" on="0"/>
        <pt x="1016" y="1415" on="1"/>
        <pt x="1016" y="1362" on="0"/>
      </contour>
    </TTGlyph>
    <TTGlyph name="bracketleft" xMin="176" yMin="-192" xMax="1088" yMax="1667">
      <contour>
        <pt x="392" y="1415" on="1"/>
        <pt x="398" y="1438" on="0"/>
        <pt x="413" y="1493" on="0"/>
        <pt x="438" y="1549" on="0"/>
        <pt x="476" y="1602" on="0"/>
        <pt x="534" y="1642" on="0"/>
        <pt x="616" y="1667" on="0"/>
        <pt x="672" y="1667" on="1"/>
        <pt x="990" y="1667" on="1"/>
        <pt x="1015" y="1667" on="0"/>
        <pt x="1052" y="1646" on="0"/>
        <pt x="1076" y="1614" on="0"/>
        <pt x="1088" y="1577" on="0"/>
        <pt x="1088" y="1561" on="1"/>
        <pt x="1088" y="1539" on="0"/>
        <pt x="1063" y="1496" on="0"/>
        <pt x="1024" y="1463" on="0"/>
        <pt x="979" y="1443" on="0"/>
        <pt x="958" y="1443" on="1"/>
        <pt x="672" y="1443" on="1"/>
        <pt x="672" y="1441" on="0"/>
        <pt x="660" y="1359" on="0"/>
        <pt x="640" y="1222" on="0"/>
        <pt x="613" y="1040" on="0"/>
        <pt x="582" y="837" on="0"/>
        <pt x="550" y="623" on="0"/>
        <pt x="519" y="421" on="0"/>
        <pt x="492" y="242" on="0"/>
        <pt x="471" y="108" on="0"/>
        <pt x="459" y="31" on="0"/>
        <pt x="459" y="32" on="1"/>
        <pt x="745" y="32" on="1"/>
        <pt x="761" y="32" on="0"/>
        <pt x="792" y="19" on="0"/>
        <pt x="814" y="-4" on="0"/>
        <pt x="828" y="-34" on="0"/>
        <pt x="828" y="-51" on="1"/>
        <pt x="828" y="-66" on="0"/>
        <pt x="805" y="-114" on="0"/>
        <pt x="763" y="-159" on="0"/>
        <pt x="705" y="-192" on="0"/>
        <pt x="671" y="-192" on="1"/>
        <pt x="353" y="-192" on="1"/>
        <pt x="299" y="-192" on="0"/>
        <pt x="230" y="-169" on="0"/>
        <pt x="191" y="-130" on="0"/>
        <pt x="176" y="-80" on="0"/>
        <pt x="176" y="-53" on="1"/>
        <pt x="176" y="-24" on="0"/>
        <pt x="187" y="35" on="0"/>
        <pt x="192" y="60" on="1"/>
        <pt x="210" y="151" on="0"/>
        <pt x="246" y="364" on="0"/>
        <pt x="281" y="588" on="0"/>
        <pt x="314" y="815" on="0"/>
        <pt x="328" y="919" on="1"/>
        <pt x="361" y="1164" on="0"/>
      </contour>
    </TTGlyph>
    <TTGlyph name="bracketright" xMin="0" yMin="-192" xMax="912" yMax="1667">
      <contour>
        <pt x="696" y="60" on="1"/>
        <pt x="690" y="37" on="0"/>
        <pt x="675" y="-18" on="0"/>
        <pt x="650" y="-74" on="0"/>
        <pt x="612" y="-127" on="0"/>
        <pt x="554" y="-167" on="0"/>
        <pt x="472" y="-192" on="0"/>
        <pt x="416" y="-192" on="1"/>
        <pt x="108" y="-192" on="1"/>
        <pt x="81" y="-192" on="0"/>
        <pt x="41" y="-169" on="0"/>
        <pt x="14" y="-135" on="0"/>
        <pt x="0" y="-96" on="0"/>
        <pt x="0" y="-80" on="1"/>
        <pt x="0" y="-59" on="0"/>
        <pt x="22" y="-19" on="0"/>
        <pt x="57" y="13" on="0"/>
        <pt x="99" y="32" on="0"/>
        <pt x="119" y="32" on="1"/>
        <pt x="416" y="32" on="1"/>
        <pt x="416" y="34" on="0"/>
        <pt x="428" y="116" on="0"/>
        <pt x="448" y="253" on="0"/>
        <pt x="475" y="435" on="0"/>
        <pt x="506" y="638" on="0"/>
        <pt x="538" y="852" on="0"/>
        <pt x="569" y="1054" on="0"/>
        <pt x="596" y="1233" on="0"/>
        <pt x="617" y="1367" on="0"/>
        <pt x="629" y="1444" on="0"/>
        <pt x="629" y="1443" on="1"/>
        <pt x="369" y="1443" on="1"/>
        <pt x="350" y="1443" on="0"/>
        <pt x="313" y="1460" on="0"/>
        <pt x="283" y="1488" on="0"/>
        <pt x="264" y="1524" on="0"/>
        <pt x="264" y="1544" on="1"/>
        <pt x="264" y="1559" on="0"/>
        <pt x="281" y="1602" on="0"/>
        <pt x="313" y="1640" on="0"/>
        <pt x="360" y="1667" on="0"/>
        <pt x="389" y="1667" on="1"/>
        <pt x="735" y="1667" on="1"/>
        <pt x="789" y="1667" on="0"/>
        <pt x="858" y="1644" on="0"/>
        <pt x="897" y="1605" on="0"/>
        <pt x="912" y="1555" on="0"/>
        <pt x="912" y="1528" on="1"/>
        <pt x="912" y="1499" on="0"/>
        <pt x="901" y="1439" on="0"/>
        <pt x="896" y="1415" on="1"/>
        <pt x="878" y="1324" on="0"/>
        <pt x="841" y="1111" on="0"/>
        <pt x="807" y="886" on="0"/>
        <pt x="774" y="660" on="0"/>
        <pt x="760" y="556" on="1"/>
        <pt x="727" y="311" on="0"/>
      </contour>
    </TTGlyph>
    <TTGlyph name="brokenbar" xMin="308" yMin="-162" xMax="808" yMax="1854">
      <contour>
        <pt x="575" y="1728" on="1"/>
        <pt x="591" y="1792" on="0"/>
        <pt x="656" y="1854" on="0"/>
        <pt x="691" y="1854" on="1"/>
        <pt x="713" y="1854" on="0"/>
        <pt x="756" y="1830" on="0"/>
        <pt x="788" y="1783" on="0"/>
        <pt x="808" y="1713" on="0"/>
        <pt x="808" y="1668" on="1"/>
        <pt x="808" y="1657" on="0"/>
        <pt x="808" y="1634" on="0"/>
        <pt x="806" y="1622" on="1"/>
        <pt x="802" y="1605" on="0"/>
        <pt x="792" y="1535" on="0"/>
        <pt x="779" y="1443" on="0"/>
        <pt x="766" y="1336" on="0"/>
        <pt x="752" y="1229" on="0"/>
        <pt x="740" y="1128" on="0"/>
        <pt x="735" y="1088" on="1"/>
        <pt x="730" y="1049" on="0"/>
        <pt x="707" y="994" on="0"/>
        <pt x="674" y="959" on="0"/>
        <pt x="635" y="943" on="0"/>
        <pt x="615" y="943" on="1"/>
        <pt x="590" y="943" on="0"/>
        <pt x="542" y="966" on="0"/>
        <pt x="504" y="1006" on="0"/>
        <pt x="481" y="1063" on="0"/>
        <pt x="481" y="1097" on="1"/>
        <pt x="481" y="1104" on="0"/>
        <pt x="481" y="1117" on="0"/>
        <pt x="483" y="1125" on="1"/>
        <pt x="488" y="1167" on="0"/>
        <pt x="502" y="1271" on="0"/>
        <pt x="518" y="1383" on="0"/>
        <pt x="535" y="1499" on="0"/>
        <pt x="552" y="1605" on="0"/>
        <pt x="568" y="1696" on="0"/>
      </contour>
      <contour>
        <pt x="400" y="608" on="1"/>
        <pt x="405" y="643" on="0"/>
        <pt x="431" y="696" on="0"/>
        <pt x="467" y="731" on="0"/>
        <pt x="511" y="749" on="0"/>
        <pt x="533" y="749" on="1"/>
        <pt x="556" y="749" on="0"/>
        <pt x="599" y="729" on="0"/>
        <pt x="633" y="688" on="0"/>
        <pt x="654" y="626" on="0"/>
        <pt x="654" y="585" on="1"/>
        <pt x="654" y="573" on="0"/>
        <pt x="652" y="548" on="0"/>
        <pt x="650" y="534" on="1"/>
        <pt x="633" y="418" on="0"/>
        <pt x="613" y="258" on="0"/>
        <pt x="597" y="130" on="0"/>
        <pt x="579" y="11" on="0"/>
        <pt x="566" y="-64" on="1"/>
        <pt x="561" y="-96" on="0"/>
        <pt x="539" y="-135" on="0"/>
        <pt x="509" y="-156" on="0"/>
        <pt x="475" y="-162" on="0"/>
        <pt x="459" y="-162" on="1"/>
        <pt x="447" y="-162" on="0"/>
        <pt x="425" y="-160" on="0"/>
        <pt x="415" y="-160" on="1"/>
        <pt x="391" y="-160" on="0"/>
        <pt x="352" y="-134" on="0"/>
        <pt x="323" y="-90" on="0"/>
        <pt x="308" y="-32" on="0"/>
        <pt x="308" y="1" on="1"/>
        <pt x="308" y="16" on="0"/>
        <pt x="310" y="50" on="0"/>
        <pt x="313" y="69" on="1"/>
        <pt x="319" y="111" on="0"/>
        <pt x="329" y="174" on="0"/>
        <pt x="340" y="235" on="0"/>
        <pt x="352" y="303" on="0"/>
        <pt x="367" y="395" on="0"/>
        <pt x="387" y="520" on="0"/>
      </contour>
    </TTGlyph>
    <TTGlyph name="bullet" xMin="256" yMin="251" xMax="864" yMax="896">
      <contour>
        <pt x="256" y="544" on="1"/>
        <pt x="256" y="629" on="0"/>
        <pt x="327" y="761" on="0"/>
        <pt x="439" y="850" on="0"/>
        <pt x="575" y="896" on="0"/>
        <pt x="640" y="896" on="1"/>
        <pt x="686" y="896" on="0"/>
        <pt x="768" y="874" on="0"/>
        <pt x="829" y="823" on="0"/>
        <pt x="864" y="736" on="0"/>
        <pt x="864" y="672" on="1"/>
        <pt x="864" y="573" on="0"/>
        <pt x="802" y="417" on="0"/>
        <pt x="703" y="309" on="0"/>
        <pt x="576" y="251" on="0"/>
        <pt x="512" y="251" on="1"/>
        <pt x="465" y="251" on="0"/>
        <pt x="374" y="281" on="0"/>
        <pt x="301" y="349" on="0"/>
        <pt x="256" y="461" on="0"/>
      </contour>
    </TTGlyph>
    <TTGlyph name="c" xMin="64" yMin="0" xMax="974" yMax="960">
      <contour>
        <pt x="437" y="0" on="1"/>
        <pt x="345" y="0" on="0"/>
        <pt x="206" y="68" on="0"/>
        <pt x="112" y="182" on="0"/>
        <pt x="64" y="332" on="0"/>
        <pt x="64" y="413" on="1"/>
        <pt x="64" y="471" on="0"/>
        <pt x="88" y="597" on="0"/>
        <pt x="135" y="718" on="0"/>
        <pt x="204" y="828" on="0"/>
        <pt x="295" y="911" on="0"/>
        <pt x="407" y="960" on="0"/>
        <pt x="474" y="960" on="1"/>
        <pt x="531" y="960" on="0"/>
        <pt x="628" y="925" on="0"/>
        <pt x="697" y="863" on="0"/>
        <pt x="736" y="778" on="0"/>
        <pt x="736" y="729" on="1"/>
        <pt x="736" y="695" on="0"/>
        <pt x="718" y="629" on="0"/>
        <pt x="683" y="576" on="0"/>
        <pt x="633" y="544" on="0"/>
        <pt x="602" y="544" on="1"/>
        <pt x="555" y="544" on="0"/>
        <pt x="526" y="594" on="0"/>
        <pt x="526" y="638" on="1"/>
        <pt x="526" y="656" on="0"/>
        <pt x="529" y="696" on="0"/>
        <pt x="529" y="712" on="1"/>
        <pt x="529" y="736" on="0"/>
        <pt x="519" y="768" on="0"/>
        <pt x="502" y="768" on="1"/>
        <pt x="461" y="768" on="0"/>
        <pt x="403" y="729" on="0"/>
        <pt x="362" y="666" on="0"/>
        <pt x="338" y="587" on="0"/>
        <pt x="324" y="509" on="0"/>
        <pt x="320" y="438" on="0"/>
        <pt x="320" y="414" on="1"/>
        <pt x="320" y="378" on="0"/>
        <pt x="333" y="300" on="0"/>
        <pt x="369" y="235" on="0"/>
        <pt x="431" y="192" on="0"/>
        <pt x="480" y="192" on="1"/>
        <pt x="528" y="192" on="0"/>
        <pt x="644" y="251" on="0"/>
        <pt x="761" y="341" on="0"/>
        <pt x="867" y="449" on="0"/>
        <pt x="905" y="497" on="1"/>
        <pt x="974" y="381" on="1"/>
        <pt x="899" y="274" on="0"/>
        <pt x="812" y="190" on="1"/>
        <pt x="775" y="154" on="0"/>
        <pt x="688" y="86" on="0"/>
        <pt x="593" y="33" on="0"/>
        <pt x="490" y="0" on="0"/>
      </contour>
    </TTGlyph>
    <TTGlyph name="caron" xMin="109" yMin="1019" xMax="786" yMax="1695">
      <contour>
        <pt x="410" y="1183" on="1"/>
        <pt x="440" y="1264" on="0"/>
        <pt x="468" y="1337" on="1"/>
        <pt x="480" y="1368" on="0"/>
        <pt x="505" y="1433" on="0"/>
        <pt x="529" y="1493" on="0"/>
        <pt x="549" y="1545" on="0"/>
        <pt x="557" y="1563" on="1"/>
        <pt x="575" y="1610" on="0"/>
        <pt x="614" y="1662" on="0"/>
        <pt x="655" y="1686" on="0"/>
        <pt x="697" y="1691" on="0"/>
        <pt x="718" y="1691" on="1"/>
        <pt x="728" y="1691" on="0"/>
        <pt x="752" y="1678" on="0"/>
        <pt x="772" y="1654" on="0"/>
        <pt x="786" y="1621" on="0"/>
        <pt x="786" y="1600" on="1"/>
        <pt x="786" y="1582" on="0"/>
        <pt x="779" y="1562" on="1"/>
        <pt x="615" y="1233" on="1"/>
        <pt x="588" y="1180" on="0"/>
        <pt x="545" y="1100" on="0"/>
        <pt x="499" y="1046" on="0"/>
        <pt x="439" y="1019" on="0"/>
        <pt x="394" y="1019" on="1"/>
        <pt x="350" y="1019" on="0"/>
        <pt x="290" y="1052" on="0"/>
        <pt x="248" y="1116" on="0"/>
        <pt x="217" y="1209" on="0"/>
        <pt x="202" y="1269" on="1"/>
        <pt x="191" y="1302" on="0"/>
        <pt x="177" y="1345" on="0"/>
        <pt x="167" y="1377" on="0"/>
        <pt x="158" y="1405" on="0"/>
        <pt x="146" y="1445" on="0"/>
        <pt x="128" y="1502" on="0"/>
        <pt x="114" y="1547" on="1"/>
        <pt x="111" y="1555" on="0"/>
        <pt x="109" y="1573" on="0"/>
        <pt x="109" y="1582" on="1"/>
        <pt x="109" y="1605" on="0"/>
        <pt x="124" y="1646" on="0"/>
        <pt x="152" y="1677" on="0"/>
        <pt x="195" y="1695" on="0"/>
        <pt x="223" y="1695" on="1"/>
        <pt x="242" y="1695" on="0"/>
        <pt x="277" y="1683" on="0"/>
        <pt x="307" y="1653" on="0"/>
        <pt x="330" y="1602" on="0"/>
        <pt x="337" y="1563" on="1"/>
        <pt x="354" y="1460" on="0"/>
        <pt x="381" y="1316" on="0"/>
        <pt x="391" y="1270" on="1"/>
        <pt x="402" y="1216" on="0"/>
      </contour>
    </TTGlyph>
    <TTGlyph name="ccedilla" xMin="64" yMin="-511" xMax="974" yMax="960">
      <component glyphName="c" x="0" y="0" flags="0x1204"/>
      <component glyphName="cedilla" x="-143" y="0" flags="0x1004"/>
    </TTGlyph>
    <TTGlyph name="cedilla" xMin="362" yMin="-511" xMax="686" yMax="96">
      <contour>
        <pt x="684" y="46" on="1"/>
        <pt x="674" y="-57" on="0"/>
        <pt x="662" y="-182" on="0"/>
        <pt x="654" y="-253" on="0"/>
        <pt x="649" y="-285" on="0"/>
        <pt x="645" y="-306" on="0"/>
        <pt x="640" y="-331" on="0"/>
        <pt x="636" y="-360" on="1"/>
        <pt x="631" y="-397" on="0"/>
        <pt x="598" y="-453" on="0"/>
        <pt x="553" y="-491" on="0"/>
        <pt x="499" y="-511" on="0"/>
        <pt x="473" y="-511" on="1"/>
        <pt x="451" y="-511" on="0"/>
        <pt x="411" y="-497" on="0"/>
        <pt x="380" y="-467" on="0"/>
        <pt x="362" y="-422" on="0"/>
        <pt x="362" y="-392" on="1"/>
        <pt x="362" y="-350" on="0"/>
        <pt x="396" y="-259" on="0"/>
        <pt x="454" y="-153" on="0"/>
        <pt x="532" y="-29" on="0"/>
        <pt x="576" y="46" on="1"/>
        <pt x="584" y="66" on="0"/>
        <pt x="620" y="96" on="0"/>
        <pt x="640" y="96" on="1"/>
        <pt x="659" y="96" on="0"/>
        <pt x="686" y="80" on="0"/>
        <pt x="686" y="61" on="1"/>
        <pt x="686" y="56" on="0"/>
      </contour>
    </TTGlyph>
    <TTGlyph name="cent" xMin="64" yMin="-199" xMax="886" yMax="1135">
      <contour>
        <pt x="515" y="1023" on="1"/>
        <pt x="516" y="1042" on="0"/>
        <pt x="529" y="1082" on="0"/>
        <pt x="551" y="1115" on="0"/>
        <pt x="583" y="1135" on="0"/>
        <pt x="604" y="1135" on="1"/>
        <pt x="614" y="1135" on="0"/>
        <pt x="629" y="1118" on="0"/>
        <pt x="640" y="1094" on="0"/>
        <pt x="645" y="1067" on="0"/>
        <pt x="645" y="1057" on="1"/>
        <pt x="645" y="1041" on="0"/>
        <pt x="642" y="988" on="0"/>
        <pt x="640" y="970" on="1"/>
        <pt x="638" y="954" on="1"/>
        <pt x="694" y="946" on="0"/>
        <pt x="785" y="905" on="0"/>
        <pt x="850" y="846" on="0"/>
        <pt x="886" y="771" on="0"/>
        <pt x="886" y="729" on="1"/>
        <pt x="886" y="695" on="0"/>
        <pt x="871" y="629" on="0"/>
        <pt x="841" y="576" on="0"/>
        <pt x="799" y="544" on="0"/>
        <pt x="772" y="544" on="1"/>
        <pt x="737" y="544" on="0"/>
        <pt x="707" y="573" on="0"/>
        <pt x="696" y="617" on="0"/>
        <pt x="695" y="670" on="0"/>
        <pt x="685" y="719" on="0"/>
        <pt x="657" y="758" on="0"/>
        <pt x="624" y="765" on="1"/>
        <pt x="616" y="647" on="0"/>
        <pt x="600" y="364" on="0"/>
        <pt x="586" y="202" on="1"/>
        <pt x="639" y="218" on="0"/>
        <pt x="747" y="279" on="0"/>
        <pt x="785" y="307" on="1"/>
        <pt x="798" y="314" on="0"/>
        <pt x="809" y="314" on="1"/>
        <pt x="823" y="314" on="0"/>
        <pt x="850" y="297" on="0"/>
        <pt x="871" y="270" on="0"/>
        <pt x="884" y="235" on="0"/>
        <pt x="884" y="218" on="1"/>
        <pt x="884" y="201" on="0"/>
        <pt x="870" y="172" on="0"/>
        <pt x="854" y="161" on="1"/>
        <pt x="816" y="128" on="0"/>
        <pt x="770" y="98" on="1"/>
        <pt x="731" y="72" on="0"/>
        <pt x="627" y="19" on="0"/>
        <pt x="568" y="5" on="1"/>
        <pt x="552" y="-130" on="1"/>
        <pt x="547" y="-153" on="0"/>
        <pt x="533" y="-180" on="0"/>
        <pt x="517" y="-195" on="0"/>
        <pt x="499" y="-199" on="0"/>
        <pt x="490" y="-199" on="1"/>
        <pt x="484" y="-199" on="0"/>
        <pt x="474" y="-198" on="0"/>
        <pt x="469" y="-198" on="1"/>
        <pt x="459" y="-198" on="0"/>
        <pt x="442" y="-180" on="0"/>
        <pt x="430" y="-150" on="0"/>
        <pt x="423" y="-111" on="0"/>
        <pt x="423" y="-89" on="1"/>
        <pt x="423" y="-70" on="0"/>
        <pt x="427" y="-34" on="0"/>
        <pt x="429" y="0" on="1"/>
        <pt x="339" y="1" on="0"/>
        <pt x="202" y="70" on="0"/>
        <pt x="111" y="184" on="0"/>
        <pt x="64" y="332" on="0"/>
        <pt x="64" y="413" on="1"/>
        <pt x="64" y="467" on="0"/>
        <pt x="90" y="585" on="0"/>
        <pt x="141" y="700" on="0"/>
        <pt x="217" y="807" on="0"/>
        <pt x="316" y="891" on="0"/>
        <pt x="437" y="948" on="0"/>
        <pt x="509" y="956" on="1"/>
      </contour>
      <contour>
        <pt x="320" y="414" on="1"/>
        <pt x="320" y="382" on="0"/>
        <pt x="331" y="311" on="0"/>
        <pt x="358" y="249" on="0"/>
        <pt x="406" y="203" on="0"/>
        <pt x="444" y="195" on="1"/>
        <pt x="449" y="256" on="0"/>
        <pt x="460" y="394" on="0"/>
        <pt x="472" y="538" on="0"/>
        <pt x="485" y="682" on="0"/>
        <pt x="491" y="750" on="1"/>
        <pt x="434" y="727" on="0"/>
        <pt x="366" y="639" on="0"/>
        <pt x="331" y="539" on="0"/>
        <pt x="320" y="444" on="0"/>
      </contour>
    </TTGlyph>
    <TTGlyph name="circumflex" xMin="108" yMin="1020" xMax="786" yMax="1696">
      <contour>
        <pt x="485" y="1532" on="1"/>
        <pt x="454" y="1451" on="0"/>
        <pt x="426" y="1378" on="1"/>
        <pt x="414" y="1347" on="0"/>
        <pt x="389" y="1282" on="0"/>
        <pt x="366" y="1222" on="0"/>
        <pt x="345" y="1170" on="0"/>
        <pt x="338" y="1152" on="1"/>
        <pt x="320" y="1105" on="0"/>
        <pt x="281" y="1053" on="0"/>
        <pt x="240" y="1029" on="0"/>
        <pt x="198" y="1024" on="0"/>
        <pt x="177" y="1024" on="1"/>
        <pt x="166" y="1024" on="0"/>
        <pt x="142" y="1037" on="0"/>
        <pt x="122" y="1061" on="0"/>
        <pt x="108" y="1094" on="0"/>
        <pt x="108" y="1115" on="1"/>
        <pt x="108" y="1134" on="0"/>
        <pt x="116" y="1153" on="1"/>
        <pt x="280" y="1482" on="1"/>
        <pt x="307" y="1534" on="0"/>
        <pt x="350" y="1614" on="0"/>
        <pt x="396" y="1668" on="0"/>
        <pt x="456" y="1696" on="0"/>
        <pt x="501" y="1696" on="1"/>
        <pt x="545" y="1696" on="0"/>
        <pt x="605" y="1663" on="0"/>
        <pt x="647" y="1599" on="0"/>
        <pt x="678" y="1506" on="0"/>
        <pt x="693" y="1446" on="1"/>
        <pt x="704" y="1412" on="0"/>
        <pt x="718" y="1370" on="0"/>
        <pt x="728" y="1338" on="0"/>
        <pt x="737" y="1310" on="0"/>
        <pt x="749" y="1270" on="0"/>
        <pt x="767" y="1213" on="0"/>
        <pt x="781" y="1168" on="1"/>
        <pt x="786" y="1150" on="0"/>
        <pt x="786" y="1133" on="1"/>
        <pt x="786" y="1086" on="0"/>
        <pt x="728" y="1020" on="0"/>
        <pt x="671" y="1020" on="1"/>
        <pt x="652" y="1020" on="0"/>
        <pt x="617" y="1032" on="0"/>
        <pt x="587" y="1062" on="0"/>
        <pt x="564" y="1113" on="0"/>
        <pt x="558" y="1152" on="1"/>
        <pt x="541" y="1255" on="0"/>
        <pt x="513" y="1399" on="0"/>
        <pt x="504" y="1445" on="1"/>
        <pt x="493" y="1499" on="0"/>
      </contour>
    </TTGlyph>
</ttFont>
